<?xml version="1.0" encoding="iso-8859-1"?>
<!-- Generator: Adobe Illustrator 19.0.0, SVG Export Plug-In . SVG Version: 6.00 Build 0)  -->
<svg version="1.1" id="Capa_1" xmlns="http://www.w3.org/2000/svg" xmlns:xlink="http://www.w3.org/1999/xlink" x="0px" y="0px"
	 viewBox="0 0 512 512" style="enable-background:new 0 0 512 512;" xml:space="preserve">
<g>
	<path style="fill:#2196F3;" d="M224.001,74.328c5.891,0,10.667-4.776,10.667-10.667s-4.776-10.667-10.667-10.667
		c-123.653,0.141-223.859,100.347-224,224v64c-0.185,64.99,52.349,117.825,117.338,118.01
		c64.99,0.185,117.825-52.349,118.01-117.338c0.185-64.99-52.349-117.825-117.338-118.01c-38.374-0.109-74.392,18.499-96.506,49.861
		C23.48,163.049,113.514,74.485,224.001,74.328z"/>
	<path style="fill:#2196F3;" d="M394.667,223.662c-38.154,0.03-73.905,18.63-95.829,49.856
		c1.976-110.469,92.01-199.033,202.496-199.189c5.891,0,10.667-4.776,10.667-10.667s-4.776-10.667-10.667-10.667
		c-123.653,0.141-223.859,100.347-224,224v64c0,64.801,52.532,117.333,117.333,117.333S512,405.796,512,340.995
		S459.469,223.662,394.667,223.662z"/>
</g>
<g>
</g>
<g>
</g>
<g>
</g>
<g>
</g>
<g>
</g>
<g>
</g>
<g>
</g>
<g>
</g>
<g>
</g>
<g>
</g>
<g>
</g>
<g>
</g>
<g>
</g>
<g>
</g>
<g>
</g>
</svg>
