<?xml version="1.0" encoding="iso-8859-1"?>
<!-- Generator: Adobe Illustrator 18.0.0, SVG Export Plug-In . SVG Version: 6.00 Build 0)  -->
<!DOCTYPE svg PUBLIC "-//W3C//DTD SVG 1.1//EN" "http://www.w3.org/Graphics/SVG/1.1/DTD/svg11.dtd">
<svg version="1.1" id="Capa_1" xmlns="http://www.w3.org/2000/svg" xmlns:xlink="http://www.w3.org/1999/xlink" x="0px" y="0px"
	 viewBox="0 0 463.4 463.4" style="enable-background:new 0 0 463.4 463.4;" xml:space="preserve">
<path d="M463.393,167.643L295.75,0L79.336,216.414l6.096,6.096L8.55,299.393c-11.391,11.392-11.391,29.927,0,41.319l114.131,114.131
	c5.519,5.519,12.856,8.558,20.66,8.558s15.141-3.039,20.66-8.558l76.882-76.882l6.096,6.096L463.393,167.643z M443.594,167.643
	L264.958,346.279L117.114,198.435L295.75,19.799L443.594,167.643z M107.214,208.335l147.844,147.844l-8.079,8.079L99.135,216.414
	L107.214,208.335z M154.101,444.942c-5.932,5.934-15.588,5.934-21.52,0L18.451,330.813c-5.933-5.934-5.933-15.588,0-21.521
	l76.882-76.882l135.65,135.65L154.101,444.942z"/>
<g>
</g>
<g>
</g>
<g>
</g>
<g>
</g>
<g>
</g>
<g>
</g>
<g>
</g>
<g>
</g>
<g>
</g>
<g>
</g>
<g>
</g>
<g>
</g>
<g>
</g>
<g>
</g>
<g>
</g>
</svg>
