<?xml version="1.0" encoding="UTF-8" standalone="no"?>
<!-- Generator: Adobe Illustrator 19.0.0, SVG Export Plug-In . SVG Version: 6.00 Build 0)  -->

<svg
   xmlns:dc="http://purl.org/dc/elements/1.1/"
   xmlns:cc="http://creativecommons.org/ns#"
   xmlns:rdf="http://www.w3.org/1999/02/22-rdf-syntax-ns#"
   xmlns:svg="http://www.w3.org/2000/svg"
   xmlns="http://www.w3.org/2000/svg"
   xmlns:sodipodi="http://sodipodi.sourceforge.net/DTD/sodipodi-0.dtd"
   xmlns:inkscape="http://www.inkscape.org/namespaces/inkscape"
   version="1.1"
   id="Capa_1"
   x="0px"
   y="0px"
   viewBox="0 0 512.005 512.005"
   style="enable-background:new 0 0 512.005 512.005;"
   xml:space="preserve"
   sodipodi:docname="search.svg"
   inkscape:version="0.92.5 (2060ec1f9f, 2020-04-08)"><metadata
   id="metadata43"><rdf:RDF><cc:Work
       rdf:about=""><dc:format>image/svg+xml</dc:format><dc:type
         rdf:resource="http://purl.org/dc/dcmitype/StillImage" /><dc:title></dc:title></cc:Work></rdf:RDF></metadata><defs
   id="defs41" /><sodipodi:namedview
   pagecolor="#ffffff"
   bordercolor="#666666"
   borderopacity="1"
   objecttolerance="10"
   gridtolerance="10"
   guidetolerance="10"
   inkscape:pageopacity="0"
   inkscape:pageshadow="2"
   inkscape:window-width="640"
   inkscape:window-height="480"
   id="namedview39"
   showgrid="false"
   inkscape:zoom="0.46093299"
   inkscape:cx="256.0025"
   inkscape:cy="256.0025"
   inkscape:window-x="0"
   inkscape:window-y="339"
   inkscape:window-maximized="0"
   inkscape:current-layer="Capa_1" />
<g
   id="g6"
   style="fill:#ffffff">
	<g
   id="g4"
   style="fill:#ffffff">
		<path
   d="M505.749,475.587l-145.6-145.6c28.203-34.837,45.184-79.104,45.184-127.317c0-111.744-90.923-202.667-202.667-202.667    S0,90.925,0,202.669s90.923,202.667,202.667,202.667c48.213,0,92.48-16.981,127.317-45.184l145.6,145.6    c4.16,4.16,9.621,6.251,15.083,6.251s10.923-2.091,15.083-6.251C514.091,497.411,514.091,483.928,505.749,475.587z     M202.667,362.669c-88.235,0-160-71.765-160-160s71.765-160,160-160s160,71.765,160,160S290.901,362.669,202.667,362.669z"
   id="path2"
   style="fill:#ffffff" />
	</g>
</g>
<g
   id="g8">
</g>
<g
   id="g10">
</g>
<g
   id="g12">
</g>
<g
   id="g14">
</g>
<g
   id="g16">
</g>
<g
   id="g18">
</g>
<g
   id="g20">
</g>
<g
   id="g22">
</g>
<g
   id="g24">
</g>
<g
   id="g26">
</g>
<g
   id="g28">
</g>
<g
   id="g30">
</g>
<g
   id="g32">
</g>
<g
   id="g34">
</g>
<g
   id="g36">
</g>
</svg>