<svg id="Capa_1" enable-background="new 0 0 511.843 511.843" height="512" viewBox="0 0 511.843 511.843" width="512" xmlns="http://www.w3.org/2000/svg" xmlns:xlink="http://www.w3.org/1999/xlink"><linearGradient id="SVGID_1_" gradientUnits="userSpaceOnUse" x1="255.921" x2="255.921" y1="511.843" y2="0"><stop offset="0" stop-color="#fd5900"/><stop offset="1" stop-color="#ffde00"/></linearGradient><g><g><path d="m450.442 215.54c-1.888-3.567-1.888-7.827-.001-11.393l6.3-11.901c9.693-18.311 4.426-41.389-12.252-53.681l-10.839-7.989c-3.249-2.395-5.097-6.232-4.943-10.263l.513-13.457c.788-20.702-13.971-39.209-34.33-43.048l-13.233-2.495c-3.966-.748-7.295-3.403-8.906-7.103l-5.377-12.346c-8.273-18.994-29.598-29.267-49.608-23.89l-13.005 3.494c-3.896 1.046-8.05.099-11.106-2.535l-10.201-8.791c-15.693-13.522-39.365-13.522-55.06 0 0 0-10.202 8.791-10.202 8.791-3.057 2.634-7.208 3.581-11.105 2.535l-13.005-3.494c-20.011-5.375-41.335 4.896-49.608 23.89l-5.378 12.347c-1.611 3.699-4.94 6.354-8.906 7.102l-13.233 2.495c-20.359 3.839-35.118 22.346-34.33 43.048l.512 13.457c.154 4.032-1.694 7.869-4.942 10.263l-10.84 7.99c-16.677 12.292-21.944 35.37-12.252 53.681l6.3 11.901c1.888 3.566 1.888 7.825 0 11.392l-6.3 11.901c-9.692 18.31-4.425 41.388 12.252 53.681l10.839 7.989c3.249 2.395 5.096 6.231 4.942 10.265l-.512 13.456c-.788 20.703 13.971 39.21 34.33 43.048l6.942 1.309-47.81 86.393c-2.655 4.798-2.48 10.662.455 15.293s8.167 7.296 13.635 6.939l43.904-2.832 19.573 40.402c2.447 5.051 7.509 8.313 13.12 8.456.128.003.254.005.382.005 5.464 0 10.511-2.977 13.149-7.785l50.714-92.44c7.36 5.374 16.13 8.068 24.903 8.068 8.639 0 17.276-2.607 24.566-7.817l50.573 92.188c2.639 4.81 7.685 7.786 13.149 7.786.127 0 .255-.001.382-.005 5.61-.142 10.673-3.404 13.119-8.455l19.574-40.403 43.903 2.832c5.475.357 10.7-2.307 13.636-6.939 2.935-4.631 3.109-10.495.454-15.292l-47.764-86.312 7.375-1.391c20.359-3.838 35.118-22.345 34.33-43.049l-.513-13.455c-.153-4.033 1.694-7.87 4.942-10.264l10.84-7.989c16.678-12.292 21.945-35.37 12.252-53.681zm-282.46 248.607-11.299-23.325c-2.66-5.489-8.383-8.825-14.465-8.429l-26.602 1.715 29.915-54.057c8.922 17.555 29.337 26.823 48.547 21.66l9.566-2.569zm227.767-30.039-26.601-1.715c-6.093-.388-11.805 2.94-14.465 8.429l-11.3 23.325-35.743-65.155 10.123 2.719c3.58.961 7.198 1.422 10.779 1.422 15.474-.001 30.201-8.612 37.542-22.631zm28.178-204.534 6.3 11.901c2.798 5.286 1.277 11.948-3.537 15.496l-10.841 7.99c-11.251 8.293-17.652 21.584-17.121 35.554l.513 13.455c.228 5.977-4.033 11.319-9.91 12.427l-13.234 2.495c-7.263 1.37-13.897 4.601-19.374 9.223-.173.141-.344.284-.509.432-4.649 4.051-8.429 9.12-10.967 14.949l-5.377 12.346c-2.388 5.483-8.546 8.448-14.321 6.896l-13.005-3.493c-27.83-7.478-44.28 14.989-48.673 17.571-4.531 3.904-11.363 3.905-15.895 0l-10.201-8.79c-10.426-8.984-24.767-12.462-38.472-8.781l-13.005 3.493c-5.773 1.551-11.933-1.413-14.321-6.896l-5.377-12.345c-5.547-12.739-17.121-22.016-30.852-24.605l-13.233-2.495c-5.877-1.108-10.137-6.451-9.91-12.428l.512-13.455c.532-13.969-5.869-27.26-17.122-35.554l-10.839-7.989c-4.814-3.548-6.335-10.21-3.537-15.496l6.3-11.902c6.54-12.355 6.54-27.107 0-39.461l-6.3-11.901c-2.798-5.286-1.277-11.948 3.537-15.496l10.84-7.99c11.252-8.294 17.653-21.585 17.121-35.553l-.512-13.457c-.228-5.977 4.033-11.319 9.91-12.427l13.232-2.495c13.737-2.59 25.271-11.788 30.852-24.603l5.378-12.346c2.388-5.483 8.544-8.449 14.32-6.897l13.005 3.494c13.503 3.627 27.884.344 38.472-8.781l10.201-8.79c4.531-3.904 11.363-3.904 15.895 0l10.201 8.79c10.59 9.126 24.974 12.408 38.473 8.782l13.005-3.494c5.774-1.551 11.933 1.413 14.321 6.897l5.377 12.345c5.581 12.816 17.115 22.014 30.852 24.604l13.233 2.495c5.877 1.108 10.138 6.451 9.91 12.426l-.513 13.458c-.531 13.968 5.87 27.259 17.122 35.553l10.84 7.99c4.814 3.548 6.335 10.21 3.537 15.496l-6.301 11.902c-6.539 12.353-6.539 27.104 0 39.46zm-108.785-53.116-31.626-4.595-14.144-28.658c-2.527-5.12-7.742-8.361-13.451-8.361s-10.924 3.242-13.451 8.362l-14.143 28.658-31.626 4.595c-5.65.821-10.345 4.779-12.109 10.209-1.765 5.43-.293 11.391 3.795 15.376l22.885 22.307-5.402 31.498c-.965 5.627 1.348 11.315 5.967 14.671 4.62 3.356 10.743 3.799 15.797 1.142l28.287-14.871 28.287 14.871c5.104 2.683 11.223 2.181 15.797-1.142 4.619-3.356 6.933-9.043 5.968-14.671l-5.402-31.498 22.885-22.307c4.088-3.985 5.56-9.946 3.795-15.376s-6.459-9.389-12.109-10.21zm-41.159 31.914c-3.535 3.446-5.148 8.411-4.314 13.277l1.598 9.315-8.366-4.398c-2.185-1.149-4.583-1.723-6.98-1.723s-4.795.574-6.98 1.723l-8.365 4.397 1.598-9.314c.834-4.866-.779-9.831-4.314-13.277l-6.768-6.597 9.353-1.359c4.886-.71 9.109-3.779 11.294-8.206l4.182-8.475 4.183 8.475c2.185 4.427 6.409 7.496 11.294 8.206l9.353 1.359zm-18.062-133.529c-74.439 0-135 60.561-135 135s60.561 135 135 135 135-60.561 135-135-60.56-135-135-135zm0 240c-57.897 0-105-47.103-105-105s47.103-105 105-105 105 47.103 105 105-47.102 105-105 105z" fill="url(#SVGID_1_)"/></g></g></svg>