<?xml version="1.0" encoding="UTF-8" standalone="no"?>
<!-- Created with Inkscape (http://www.inkscape.org/) -->
<svg xmlns:svg="http://www.w3.org/2000/svg" xmlns="http://www.w3.org/2000/svg" xmlns:inkscape="http://www.inkscape.org/namespaces/inkscape" xmlns:dc="http://purl.org/dc/elements/1.1/" xmlns:cc="http://web.resource.org/cc/" xmlns:rdf="http://www.w3.org/1999/02/22-rdf-syntax-ns#" version="1.0" width="707" height="291" viewBox="0 0 707 291" id="Layer_1" xml:space="preserve"><defs id="defs61">

<metadata>
<rdf:RDF xmlns="http://web.resource.org/cc/" xmlns:dc="http://purl.org/dc/elements/1.1/" xmlns:rdf="http://www.w3.org/1999/02/22-rdf-syntax-ns#">
      <Work rdf:about="">
         <dc:title>Parchment Background</dc:title>
         <dc:description>Parchment Background</dc:description>
         <dc:subject>
          <rdf:Bag>
            <rdf:li>border</rdf:li>
            <rdf:li>background</rdf:li>
		<rdf:li>parchment</rdf:li>
          </rdf:Bag>
         </dc:subject>
         <dc:publisher><Agent rdf:about="http://www.openclipart.org/"><dc:title>Open Clip Art Project</dc:title></Agent></dc:publisher>
         <dc:creator><Agent rdf:about=""><dc:title>Gerald G.</dc:title></Agent></dc:creator>
         <dc:rights><Agent rdf:about="http://web.resource.org/cc/PublicDomain"><dc:title>Public Domain</dc:title></Agent></dc:rights>
         <dc:date>2006/09/25</dc:date>
         <dc:format>image/svg+xml</dc:format>
         <dc:type>http://purl.org/dc/dcmitype/StillImage</dc:type>
         <license rdf:resource="http://web.resource.org/cc/PublicDomain"/>
      </Work>
      <License rdf:about="http://web.resource.org/cc/PublicDomain">
         <permits rdf:resource="http://web.resource.org/cc/Reproduction"/>
         <permits rdf:resource="http://web.resource.org/cc/Distribution"/>
         <permits rdf:resource="http://web.resource.org/cc/DerivativeWorks"/>
      </License>
   </rdf:RDF>
</metadata>
	
	<linearGradient x1="655.94531" y1="138.34129" x2="683.30658" y2="138.34129" id="XMLID_4_" gradientUnits="userSpaceOnUse">
		<stop style="stop-color:#8d5c34;stop-opacity:1" offset="0.0048" id="stop18"/>
		<stop style="stop-color:#93633b;stop-opacity:1" offset="0.1429" id="stop20"/>
		<stop style="stop-color:#e8d0a9;stop-opacity:1" offset="0.29519999" id="stop22"/>
		<stop style="stop-color:#e3cba4;stop-opacity:1" offset="0.63810003" id="stop24"/>
		<stop style="stop-color:#93633a;stop-opacity:1" offset="0.93330002" id="stop26"/>
		<stop style="stop-color:#8d5c34;stop-opacity:1" offset="1" id="stop28"/>
	</linearGradient>
	
		
	
	<linearGradient x1="32.786098" y1="138.31641" x2="666.09772" y2="138.31641" id="XMLID_5_" gradientUnits="userSpaceOnUse">
		<stop style="stop-color:#8d5c34;stop-opacity:1" offset="0" id="stop35"/>
		<stop style="stop-color:#d1b38b;stop-opacity:1" offset="0.0333" id="stop37"/>
		<stop style="stop-color:#e3cba4;stop-opacity:1" offset="0.91430002" id="stop39"/>
		<stop style="stop-color:#8d5c34;stop-opacity:1" offset="1" id="stop41"/>
	</linearGradient>
	
		
	<linearGradient x1="8.7383003" y1="136.83299" x2="34.118198" y2="136.83299" id="XMLID_6_" gradientUnits="userSpaceOnUse">
		<stop style="stop-color:#8d5c34;stop-opacity:1" offset="0.1286" id="stop46"/>
		<stop style="stop-color:#e8d0a9;stop-opacity:1" offset="0.29049999" id="stop48"/>
		<stop style="stop-color:#e3cba4;stop-opacity:1" offset="0.5952" id="stop50"/>
		<stop style="stop-color:#8d5c34;stop-opacity:1" offset="1" id="stop52"/>
	</linearGradient>
	
		
	
	

		
			
		
	<filter id="filter3211"><feGaussianBlur id="feGaussianBlur3213" stdDeviation="2.3429775" inkscape:collect="always"/></filter></defs>




<g id="g3215"><path d="M 674.75983,10.954932 C 672.49183,10.595932 670.00783,10.595932 667.12683,10.954932 C 664.21083,11.278932 660.17983,12.142931 656.65183,13.149931 C 656.65183,14.374931 656.65183,15.633931 656.65183,16.893931 L 656.65183,16.893931 L 637.17483,16.749931 L 626.15883,16.102931 L 615.14283,16.426931 L 605.02583,16.641931 L 605.02583,16.641931 C 605.02583,16.641931 606.14283,26.145931 606.03383,29.205931 C 605.70983,40.905931 602.50683,27.441931 598.33083,39.393931 C 596.17083,45.585931 596.85383,48.178931 596.85383,48.178931 C 596.85383,48.178931 591.52583,45.837931 589.76183,41.409931 C 580.68983,18.585931 579.32283,52.209931 570.75383,43.173931 C 568.52183,40.833931 569.09783,39.285931 568.91783,35.073931 C 568.73783,30.861931 570.14283,30.969931 569.99783,26.325931 C 569.89083,21.681931 568.41383,16.533931 568.41383,16.533931 C 568.41383,16.533931 552.78883,17.253931 534.53683,17.109931 C 516.28483,16.929931 513.08183,16.785931 495.04483,16.425931 C 477.00983,16.064931 462.82583,16.208931 462.82583,16.208931 C 426.75383,16.136931 444.17783,16.101931 440.72183,16.208931 C 437.19283,16.280931 432.44083,16.748931 429.16483,17.000931 C 425.92483,17.216931 423.40483,17.720931 421.31683,17.647931 C 421.02783,18.151931 421.02783,19.303931 421.31683,21.176931 C 421.56883,23.047931 423.04383,26.575931 422.90083,28.772931 C 422.72083,30.932931 421.89283,32.624931 420.34383,34.028931 C 421.02783,32.048931 421.35183,30.428931 421.31683,29.059931 C 421.24483,27.656931 420.48883,27.727931 420.01983,25.856931 C 419.58783,23.912931 419.19183,21.248931 418.75983,17.647931 C 415.66383,17.612931 412.20683,17.395931 408.24783,17.072931 C 404.32383,16.712931 400.93883,15.452931 395.21683,15.596931 C 389.49183,15.776931 379.91583,17.575931 374.22883,17.936931 C 368.57683,18.295931 364.40083,18.188931 361.48483,17.647931 C 358.06483,16.819931 353.88883,16.352931 348.77583,16.208931 C 343.62883,16.063931 336.17583,16.496931 330.95683,16.784931 C 325.77283,17.072931 323.79283,17.612931 317.92483,17.936931 C 312.02083,18.295931 302.12083,18.872931 295.96483,18.835931 L 295.96483,18.835931 C 289.84483,18.764931 286.02883,17.539931 281.31283,17.647931 C 276.63283,17.756931 272.24083,18.332931 267.95683,19.412931 C 267.70483,20.204931 267.27283,21.140931 266.69683,22.328931 C 266.12083,23.516931 264.78883,24.272931 264.46483,26.432931 C 264.17683,28.592931 265.00483,33.631931 264.78883,35.180931 C 264.57283,36.692931 264.06883,36.799931 263.20483,35.467931 C 263.70883,32.875931 263.63683,30.571931 262.88083,28.483931 C 262.12483,26.360931 259.71283,24.524931 258.74083,22.903931 C 257.80483,21.284931 259.02883,19.807931 257.15683,18.836931 C 255.28483,17.828931 253.19683,17.288931 247.61683,17.072931 C 241.96483,16.891931 230.15683,17.468931 223.74883,17.647931 C 217.37683,17.864931 215.14483,17.828931 209.52883,18.223931 C 203.91283,18.619931 219.06883,19.879931 190.08883,19.988931 C 182.27683,20.096931 174.46483,20.240931 166.65283,20.384931 C 158.08483,20.168931 149.51683,19.916931 140.94883,19.664931 C 135.62083,19.772931 130.29283,19.880931 124.92883,20.024931 C 123.05683,21.356931 121.18483,22.723931 119.31283,24.092931 C 119.31283,24.092931 119.38483,23.479931 119.20483,24.739931 C 118.98883,26.035931 118.48483,29.239931 118.48483,29.239931 C 117.15283,30.823931 115.82083,32.407931 114.48883,34.027931 C 114.48883,34.027931 115.10083,32.443931 114.48883,30.355931 C 113.87683,28.230931 112.58083,28.302931 112.07683,25.566931 C 111.57283,22.795931 112.47283,19.302931 112.47283,19.302931 C 104.04883,19.195931 95.624833,19.050931 87.200833,18.906931 C 80.936833,18.798931 74.636833,18.690931 68.336833,18.546931 C 38.996833,18.654931 110.27683,19.698931 35.936833,18.834931 C 36.044833,17.106931 36.152833,15.343931 36.260833,13.578931 C 33.272833,11.274932 30.032833,10.194932 26.396833,10.339932 L 26.396833,10.339932 C 22.760833,10.519932 18.908833,11.851932 14.624833,14.443931 C 13.151833,98.469931 11.675833,182.49393 10.199833,266.55393 C 10.343833,266.76993 11.495833,267.05793 13.691833,267.45293 C 15.887833,267.84893 19.019833,268.31693 23.231833,268.89293 C 23.843833,269.64893 24.491833,270.44093 25.139833,271.23293 C 28.235833,271.34093 30.719833,271.16093 32.771833,270.65693 C 34.823833,270.15293 36.263833,269.39693 37.235833,268.31693 C 37.055833,266.01293 36.875833,263.67293 36.659833,261.33393 C 44.795833,261.44093 52.967833,261.54993 61.139833,261.69293 C 73.703833,262.05293 86.267833,262.41293 98.831833,262.80893 C 109.27183,262.59293 119.71183,262.34093 130.15183,262.08893 C 130.15183,260.61193 130.15183,259.13693 130.15183,257.65993 C 131.08783,254.09693 132.02383,250.53193 132.95983,246.96893 C 133.75183,249.05693 134.54383,251.14493 135.33583,253.23293 C 135.22783,255.93293 135.08383,258.63293 134.93983,261.33393 C 169.10383,261.15293 193.25983,261.26193 208.77583,261.69293 C 224.11183,262.12593 220.54783,263.88893 226.70383,263.92493 C 232.85983,263.96093 240.27583,262.23293 245.45983,261.90793 C 250.64383,261.54893 253.12783,262.01593 257.55583,261.90793 C 261.98383,261.72793 266.69983,261.47593 271.88383,261.00893 C 271.88383,258.81293 272.09983,256.97693 272.49583,255.46493 C 272.92783,253.95193 273.57583,252.80093 274.40383,251.97293 C 273.79183,253.91693 273.68383,255.75293 274.07983,257.51693 C 274.54783,259.28093 275.48383,260.90093 276.95983,262.48493 C 282.93583,263.09693 288.58783,263.49293 294.13183,263.63693 C 299.71183,263.78093 304.89583,263.70893 310.04383,263.34893 C 309.39583,261.69293 309.17983,260.14493 309.39583,258.66893 C 309.64783,257.19193 310.94383,256.54493 311.30383,254.60093 L 311.30383,254.60093 C 311.69983,252.62093 311.80783,250.13693 311.62783,247.00493 C 311.62783,247.61593 311.73583,248.48093 311.95183,249.63293 C 312.16783,250.74893 312.70783,252.29693 312.92383,253.69993 C 313.10383,255.13993 312.59983,256.65193 313.21183,258.09293 C 313.85983,259.53193 314.00383,261.15293 316.73983,262.19693 C 319.47583,263.20493 324.73183,264.03293 329.44783,264.21393 C 334.16383,264.42993 341.61583,264.42993 344.71183,263.34993 C 347.80783,262.26993 346.15183,257.87793 347.91583,257.80593 C 349.67983,257.76993 351.69483,262.19793 355.22483,263.06193 C 358.75183,263.88993 364.07983,262.80993 368.90483,262.77393 C 373.72983,262.73793 378.62383,262.73793 383.84383,262.77393 C 384.77983,261.54993 385.60783,260.18193 386.40083,258.66993 C 387.19183,257.15693 387.62383,253.66593 388.63083,253.70093 C 389.64083,253.77293 392.23283,257.76893 392.44683,258.95793 C 392.66383,260.14593 389.38783,259.74993 389.89183,260.72193 C 390.43083,261.69393 391.22383,264.32193 395.61483,264.82593 C 400.07983,265.29493 406.84683,264.93393 416.31583,263.63793 C 417.10683,259.53393 418.25883,257.51793 419.80783,257.51793 C 421.35483,257.51793 422.97583,262.48593 425.53083,263.63793 C 428.01483,264.75393 424.45083,264.78893 464.80783,265.00593 L 464.80783,265.00593 L 500.91483,264.28493 L 541.81083,263.92593 L 541.81083,263.92593 C 541.81083,263.92593 541.12483,260.14593 541.41483,257.66093 C 541.73883,255.17793 539.93783,252.29793 541.01883,251.75793 C 542.13583,251.21793 544.94283,256.65393 547.42683,255.42993 C 549.94683,254.24193 552.25083,248.80593 552.25083,248.80593 C 552.25083,248.80593 554.98683,246.42993 556.28183,247.68993 C 557.57883,248.98593 557.86583,251.00293 558.26183,254.34993 C 558.69383,257.66193 556.85783,258.38193 557.86583,260.97393 C 558.87383,263.52993 562.29383,264.64593 562.29383,264.64593 L 562.29383,264.64593 L 602.79383,266.12193 L 619.24683,265.76293 L 619.24683,265.76293 C 660.28583,266.01493 667.77383,265.11493 667.77383,265.11493 C 667.77383,265.11493 670.07883,267.95993 673.17383,268.31893 C 676.30683,268.64293 680.55483,268.28293 686.20483,267.16793 C 685.16183,184.00793 684.11683,100.84893 683.03683,17.650931 C 681.30983,16.787931 679.86883,16.103931 678.57383,15.599931 C 677.31383,15.130931 676.26883,14.843931 675.40583,14.734931 C 675.19183,13.473931 674.97683,12.213931 674.75983,10.954932 L 674.75983,10.954932 z M 681.77983,18.225931 C 678.53983,18.873931 675.44383,19.053931 672.24083,18.837931 C 669.00083,18.585931 664.93183,17.613931 662.66483,16.785931 C 660.43283,15.957931 659.20783,14.984931 658.84883,13.869931 C 659.02883,21.285931 659.53283,34.965931 660.46783,55.629931 C 661.36783,76.400931 662.77283,101.99793 664.28383,137.13393 C 665.76083,172.41293 667.45183,214.31793 669.35983,265.11293 C 671.41283,266.22893 673.67983,266.80493 676.34383,266.84193 C 679.04283,266.91293 681.95883,266.44593 685.27183,265.40193 C 684.11983,183.03393 682.96683,100.62993 681.77983,18.225931 L 681.77983,18.225931 z M 667.41583,263.52993 C 553.51183,262.95393 593.97683,264.28593 576.73183,263.52993 C 576.73183,263.52993 567.40783,263.74593 563.48383,262.44993 C 559.59483,261.15393 561.97183,261.80293 561.07183,258.38293 C 560.17183,254.96293 560.99983,252.29893 559.88283,248.80693 C 558.76783,245.31493 556.67983,244.37893 556.67983,244.37893 C 556.67983,244.37893 551.74783,245.85493 549.44383,248.08693 C 547.14083,250.28193 547.42783,253.23393 547.42783,253.23393 C 547.42783,253.23393 542.74783,247.79793 540.62283,248.44593 C 538.53483,249.09393 539.50783,252.40593 539.00383,255.82593 C 538.53483,259.21093 538.60783,262.09093 538.60783,262.09093 C 521.36383,261.33493 491.69983,262.09093 491.69983,262.09093 C 478.99283,262.30693 466.28383,262.55893 453.57683,262.81093 C 413.58083,262.63093 430.68083,263.89093 427.83683,262.77493 C 424.95583,261.62293 422.72583,257.08693 420.85283,256.04393 C 418.98183,255.03493 417.82983,255.46793 416.71183,256.61893 C 415.59683,257.80693 414.76883,259.93193 414.15683,263.06293 C 409.61983,263.45893 405.76783,263.63893 402.38583,263.63893 C 399.03583,263.63893 395.68883,263.60293 394.14183,263.06293 C 392.59283,262.52293 393.06183,261.15493 393.16883,260.43493 C 393.27583,259.71493 394.96983,259.67893 394.75283,258.67093 C 394.53583,257.66193 393.02383,255.43093 391.90883,254.31493 C 390.75683,253.16293 389.17283,251.57893 388.09283,251.97493 C 387.01283,252.37093 386.32883,254.99793 385.53583,256.61893 C 384.70783,258.23893 383.98883,259.89493 383.30583,261.58793 C 377.22183,261.40693 372.10883,261.29993 367.71583,261.29993 C 363.32483,261.29993 359.90483,262.12793 357.20383,261.58793 C 354.57683,261.04793 353.42483,259.17593 351.80583,258.09593 C 350.22183,257.01593 348.81783,255.28693 347.66483,255.17993 L 347.66483,255.17993 C 346.54883,255.07193 345.75683,256.43993 345.14483,257.51993 C 344.49683,258.59993 346.25983,260.72393 343.84783,261.58793 C 341.43583,262.48693 334.95583,262.91993 330.81583,262.77593 C 326.67583,262.59593 321.99583,261.65993 319.29583,260.72393 C 316.59583,259.78693 315.73183,259.35593 314.83183,257.23193 C 313.93183,255.07193 314.61583,250.24793 313.85983,247.87193 C 313.13983,245.53193 311.98783,243.98393 310.36783,243.19193 C 310.90783,246.25293 311.01583,248.84393 310.69183,251.07593 C 310.36783,253.34493 309.07183,254.81993 308.45983,256.61993 C 307.88383,258.45593 307.45183,260.18393 307.19983,261.91193 C 306.55183,261.94793 303.92383,261.94793 299.24383,261.91193 C 294.52783,261.84093 287.97583,261.76793 279.19183,261.58893 C 277.75183,260.07593 276.70783,258.34893 276.02383,256.33193 C 275.33983,254.31593 275.01583,252.11993 275.05183,249.63693 C 273.71983,250.71693 272.67583,252.04893 271.88383,253.70393 C 271.09183,255.39593 270.55183,257.30493 270.29983,259.57193 C 258.27583,259.49993 248.69983,259.67993 241.03183,260.14793 C 233.39983,260.57993 231.85183,262.12793 226.23583,262.09193 C 220.65583,262.01993 232.28383,260.54393 200.96383,260.03893 C 193.79983,259.75193 186.63583,259.46393 179.47183,259.13993 C 170.00383,259.13993 160.49983,259.13993 150.99583,259.13993 C 146.71183,259.03193 142.42783,258.88793 138.14383,258.74393 C 137.63983,256.18793 137.09983,253.59693 136.55983,251.00493 C 135.08383,248.69993 133.60783,246.35993 132.13183,244.02093 C 132.13183,244.02093 130.04383,248.52093 128.92783,252.12093 C 127.81183,255.72193 127.73983,259.14193 127.73983,259.14193 C 120.25183,259.60993 112.76383,260.11393 105.27583,260.61793 C 73.487833,260.11393 119.92783,259.17893 36.911833,259.28593 L 36.911833,259.28593 C 36.515833,179.72593 36.083833,100.16693 35.651833,20.569931 C 51.203833,21.002931 66.791833,21.434931 82.379833,21.866931 C 91.739833,21.649931 101.09983,21.397931 110.49583,21.145931 C 110.49583,21.145931 109.37983,24.530931 109.66783,27.049931 C 109.99183,29.533931 111.17983,28.309931 111.68383,31.081931 C 112.18783,33.853931 110.78383,35.041931 111.68383,38.102931 C 112.58383,41.125931 115.28383,43.249931 115.28383,43.249931 C 115.28383,43.249931 113.69983,38.641931 114.88783,35.869931 C 116.11183,33.098931 118.48783,34.753931 120.10783,32.197931 C 121.72783,29.605931 119.31583,28.056931 121.29583,25.572931 C 123.31183,23.089931 128.13583,22.261931 128.13583,22.261931 C 138.97183,22.261931 149.80783,22.261931 160.64383,22.261931 C 171.15583,22.368931 180.51583,22.224931 189.15583,21.756931 C 197.83183,21.252931 205.96783,19.920931 212.05183,19.416931 C 218.13583,18.912931 219.07183,18.912931 225.33583,18.840931 C 231.67183,18.732931 244.41583,18.444931 249.52783,18.840931 C 254.60383,19.236931 254.35183,20.316931 255.57583,21.181931 C 256.79983,22.008931 255.93583,22.117931 256.83583,23.808931 C 257.77183,25.464931 260.18383,28.632931 260.97583,31.117931 C 261.76783,33.564931 260.83183,36.949931 261.62383,38.388931 C 262.45183,39.828931 265.04383,40.548931 265.76383,39.576931 C 266.44783,38.567931 265.54783,35.004931 265.76383,32.555931 C 265.97983,30.108931 266.23183,26.940931 267.02383,24.959931 C 267.81583,23.016931 268.96783,21.684931 270.51583,20.855931 C 275.26783,19.991931 279.33583,19.523931 282.93583,19.415931 C 286.49983,19.307931 286.42783,20.171931 291.82783,20.279931 C 297.33583,20.386931 307.52383,20.423931 315.37183,19.991931 C 323.25583,19.558931 332.79583,17.939931 338.59183,17.650931 L 338.59183,17.650931 C 344.35183,17.363931 345.10783,17.795931 349.75183,18.226931 C 354.39683,18.695931 360.73183,20.062931 366.27483,20.279931 C 371.85483,20.495931 377.47183,19.955931 382.83583,19.415931 C 388.16383,18.875931 394.28283,17.184931 398.09983,17.075931 C 401.87883,16.967931 402.27583,18.335931 405.40883,18.839931 C 408.57683,19.307931 412.32083,19.703931 416.85583,19.991931 C 418.51183,23.123931 419.44783,26.111931 419.73683,29.062931 C 419.98883,31.978931 419.59183,34.787931 418.43983,37.523931 C 421.39283,34.642931 423.37183,32.338931 424.48883,30.502931 C 425.60383,28.702931 425.38883,28.523931 425.13683,26.722931 C 424.88483,24.886931 424.12683,22.582931 422.90483,19.702931 C 423.87583,19.198931 426.39683,18.838931 430.53583,18.550931 C 434.67683,18.226931 427.00883,17.650931 464.69983,17.650931 L 464.69983,17.650931 L 491.77183,17.543931 L 531.76783,18.335931 L 550.45183,18.012931 L 567.33683,17.760931 L 567.33683,17.760931 C 567.33683,17.760931 568.37983,22.835931 568.34483,27.911931 C 568.27283,32.951931 566.65383,33.562931 567.11983,38.027931 C 567.55383,42.455931 567.37183,43.642931 570.18083,45.659931 C 582.95983,54.730931 578.45983,21.035931 589.94483,43.535931 C 592.64583,48.827931 598.62083,52.642931 598.62083,52.642931 C 598.62083,52.642931 597.90183,48.214931 599.84583,41.519931 C 603.19383,30.179931 607.69383,40.511931 607.22683,29.314931 C 607.08183,26.327931 606.07483,18.119931 606.07483,18.119931 C 606.07483,18.119931 611.76283,17.831931 624.68583,17.327931 C 637.60983,16.859931 656.65483,18.551931 656.65483,18.551931 C 660.21483,100.19893 663.81683,181.84593 667.41583,263.52993 L 667.41583,263.52993 z M 673.49983,12.393931 C 673.89583,13.653931 674.32783,14.914931 674.75983,16.209931 C 676.23683,16.568931 677.71083,16.965931 679.22483,17.361931 C 675.80483,17.541931 672.67183,17.361931 669.68383,16.785931 C 666.69583,16.174931 663.99583,15.236931 661.40483,13.869931 C 664.06883,12.933931 666.37183,12.357931 668.38883,12.105931 C 670.43983,11.854932 672.09583,11.961932 673.49983,12.393931 L 673.49983,12.393931 z M 11.711833,265.97793 C 13.475833,265.14993 15.671833,264.68193 18.371833,264.53793 C 21.107833,264.35793 25.031833,264.60993 27.947833,265.11393 C 30.827833,265.58293 33.311833,266.37393 35.579833,267.45393 C 34.283833,268.35393 32.915833,268.96693 31.439833,269.18293 C 29.927833,269.43493 28.379833,269.32693 26.651833,268.89493 C 25.607833,268.21093 24.563833,267.52693 23.483833,266.84293 C 19.559833,266.55393 15.635833,266.26593 11.711833,265.97793 L 11.711833,265.97793 z M 35.579833,265.11393 C 35.147833,241.10193 34.823833,208.95393 34.607833,166.94193 C 34.391833,124.78693 34.283833,74.926931 34.283833,14.733931 C 33.527833,12.826931 31.655833,11.962932 28.559833,12.106931 C 25.463833,12.250931 21.287833,13.401931 15.851833,15.598931 C 14.483833,98.253931 13.115833,180.94593 11.711833,263.63793 C 15.887833,262.70093 19.523833,262.23393 22.835833,262.19793 C 26.147833,262.12693 29.279833,262.84593 31.439833,263.34993 C 33.563833,263.85393 34.931833,264.42993 35.579833,265.11393 L 35.579833,265.11393 z " style="fill:#4d4d4d;fill-rule:evenodd;stroke:#000000;stroke-width:0.036;stroke-miterlimit:10;filter:url(#filter3211)" id="path2218"/><g id="g11">
			<path d="M 672.578,8.643 C 670.31,8.284 667.826,8.284 664.945,8.643 C 662.029,8.967 657.998,9.831 654.47,10.838 C 654.47,12.063 654.47,13.322 654.47,14.582 L 654.47,14.582 L 634.993,14.438 L 623.977,13.791 L 612.961,14.115 L 602.844,14.33 L 602.844,14.33 C 602.844,14.33 603.961,23.834 603.852,26.894 C 603.528,38.594 600.325,25.13 596.149,37.082 C 593.989,43.274 594.672,45.867 594.672,45.867 C 594.672,45.867 589.344,43.526 587.58,39.098 C 578.508,16.274 577.141,49.898 568.572,40.862 C 566.34,38.522 566.916,36.974 566.736,32.762 C 566.556,28.55 567.961,28.658 567.816,24.014 C 567.709,19.37 566.232,14.222 566.232,14.222 C 566.232,14.222 550.607,14.942 532.355,14.798 C 514.103,14.618 510.9,14.474 492.863,14.114 C 474.828,13.753 460.644,13.897 460.644,13.897 C 424.572,13.825 441.996,13.79 438.54,13.897 C 435.011,13.969 430.259,14.437 426.983,14.689 C 423.743,14.905 421.223,15.409 419.135,15.336 C 418.846,15.84 418.846,16.992 419.135,18.865 C 419.387,20.736 420.862,24.264 420.719,26.461 C 420.539,28.621 419.711,30.313 418.162,31.717 C 418.846,29.737 419.17,28.117 419.135,26.748 C 419.063,25.345 418.307,25.416 417.838,23.545 C 417.406,21.601 417.01,18.937 416.578,15.336 C 413.482,15.301 410.025,15.084 406.066,14.761 C 402.142,14.401 398.757,13.141 393.035,13.285 C 387.31,13.465 377.734,15.264 372.047,15.625 C 366.395,15.984 362.219,15.877 359.303,15.336 C 355.883,14.508 351.707,14.041 346.594,13.897 C 341.447,13.752 333.994,14.185 328.775,14.473 C 323.591,14.761 321.611,15.301 315.743,15.625 C 309.839,15.984 299.939,16.561 293.783,16.524 L 293.783,16.524 C 287.663,16.453 283.847,15.228 279.131,15.336 C 274.451,15.445 270.059,16.021 265.775,17.101 C 265.523,17.893 265.091,18.829 264.515,20.017 C 263.939,21.205 262.607,21.961 262.283,24.121 C 261.995,26.281 262.823,31.32 262.607,32.869 C 262.391,34.381 261.887,34.488 261.023,33.156 C 261.527,30.564 261.455,28.26 260.699,26.172 C 259.943,24.049 257.531,22.213 256.559,20.592 C 255.623,18.973 256.847,17.496 254.975,16.525 C 253.103,15.517 251.015,14.977 245.435,14.761 C 239.783,14.58 227.975,15.157 221.567,15.336 C 215.195,15.553 212.963,15.517 207.347,15.912 C 201.731,16.308 216.887,17.568 187.907,17.677 C 180.095,17.785 172.283,17.929 164.471,18.073 C 155.903,17.857 147.335,17.605 138.767,17.353 C 133.439,17.461 128.111,17.569 122.747,17.713 C 120.875,19.045 119.003,20.412 117.131,21.781 C 117.131,21.781 117.203,21.168 117.023,22.428 C 116.807,23.724 116.303,26.928 116.303,26.928 C 114.971,28.512 113.639,30.096 112.307,31.716 C 112.307,31.716 112.919,30.132 112.307,28.044 C 111.695,25.919 110.399,25.991 109.895,23.255 C 109.391,20.484 110.291,16.991 110.291,16.991 C 101.867,16.884 93.443,16.739 85.019,16.595 C 78.755,16.487 72.455,16.379 66.155,16.235 C 36.815,16.343 108.095,17.387 33.755,16.523 C 33.863,14.795 33.971,13.032 34.079,11.267 C 31.091,8.963 27.851,7.883 24.215,8.028 L 24.215,8.028 C 20.579,8.208 16.727,9.54 12.443,12.132 C 10.97,96.158 9.494,180.182 8.018,264.242 C 8.162,264.458 9.314,264.746 11.51,265.141 C 13.706,265.537 16.838,266.005 21.05,266.581 C 21.662,267.337 22.31,268.129 22.958,268.921 C 26.054,269.029 28.538,268.849 30.59,268.345 C 32.642,267.841 34.082,267.085 35.054,266.005 C 34.874,263.701 34.694,261.361 34.478,259.022 C 42.614,259.129 50.786,259.238 58.958,259.381 C 71.522,259.741 84.086,260.101 96.65,260.497 C 107.09,260.281 117.53,260.029 127.97,259.777 C 127.97,258.3 127.97,256.825 127.97,255.348 C 128.906,251.785 129.842,248.22 130.778,244.657 C 131.57,246.745 132.362,248.833 133.154,250.921 C 133.046,253.621 132.902,256.321 132.758,259.022 C 166.922,258.841 191.078,258.95 206.594,259.381 C 221.93,259.814 218.366,261.577 224.522,261.613 C 230.678,261.649 238.094,259.921 243.278,259.596 C 248.462,259.237 250.946,259.704 255.374,259.596 C 259.802,259.416 264.518,259.164 269.702,258.697 C 269.702,256.501 269.918,254.665 270.314,253.153 C 270.746,251.64 271.394,250.489 272.222,249.661 C 271.61,251.605 271.502,253.441 271.898,255.205 C 272.366,256.969 273.302,258.589 274.778,260.173 C 280.754,260.785 286.406,261.181 291.95,261.325 C 297.53,261.469 302.714,261.397 307.862,261.037 C 307.214,259.381 306.998,257.833 307.214,256.357 C 307.466,254.88 308.762,254.233 309.122,252.289 L 309.122,252.289 C 309.518,250.309 309.626,247.825 309.446,244.693 C 309.446,245.304 309.554,246.169 309.77,247.321 C 309.986,248.437 310.526,249.985 310.742,251.388 C 310.922,252.828 310.418,254.34 311.03,255.781 C 311.678,257.22 311.822,258.841 314.558,259.885 C 317.294,260.893 322.55,261.721 327.266,261.902 C 331.982,262.118 339.434,262.118 342.53,261.038 C 345.626,259.958 343.97,255.566 345.734,255.494 C 347.498,255.458 349.513,259.886 353.043,260.75 C 356.57,261.578 361.898,260.498 366.723,260.462 C 371.548,260.426 376.442,260.426 381.662,260.462 C 382.598,259.238 383.426,257.87 384.219,256.358 C 385.01,254.845 385.442,251.354 386.449,251.389 C 387.459,251.461 390.051,255.457 390.265,256.646 C 390.482,257.834 387.206,257.438 387.71,258.41 C 388.249,259.382 389.042,262.01 393.433,262.514 C 397.898,262.983 404.665,262.622 414.134,261.326 C 414.925,257.222 416.077,255.206 417.626,255.206 C 419.173,255.206 420.794,260.174 423.349,261.326 C 425.833,262.442 422.269,262.477 462.626,262.694 L 462.626,262.694 L 498.733,261.973 L 539.629,261.614 L 539.629,261.614 C 539.629,261.614 538.943,257.834 539.233,255.349 C 539.557,252.866 537.756,249.986 538.837,249.446 C 539.954,248.906 542.761,254.342 545.245,253.118 C 547.765,251.93 550.069,246.494 550.069,246.494 C 550.069,246.494 552.805,244.118 554.1,245.378 C 555.397,246.674 555.684,248.691 556.08,252.038 C 556.512,255.35 554.676,256.07 555.684,258.662 C 556.692,261.218 560.112,262.334 560.112,262.334 L 560.112,262.334 L 600.612,263.81 L 617.065,263.451 L 617.065,263.451 C 658.104,263.703 665.592,262.803 665.592,262.803 C 665.592,262.803 667.897,265.648 670.992,266.007 C 674.125,266.331 678.373,265.971 684.023,264.856 C 682.98,181.696 681.935,98.537 680.855,15.339 C 679.128,14.476 677.687,13.792 676.392,13.288 C 675.132,12.819 674.087,12.532 673.224,12.423 C 673.01,11.162 672.795,9.902 672.578,8.643 L 672.578,8.643 z " style="fill-rule:evenodd" id="path13"/>
			<path d="M 672.578,8.643 C 670.31,8.284 667.826,8.284 664.945,8.643 C 662.029,8.967 657.998,9.831 654.47,10.838 C 654.47,12.063 654.47,13.322 654.47,14.582 L 654.47,14.582 L 634.993,14.438 L 623.977,13.791 L 612.961,14.115 L 602.844,14.33 L 602.844,14.33 C 602.844,14.33 603.961,23.834 603.852,26.894 C 603.528,38.594 600.325,25.13 596.149,37.082 C 593.989,43.274 594.672,45.867 594.672,45.867 C 594.672,45.867 589.344,43.526 587.58,39.098 C 578.508,16.274 577.141,49.898 568.572,40.862 C 566.34,38.522 566.916,36.974 566.736,32.762 C 566.556,28.55 567.961,28.658 567.816,24.014 C 567.709,19.37 566.232,14.222 566.232,14.222 C 566.232,14.222 550.607,14.942 532.355,14.798 C 514.103,14.618 510.9,14.474 492.863,14.114 C 474.828,13.753 460.644,13.897 460.644,13.897 C 424.572,13.825 441.996,13.79 438.54,13.897 C 435.011,13.969 430.259,14.437 426.983,14.689 C 423.743,14.905 421.223,15.409 419.135,15.336 C 418.846,15.84 418.846,16.992 419.135,18.865 C 419.387,20.736 420.862,24.264 420.719,26.461 C 420.539,28.621 419.711,30.313 418.162,31.717 C 418.846,29.737 419.17,28.117 419.135,26.748 C 419.063,25.345 418.307,25.416 417.838,23.545 C 417.406,21.601 417.01,18.937 416.578,15.336 C 413.482,15.301 410.025,15.084 406.066,14.761 C 402.142,14.401 398.757,13.141 393.035,13.285 C 387.31,13.465 377.734,15.264 372.047,15.625 C 366.395,15.984 362.219,15.877 359.303,15.336 C 355.883,14.508 351.707,14.041 346.594,13.897 C 341.447,13.752 333.994,14.185 328.775,14.473 C 323.591,14.761 321.611,15.301 315.743,15.625 C 309.839,15.984 299.939,16.561 293.783,16.524 L 293.783,16.524 C 287.663,16.453 283.847,15.228 279.131,15.336 C 274.451,15.445 270.059,16.021 265.775,17.101 C 265.523,17.893 265.091,18.829 264.515,20.017 C 263.939,21.205 262.607,21.961 262.283,24.121 C 261.995,26.281 262.823,31.32 262.607,32.869 C 262.391,34.381 261.887,34.488 261.023,33.156 C 261.527,30.564 261.455,28.26 260.699,26.172 C 259.943,24.049 257.531,22.213 256.559,20.592 C 255.623,18.973 256.847,17.496 254.975,16.525 C 253.103,15.517 251.015,14.977 245.435,14.761 C 239.783,14.58 227.975,15.157 221.567,15.336 C 215.195,15.553 212.963,15.517 207.347,15.912 C 201.731,16.308 216.887,17.568 187.907,17.677 C 180.095,17.785 172.283,17.929 164.471,18.073 C 155.903,17.857 147.335,17.605 138.767,17.353 C 133.439,17.461 128.111,17.569 122.747,17.713 C 120.875,19.045 119.003,20.412 117.131,21.781 C 117.131,21.781 117.203,21.168 117.023,22.428 C 116.807,23.724 116.303,26.928 116.303,26.928 C 114.971,28.512 113.639,30.096 112.307,31.716 C 112.307,31.716 112.919,30.132 112.307,28.044 C 111.695,25.919 110.399,25.991 109.895,23.255 C 109.391,20.484 110.291,16.991 110.291,16.991 C 101.867,16.884 93.443,16.739 85.019,16.595 C 78.755,16.487 72.455,16.379 66.155,16.235 C 36.815,16.343 108.095,17.387 33.755,16.523 C 33.863,14.795 33.971,13.032 34.079,11.267 C 31.091,8.963 27.851,7.883 24.215,8.028 L 24.215,8.028 C 20.579,8.208 16.727,9.54 12.443,12.132 C 10.97,96.158 9.494,180.182 8.018,264.242 C 8.162,264.458 9.314,264.746 11.51,265.141 C 13.706,265.537 16.838,266.005 21.05,266.581 C 21.662,267.337 22.31,268.129 22.958,268.921 C 26.054,269.029 28.538,268.849 30.59,268.345 C 32.642,267.841 34.082,267.085 35.054,266.005 C 34.874,263.701 34.694,261.361 34.478,259.022 C 42.614,259.129 50.786,259.238 58.958,259.381 C 71.522,259.741 84.086,260.101 96.65,260.497 C 107.09,260.281 117.53,260.029 127.97,259.777 C 127.97,258.3 127.97,256.825 127.97,255.348 C 128.906,251.785 129.842,248.22 130.778,244.657 C 131.57,246.745 132.362,248.833 133.154,250.921 C 133.046,253.621 132.902,256.321 132.758,259.022 C 166.922,258.841 191.078,258.95 206.594,259.381 C 221.93,259.814 218.366,261.577 224.522,261.613 C 230.678,261.649 238.094,259.921 243.278,259.596 C 248.462,259.237 250.946,259.704 255.374,259.596 C 259.802,259.416 264.518,259.164 269.702,258.697 C 269.702,256.501 269.918,254.665 270.314,253.153 C 270.746,251.64 271.394,250.489 272.222,249.661 C 271.61,251.605 271.502,253.441 271.898,255.205 C 272.366,256.969 273.302,258.589 274.778,260.173 C 280.754,260.785 286.406,261.181 291.95,261.325 C 297.53,261.469 302.714,261.397 307.862,261.037 C 307.214,259.381 306.998,257.833 307.214,256.357 C 307.466,254.88 308.762,254.233 309.122,252.289 L 309.122,252.289 C 309.518,250.309 309.626,247.825 309.446,244.693 C 309.446,245.304 309.554,246.169 309.77,247.321 C 309.986,248.437 310.526,249.985 310.742,251.388 C 310.922,252.828 310.418,254.34 311.03,255.781 C 311.678,257.22 311.822,258.841 314.558,259.885 C 317.294,260.893 322.55,261.721 327.266,261.902 C 331.982,262.118 339.434,262.118 342.53,261.038 C 345.626,259.958 343.97,255.566 345.734,255.494 C 347.498,255.458 349.513,259.886 353.043,260.75 C 356.57,261.578 361.898,260.498 366.723,260.462 C 371.548,260.426 376.442,260.426 381.662,260.462 C 382.598,259.238 383.426,257.87 384.219,256.358 C 385.01,254.845 385.442,251.354 386.449,251.389 C 387.459,251.461 390.051,255.457 390.265,256.646 C 390.482,257.834 387.206,257.438 387.71,258.41 C 388.249,259.382 389.042,262.01 393.433,262.514 C 397.898,262.983 404.665,262.622 414.134,261.326 C 414.925,257.222 416.077,255.206 417.626,255.206 C 419.173,255.206 420.794,260.174 423.349,261.326 C 425.833,262.442 422.269,262.477 462.626,262.694 L 462.626,262.694 L 498.733,261.973 L 539.629,261.614 L 539.629,261.614 C 539.629,261.614 538.943,257.834 539.233,255.349 C 539.557,252.866 537.756,249.986 538.837,249.446 C 539.954,248.906 542.761,254.342 545.245,253.118 C 547.765,251.93 550.069,246.494 550.069,246.494 C 550.069,246.494 552.805,244.118 554.1,245.378 C 555.397,246.674 555.684,248.691 556.08,252.038 C 556.512,255.35 554.676,256.07 555.684,258.662 C 556.692,261.218 560.112,262.334 560.112,262.334 L 560.112,262.334 L 600.612,263.81 L 617.065,263.451 L 617.065,263.451 C 658.104,263.703 665.592,262.803 665.592,262.803 C 665.592,262.803 667.897,265.648 670.992,266.007 C 674.125,266.331 678.373,265.971 684.023,264.856 C 682.98,181.696 681.935,98.537 680.855,15.339 C 679.128,14.476 677.687,13.792 676.392,13.288 C 675.132,12.819 674.087,12.532 673.224,12.423 C 673.01,11.162 672.795,9.902 672.578,8.643 L 672.578,8.643 z " style="fill:none;stroke:#000000;stroke-width:0.036;stroke-miterlimit:10" id="path15"/>
		</g><path d="M 680.57,15.662 C 680.642,48.026 680.857,83.99 681.361,125.787 C 681.757,167.582 682.406,212.834 683.306,264.061 L 683.306,264.061 C 679.921,265.286 676.861,265.969 673.982,265.826 C 671.101,265.681 668.509,264.854 666.207,263.342 L 666.207,263.342 L 655.945,10.838 L 655.945,10.838 C 657.277,11.918 659.33,12.926 661.959,13.863 C 664.514,14.726 668.438,16.022 671.643,16.346 C 674.701,16.599 677.727,16.418 680.57,15.662 L 680.57,15.662 z " style="fill:url(#XMLID_4_);fill-rule:evenodd;stroke:#000000;stroke-width:0.036;stroke-miterlimit:10" id="path30"/><path d="M 671.967,9.471 L 673.155,13.035 L 678.231,14.942 L 678.231,14.942 C 674.415,15.951 670.922,16.13 667.467,15.482 C 664.01,14.762 660.735,13.214 657.639,10.837 L 657.639,10.837 C 660.375,9.542 663.002,8.858 665.379,8.642 C 667.826,8.354 669.842,8.679 671.967,9.471 L 671.967,9.471 z " style="fill:#412318;fill-rule:evenodd;stroke:#000000;stroke-width:0.036;stroke-miterlimit:10" id="path32"/><path d="M 523.43,15.123 L 565.731,15.015 L 566.702,20.631 L 566.956,27.147 L 565.479,34.563 L 567.567,41.547 L 572.139,43.922 L 575.27,41.871 L 579.051,34.022 L 581.533,31.826 L 583.658,32.942 L 585.097,34.994 L 586.898,38.631 L 588.949,42.267 L 593.594,46.515 L 595.215,48.027 L 596.113,40.467 L 599.353,33.231 L 602.99,32.475 L 603.998,31.179 L 604.322,23.834 L 603.853,19.479 L 603.601,15.015 L 613.214,14.691 L 628.153,14.439 L 643.344,15.124 L 654.756,15.483 L 666.096,262.802 L 638.34,262.334 L 615.481,262.334 L 597.012,263.09 L 568.535,262.334 L 557.305,260.138 L 556.909,253.514 L 556.081,246.134 L 554.893,243.939 L 549.672,245.378 L 545.244,252.038 L 539.629,247.25 L 537.649,249.446 L 538.045,260.137 L 538.045,260.137 C 496.897,261.11 468.779,261.721 451.897,261.973 C 435.301,262.154 442.538,261.469 438.469,261.433 C 434.184,261.326 429.612,261.65 426.84,261.146 C 424.031,260.461 423.168,258.986 421.764,257.833 C 420.289,256.609 419.28,254.449 418.164,254.27 C 416.904,254.053 415.537,255.242 414.6,256.465 C 413.629,257.617 412.981,259.129 412.512,261.146 L 412.512,261.146 C 408.301,261.505 404.844,261.83 401.748,261.973 C 398.652,262.045 396.168,262.225 394.297,261.973 C 392.389,261.721 390.912,261.074 390.408,260.318 C 389.797,259.309 390.588,257.797 390.695,256.754 C 390.66,255.602 391.308,255.062 390.695,254.018 C 389.976,252.867 387.709,250.706 386.808,250.455 C 385.872,250.203 385.8,251.391 385.331,252.363 C 384.792,253.191 384.468,254.342 383.819,255.675 C 383.135,256.935 382.2,258.339 381.155,260.031 L 381.155,260.031 C 377.952,260.211 374.243,260.211 370.03,260.319 C 365.602,260.283 359.014,260.93 355.704,260.319 C 352.354,259.491 352.284,257.51 350.628,256.466 C 348.862,255.386 346.667,254.378 345.552,254.558 C 344.291,254.666 344.435,256.647 343.751,257.582 C 343.103,258.374 343.427,259.418 341.663,260.03 C 339.791,260.677 336.911,261.326 333.023,261.433 C 329.027,261.362 321.683,260.534 318.371,259.778 C 315.023,258.914 314.483,258.553 313.295,256.754 C 312.107,254.846 311.783,250.994 311.207,248.798 C 310.559,246.494 309.731,244.946 309.119,243.614 L 309.119,243.614 C 309.263,246.206 309.119,248.438 308.831,250.454 C 308.435,252.362 307.607,253.73 307.031,255.386 C 306.347,257.078 305.879,258.59 305.231,260.319 L 305.231,260.319 C 299.363,260.607 294.035,260.751 289.103,260.607 C 284.135,260.426 279.707,260.102 275.675,259.491 L 275.675,259.491 C 274.487,257.547 273.551,255.819 273.011,254.018 C 272.363,252.218 272.111,250.527 272.111,248.798 L 272.111,248.798 C 270.419,250.346 269.375,251.859 268.835,253.478 C 268.259,255.098 268.259,256.647 268.835,258.411 L 268.835,258.411 C 262.463,258.051 256.379,257.943 250.295,258.123 C 244.247,258.303 237.191,259.023 232.691,259.491 C 228.263,259.959 227.003,260.894 223.727,260.859 C 220.487,260.823 216.671,259.671 213.287,259.239 C 209.939,258.771 209.435,258.231 203.747,258.123 C 198.059,258.051 207.707,258.663 179.303,258.663 L 179.303,258.663 L 159.251,258.303 L 135.167,257.547 L 133.583,249.807 L 129.947,242.463 L 127.967,249.807 L 126.347,258.303 L 105.467,259.383 L 102.263,259.383 L 102.263,259.383 C 73.535,259.383 102.875,258.484 33.683,258.123 L 33.683,258.123 L 32.783,17.427 L 56.147,18.472 L 95.063,18.076 L 109.103,18.076 L 108.707,23.26 L 111.083,28.769 L 110.687,33.557 L 115.907,30.244 L 117.923,25.096 L 119.111,22.145 L 124.727,18.473 L 124.727,18.473 C 150.071,18.832 168.467,18.941 180.743,18.797 C 192.839,18.58 191.291,17.933 197.483,17.428 C 203.675,16.853 210.983,16.025 217.751,15.773 C 224.411,15.45 232.007,15.45 237.479,15.485 C 242.771,15.413 247.091,14.909 250.007,15.485 C 252.815,15.989 253.571,16.997 254.795,18.508 C 255.947,19.84 256.235,22.037 257.171,23.981 C 257.999,25.889 259.223,28.265 259.871,30.281 C 260.375,32.298 260.303,34.962 260.771,35.79 C 261.275,36.437 262.427,35.79 262.859,34.421 C 263.039,32.874 262.571,29.382 262.859,27.294 C 263.111,25.206 263.759,23.693 264.659,22.073 C 265.487,20.273 265.703,18.401 268.223,17.428 C 270.563,16.492 274.343,16.168 279.563,16.313 C 284.747,16.277 291.227,17.573 299.579,17.428 C 308.003,17.176 320.171,15.197 329.279,14.945 C 338.135,14.622 345.155,15.126 352.858,15.485 C 360.598,15.737 368.159,16.853 374.963,16.601 C 381.514,16.205 387.85,13.756 392.567,13.577 C 397.174,13.29 399.083,15.089 403.006,15.485 C 406.93,15.844 411.07,16.025 415.858,16.025 L 415.858,16.025 C 416.544,19.374 417.19,21.893 417.659,23.981 C 418.091,25.924 418.522,26.609 418.559,28.122 C 418.452,29.634 418.09,31.038 417.334,32.766 L 417.334,32.766 C 419.891,31.434 421.438,30.102 422.123,28.374 C 422.734,26.609 421.51,24.737 421.223,22.613 C 420.862,20.489 420.467,18.257 420.035,15.773 L 420.035,15.773 C 424.57,15.161 429.105,14.836 434.074,14.657 C 438.97,14.405 434.326,14.585 449.303,14.657 C 464.426,14.727 488.617,14.834 523.43,15.123 L 523.43,15.123 z " style="fill:url(#XMLID_5_);fill-rule:evenodd;stroke:#000000;stroke-width:0.036;stroke-miterlimit:10" id="path43"/><path d="M 33.218,12.207 C 33.29,81.867 33.398,136.551 33.542,179.174 C 33.758,221.582 33.902,249.59 34.118,264.998 L 34.118,264.998 C 31.454,263.234 28.862,262.046 26.054,261.434 C 23.354,260.714 20.618,260.894 17.702,261.147 C 14.858,261.291 11.87,261.974 8.738,262.802 L 8.738,262.802 L 13.238,13.035 L 13.238,13.035 C 16.514,11.342 19.25,10.154 21.59,9.471 C 23.93,8.715 25.406,8.426 27.278,8.895 C 29.222,9.398 31.202,10.371 33.218,12.207 L 33.218,12.207 z " style="fill:url(#XMLID_6_);fill-rule:evenodd;stroke:#000000;stroke-width:0.036;stroke-miterlimit:10" id="path54"/><path d="M 34.73,264.71 C 31.994,263.054 28.862,262.01 25.478,261.434 C 22.094,260.823 17.306,260.678 14.426,261.147 C 11.69,261.47 9.746,262.335 8.738,263.594 L 8.738,263.594 C 10.25,264.134 12.05,264.602 14.138,264.998 C 16.334,265.286 18.818,265.682 21.59,265.79 L 21.59,265.79 L 25.154,267.986 L 25.154,267.986 C 27.35,268.309 29.294,268.274 30.842,267.734 C 32.534,267.194 33.686,266.187 34.73,264.71 L 34.73,264.71 z " style="fill:#412318;fill-rule:evenodd;stroke:#000000;stroke-width:0.036;stroke-miterlimit:10" id="path56"/><path d="M 672.578,8.643 C 670.31,8.284 667.826,8.284 664.945,8.643 C 662.029,8.967 657.998,9.831 654.47,10.838 C 654.47,12.063 654.47,13.322 654.47,14.582 L 654.47,14.582 L 634.993,14.438 L 623.977,13.791 L 612.961,14.115 L 602.844,14.33 L 602.844,14.33 C 602.844,14.33 603.961,23.834 603.852,26.894 C 603.528,38.594 600.325,25.13 596.149,37.082 C 593.989,43.274 594.672,45.867 594.672,45.867 C 594.672,45.867 589.344,43.526 587.58,39.098 C 578.508,16.274 577.141,49.898 568.572,40.862 C 566.34,38.522 566.916,36.974 566.736,32.762 C 566.556,28.55 567.961,28.658 567.816,24.014 C 567.709,19.37 566.232,14.222 566.232,14.222 C 566.232,14.222 550.607,14.942 532.355,14.798 C 514.103,14.618 510.9,14.474 492.863,14.114 C 474.828,13.753 460.644,13.897 460.644,13.897 C 424.572,13.825 441.996,13.79 438.54,13.897 C 435.011,13.969 430.259,14.437 426.983,14.689 C 423.743,14.905 421.223,15.409 419.135,15.336 C 418.846,15.84 418.846,16.992 419.135,18.865 C 419.387,20.736 420.862,24.264 420.719,26.461 C 420.539,28.621 419.711,30.313 418.162,31.717 C 418.846,29.737 419.17,28.117 419.135,26.748 C 419.063,25.345 418.307,25.416 417.838,23.545 C 417.406,21.601 417.01,18.937 416.578,15.336 C 413.482,15.301 410.025,15.084 406.066,14.761 C 402.142,14.401 398.757,13.141 393.035,13.285 C 387.31,13.465 377.734,15.264 372.047,15.625 C 366.395,15.984 362.219,15.877 359.303,15.336 C 355.883,14.508 351.707,14.041 346.594,13.897 C 341.447,13.752 333.994,14.185 328.775,14.473 C 323.591,14.761 321.611,15.301 315.743,15.625 C 309.839,15.984 299.939,16.561 293.783,16.524 L 293.783,16.524 C 287.663,16.453 283.847,15.228 279.131,15.336 C 274.451,15.445 270.059,16.021 265.775,17.101 C 265.523,17.893 265.091,18.829 264.515,20.017 C 263.939,21.205 262.607,21.961 262.283,24.121 C 261.995,26.281 262.823,31.32 262.607,32.869 C 262.391,34.381 261.887,34.488 261.023,33.156 C 261.527,30.564 261.455,28.26 260.699,26.172 C 259.943,24.049 257.531,22.213 256.559,20.592 C 255.623,18.973 256.847,17.496 254.975,16.525 C 253.103,15.517 251.015,14.977 245.435,14.761 C 239.783,14.58 227.975,15.157 221.567,15.336 C 215.195,15.553 212.963,15.517 207.347,15.912 C 201.731,16.308 216.887,17.568 187.907,17.677 C 180.095,17.785 172.283,17.929 164.471,18.073 C 155.903,17.857 147.335,17.605 138.767,17.353 C 133.439,17.461 128.111,17.569 122.747,17.713 C 120.875,19.045 119.003,20.412 117.131,21.781 C 117.131,21.781 117.203,21.168 117.023,22.428 C 116.807,23.724 116.303,26.928 116.303,26.928 C 114.971,28.512 113.639,30.096 112.307,31.716 C 112.307,31.716 112.919,30.132 112.307,28.044 C 111.695,25.919 110.399,25.991 109.895,23.255 C 109.391,20.484 110.291,16.991 110.291,16.991 C 101.867,16.884 93.443,16.739 85.019,16.595 C 78.755,16.487 72.455,16.379 66.155,16.235 C 36.815,16.343 108.095,17.387 33.755,16.523 C 33.863,14.795 33.971,13.032 34.079,11.267 C 31.091,8.963 27.851,7.883 24.215,8.028 L 24.215,8.028 C 20.579,8.208 16.727,9.54 12.443,12.132 C 10.97,96.158 9.494,180.182 8.018,264.242 C 8.162,264.458 9.314,264.746 11.51,265.141 C 13.706,265.537 16.838,266.005 21.05,266.581 C 21.662,267.337 22.31,268.129 22.958,268.921 C 26.054,269.029 28.538,268.849 30.59,268.345 C 32.642,267.841 34.082,267.085 35.054,266.005 C 34.874,263.701 34.694,261.361 34.478,259.022 C 42.614,259.129 50.786,259.238 58.958,259.381 C 71.522,259.741 84.086,260.101 96.65,260.497 C 107.09,260.281 117.53,260.029 127.97,259.777 C 127.97,258.3 127.97,256.825 127.97,255.348 C 128.906,251.785 129.842,248.22 130.778,244.657 C 131.57,246.745 132.362,248.833 133.154,250.921 C 133.046,253.621 132.902,256.321 132.758,259.022 C 166.922,258.841 191.078,258.95 206.594,259.381 C 221.93,259.814 218.366,261.577 224.522,261.613 C 230.678,261.649 238.094,259.921 243.278,259.596 C 248.462,259.237 250.946,259.704 255.374,259.596 C 259.802,259.416 264.518,259.164 269.702,258.697 C 269.702,256.501 269.918,254.665 270.314,253.153 C 270.746,251.64 271.394,250.489 272.222,249.661 C 271.61,251.605 271.502,253.441 271.898,255.205 C 272.366,256.969 273.302,258.589 274.778,260.173 C 280.754,260.785 286.406,261.181 291.95,261.325 C 297.53,261.469 302.714,261.397 307.862,261.037 C 307.214,259.381 306.998,257.833 307.214,256.357 C 307.466,254.88 308.762,254.233 309.122,252.289 L 309.122,252.289 C 309.518,250.309 309.626,247.825 309.446,244.693 C 309.446,245.304 309.554,246.169 309.77,247.321 C 309.986,248.437 310.526,249.985 310.742,251.388 C 310.922,252.828 310.418,254.34 311.03,255.781 C 311.678,257.22 311.822,258.841 314.558,259.885 C 317.294,260.893 322.55,261.721 327.266,261.902 C 331.982,262.118 339.434,262.118 342.53,261.038 C 345.626,259.958 343.97,255.566 345.734,255.494 C 347.498,255.458 349.513,259.886 353.043,260.75 C 356.57,261.578 361.898,260.498 366.723,260.462 C 371.548,260.426 376.442,260.426 381.662,260.462 C 382.598,259.238 383.426,257.87 384.219,256.358 C 385.01,254.845 385.442,251.354 386.449,251.389 C 387.459,251.461 390.051,255.457 390.265,256.646 C 390.482,257.834 387.206,257.438 387.71,258.41 C 388.249,259.382 389.042,262.01 393.433,262.514 C 397.898,262.983 404.665,262.622 414.134,261.326 C 414.925,257.222 416.077,255.206 417.626,255.206 C 419.173,255.206 420.794,260.174 423.349,261.326 C 425.833,262.442 422.269,262.477 462.626,262.694 L 462.626,262.694 L 498.733,261.973 L 539.629,261.614 L 539.629,261.614 C 539.629,261.614 538.943,257.834 539.233,255.349 C 539.557,252.866 537.756,249.986 538.837,249.446 C 539.954,248.906 542.761,254.342 545.245,253.118 C 547.765,251.93 550.069,246.494 550.069,246.494 C 550.069,246.494 552.805,244.118 554.1,245.378 C 555.397,246.674 555.684,248.691 556.08,252.038 C 556.512,255.35 554.676,256.07 555.684,258.662 C 556.692,261.218 560.112,262.334 560.112,262.334 L 560.112,262.334 L 600.612,263.81 L 617.065,263.451 L 617.065,263.451 C 658.104,263.703 665.592,262.803 665.592,262.803 C 665.592,262.803 667.897,265.648 670.992,266.007 C 674.125,266.331 678.373,265.971 684.023,264.856 C 682.98,181.696 681.935,98.537 680.855,15.339 C 679.128,14.476 677.687,13.792 676.392,13.288 C 675.132,12.819 674.087,12.532 673.224,12.423 C 673.01,11.162 672.795,9.902 672.578,8.643 L 672.578,8.643 z M 679.598,15.914 C 676.358,16.562 673.262,16.742 670.059,16.526 C 666.819,16.274 662.75,15.302 660.483,14.474 C 658.251,13.646 657.026,12.673 656.667,11.558 C 656.847,18.974 657.351,32.654 658.286,53.318 C 659.186,74.089 660.591,99.686 662.102,134.822 C 663.579,170.101 665.27,212.006 667.178,262.801 C 669.231,263.917 671.498,264.493 674.162,264.53 C 676.861,264.601 679.777,264.134 683.09,263.09 C 681.938,180.722 680.785,98.318 679.598,15.914 L 679.598,15.914 z M 665.234,261.218 C 551.33,260.642 591.795,261.974 574.55,261.218 C 574.55,261.218 565.226,261.434 561.302,260.138 C 557.413,258.842 559.79,259.491 558.89,256.071 C 557.99,252.651 558.818,249.987 557.701,246.495 C 556.586,243.003 554.498,242.067 554.498,242.067 C 554.498,242.067 549.566,243.543 547.262,245.775 C 544.959,247.97 545.246,250.922 545.246,250.922 C 545.246,250.922 540.566,245.486 538.441,246.134 C 536.353,246.782 537.326,250.094 536.822,253.514 C 536.353,256.899 536.426,259.779 536.426,259.779 C 519.182,259.023 489.518,259.779 489.518,259.779 C 476.811,259.995 464.102,260.247 451.395,260.499 C 411.399,260.319 428.499,261.579 425.655,260.463 C 422.774,259.311 420.544,254.775 418.671,253.732 C 416.8,252.723 415.648,253.156 414.53,254.307 C 413.415,255.495 412.587,257.62 411.975,260.751 C 407.438,261.147 403.586,261.327 400.204,261.327 C 396.854,261.327 393.507,261.291 391.96,260.751 C 390.411,260.211 390.88,258.843 390.987,258.123 C 391.094,257.403 392.788,257.367 392.571,256.359 C 392.354,255.35 390.842,253.119 389.727,252.003 C 388.575,250.851 386.991,249.267 385.911,249.663 C 384.831,250.059 384.147,252.686 383.354,254.307 C 382.526,255.927 381.807,257.583 381.124,259.276 C 375.04,259.095 369.927,258.988 365.534,258.988 C 361.143,258.988 357.723,259.816 355.022,259.276 C 352.395,258.736 351.243,256.864 349.624,255.784 C 348.04,254.704 346.636,252.975 345.483,252.868 L 345.483,252.868 C 344.367,252.76 343.575,254.128 342.963,255.208 C 342.315,256.288 344.078,258.412 341.666,259.276 C 339.254,260.175 332.774,260.608 328.634,260.464 C 324.494,260.284 319.814,259.348 317.114,258.412 C 314.414,257.475 313.55,257.044 312.65,254.92 C 311.75,252.76 312.434,247.936 311.678,245.56 C 310.958,243.22 309.806,241.672 308.186,240.88 C 308.726,243.941 308.834,246.532 308.51,248.764 C 308.186,251.033 306.89,252.508 306.278,254.308 C 305.702,256.144 305.27,257.872 305.018,259.6 C 304.37,259.636 301.742,259.636 297.062,259.6 C 292.346,259.529 285.794,259.456 277.01,259.277 C 275.57,257.764 274.526,256.037 273.842,254.02 C 273.158,252.004 272.834,249.808 272.87,247.325 C 271.538,248.405 270.494,249.737 269.702,251.392 C 268.91,253.084 268.37,254.993 268.118,257.26 C 256.094,257.188 246.518,257.368 238.85,257.836 C 231.218,258.268 229.67,259.816 224.054,259.78 C 218.474,259.708 230.102,258.232 198.782,257.727 C 191.618,257.44 184.454,257.152 177.29,256.828 C 167.822,256.828 158.318,256.828 148.814,256.828 C 144.53,256.72 140.246,256.576 135.962,256.432 C 135.458,253.876 134.918,251.285 134.378,248.693 C 132.902,246.388 131.426,244.048 129.95,241.709 C 129.95,241.709 127.862,246.209 126.746,249.809 C 125.63,253.41 125.558,256.83 125.558,256.83 C 118.07,257.298 110.582,257.802 103.094,258.306 C 71.306,257.802 117.746,256.867 34.73,256.974 L 34.73,256.974 C 34.334,177.414 33.902,97.855 33.47,18.258 C 49.022,18.691 64.61,19.123 80.198,19.555 C 89.558,19.338 98.918,19.086 108.314,18.834 C 108.314,18.834 107.198,22.219 107.486,24.738 C 107.81,27.222 108.998,25.998 109.502,28.77 C 110.006,31.542 108.602,32.73 109.502,35.791 C 110.402,38.814 113.102,40.938 113.102,40.938 C 113.102,40.938 111.518,36.33 112.706,33.558 C 113.93,30.787 116.306,32.442 117.926,29.886 C 119.546,27.294 117.134,25.745 119.114,23.261 C 121.13,20.778 125.954,19.95 125.954,19.95 C 136.79,19.95 147.626,19.95 158.462,19.95 C 168.974,20.057 178.334,19.913 186.974,19.445 C 195.65,18.941 203.786,17.609 209.87,17.105 C 215.954,16.601 216.89,16.601 223.154,16.529 C 229.49,16.421 242.234,16.133 247.346,16.529 C 252.422,16.925 252.17,18.005 253.394,18.87 C 254.618,19.697 253.754,19.806 254.654,21.497 C 255.59,23.153 258.002,26.321 258.794,28.806 C 259.586,31.253 258.65,34.638 259.442,36.077 C 260.27,37.517 262.862,38.237 263.582,37.265 C 264.266,36.256 263.366,32.693 263.582,30.244 C 263.798,27.797 264.05,24.629 264.842,22.648 C 265.634,20.705 266.786,19.373 268.334,18.544 C 273.086,17.68 277.154,17.212 280.754,17.104 C 284.318,16.996 284.246,17.86 289.646,17.968 C 295.154,18.075 305.342,18.112 313.19,17.68 C 321.074,17.247 330.614,15.628 336.41,15.339 L 336.41,15.339 C 342.17,15.052 342.926,15.484 347.57,15.915 C 352.215,16.384 358.55,17.751 364.093,17.968 C 369.673,18.184 375.29,17.644 380.654,17.104 C 385.982,16.564 392.101,14.873 395.918,14.764 C 399.697,14.656 400.094,16.024 403.227,16.528 C 406.395,16.996 410.139,17.392 414.674,17.68 C 416.33,20.812 417.266,23.8 417.555,26.751 C 417.807,29.667 417.41,32.476 416.258,35.212 C 419.211,32.331 421.19,30.027 422.307,28.191 C 423.422,26.391 423.207,26.212 422.955,24.411 C 422.703,22.575 421.945,20.271 420.723,17.391 C 421.694,16.887 424.215,16.527 428.354,16.239 C 432.495,15.915 424.827,15.339 462.518,15.339 L 462.518,15.339 L 489.59,15.232 L 529.586,16.024 L 548.27,15.701 L 565.155,15.449 L 565.155,15.449 C 565.155,15.449 566.198,20.524 566.163,25.6 C 566.091,30.64 564.472,31.251 564.938,35.716 C 565.372,40.144 565.19,41.331 567.999,43.348 C 580.778,52.419 576.278,18.724 587.763,41.224 C 590.464,46.516 596.439,50.331 596.439,50.331 C 596.439,50.331 595.72,45.903 597.664,39.208 C 601.012,27.868 605.512,38.2 605.045,27.003 C 604.9,24.016 603.893,15.808 603.893,15.808 C 603.893,15.808 609.581,15.52 622.504,15.016 C 635.428,14.548 654.473,16.24 654.473,16.24 C 658.033,97.887 661.635,179.534 665.234,261.218 L 665.234,261.218 z M 671.318,10.082 C 671.714,11.342 672.146,12.603 672.578,13.898 C 674.055,14.257 675.529,14.654 677.043,15.05 C 673.623,15.23 670.49,15.05 667.502,14.474 C 664.514,13.863 661.814,12.925 659.223,11.558 C 661.887,10.622 664.19,10.046 666.207,9.794 C 668.258,9.543 669.914,9.65 671.318,10.082 L 671.318,10.082 z M 9.53,263.666 C 11.294,262.838 13.49,262.37 16.19,262.226 C 18.926,262.046 22.85,262.298 25.766,262.802 C 28.646,263.271 31.13,264.062 33.398,265.142 C 32.102,266.042 30.734,266.655 29.258,266.871 C 27.746,267.123 26.198,267.015 24.47,266.583 C 23.426,265.899 22.382,265.215 21.302,264.531 C 17.378,264.242 13.454,263.954 9.53,263.666 L 9.53,263.666 z M 33.398,262.802 C 32.966,238.79 32.642,206.642 32.426,164.63 C 32.21,122.475 32.102,72.615 32.102,12.422 C 31.346,10.515 29.474,9.651 26.378,9.795 C 23.282,9.939 19.106,11.09 13.67,13.287 C 12.302,95.942 10.934,178.634 9.53,261.326 C 13.706,260.389 17.342,259.922 20.654,259.886 C 23.966,259.815 27.098,260.534 29.258,261.038 C 31.382,261.542 32.75,262.118 33.398,262.802 L 33.398,262.802 z " style="fill-rule:evenodd;stroke:#000000;stroke-width:0.036;stroke-miterlimit:10" id="path58"/></g>
<metadata><rdf:RDF><cc:Work><dc:format>image/svg+xml</dc:format><dc:type rdf:resource="http://purl.org/dc/dcmitype/StillImage"/><cc:license rdf:resource="http://creativecommons.org/licenses/publicdomain/"/><dc:publisher><cc:Agent rdf:about="http://openclipart.org/"><dc:title>Open Clip Art Library</dc:title></cc:Agent></dc:publisher><dc:title>Parchment Background or Border</dc:title><dc:date>2007-02-09T14:14:32</dc:date><dc:description/><dc:source>http://openclipart.org/detail/3161/parchment-background-or-border-by-gerald_g-3161</dc:source><dc:creator><cc:Agent><dc:title>Gerald_G</dc:title></cc:Agent></dc:creator><dc:subject><rdf:Bag><rdf:li>background</rdf:li><rdf:li>border</rdf:li><rdf:li>clip art</rdf:li><rdf:li>clipart</rdf:li><rdf:li>paper</rdf:li><rdf:li>parchment</rdf:li><rdf:li>scroll</rdf:li></rdf:Bag></dc:subject></cc:Work><cc:License rdf:about="http://creativecommons.org/licenses/publicdomain/"><cc:permits rdf:resource="http://creativecommons.org/ns#Reproduction"/><cc:permits rdf:resource="http://creativecommons.org/ns#Distribution"/><cc:permits rdf:resource="http://creativecommons.org/ns#DerivativeWorks"/></cc:License></rdf:RDF></metadata></svg>
