<?xml version="1.0" encoding="utf-8"?>
<!-- Generator: Adobe Illustrator 21.0.0, SVG Export Plug-In . SVG Version: 6.00 Build 0)  -->
<svg version="1.1" id="Layer_1" xmlns="http://www.w3.org/2000/svg" xmlns:xlink="http://www.w3.org/1999/xlink" x="0px" y="0px"
	 width="1400px" height="980px" viewBox="0 0 1400 980" enable-background="new 0 0 1400 980" xml:space="preserve">
<g>
	<defs>
		<rect id="SVGID_1_" width="1400" height="980"/>
	</defs>
	<clipPath id="SVGID_2_">
		<use xlink:href="#SVGID_1_"  overflow="visible"/>
	</clipPath>
	<g clip-path="url(#SVGID_2_)">
		<g>
			<g>
				<polygon fill="#414042" points="688.9144897,1085.961792 -978.7903442,1085.961792 -13.3569984,793.8134766 
					689.4616089,793.8134766 				"/>
			</g>
			<polygon fill="#C49A6C" points="668.1297607,1085.961792 646.06604,1085.961792 671.4040527,793.8134766 
				680.7023315,793.8134766 			"/>
			<polygon fill="#C49A6C" points="645.0726318,1085.961792 628.7834473,1085.961792 664.1206665,793.8134766 
				670.9854126,793.8134766 			"/>
			<polygon fill="#C49A6C" points="627.7188721,1085.961792 605.6552124,1085.961792 654.3737793,793.8134766 
				663.6720581,793.8134766 			"/>
			<polygon fill="#C49A6C" points="604.6617432,1085.961792 588.3725586,1085.961792 647.0903931,793.8134766 
				653.9550781,793.8134766 			"/>
			<polygon fill="#C49A6C" points="587.3080444,1085.961792 565.2443237,1085.961792 637.3434448,793.8134766 
				646.6417236,793.8134766 			"/>
			<polygon fill="#C49A6C" points="564.2509155,1085.961792 547.9616699,1085.961792 630.0600586,793.8134766 
				636.9248047,793.8134766 			"/>
			<polygon fill="#C49A6C" points="546.8971558,1085.961792 524.8334351,1085.961792 620.3131714,793.8134766 
				629.6114502,793.8134766 			"/>
			<polygon fill="#C49A6C" points="523.8400269,1085.961792 507.5508118,1085.961792 613.0297852,793.8134766 
				619.8945313,793.8134766 			"/>
			<polygon fill="#C49A6C" points="506.4862976,1085.961792 484.4225769,1085.961792 603.2828369,793.8134766 
				612.5811768,793.8134766 			"/>
			<polygon fill="#C49A6C" points="483.4291382,1085.961792 467.1399536,1085.961792 595.9994507,793.8134766 
				602.8641968,793.8134766 			"/>
			<polygon fill="#C49A6C" points="466.0754089,1085.961792 444.0117188,1085.961792 586.2525635,793.8134766 
				595.5508423,793.8134766 			"/>
			<polygon fill="#C49A6C" points="443.01828,1085.961792 426.7290649,1085.961792 578.9691772,793.8134766 
				585.8339233,793.8134766 			"/>
			<polygon fill="#C49A6C" points="425.6645508,1085.961792 403.6008301,1085.961792 569.22229,793.8134766 
				578.5205688,793.8134766 			"/>
			<polygon fill="#C49A6C" points="402.6074219,1085.961792 386.3182068,1085.961792 561.9388428,793.8134766 
				568.8035889,793.8134766 			"/>
			<polygon fill="#C49A6C" points="385.2536926,1085.961792 363.1899719,1085.961792 552.1919556,793.8134766 
				561.4902344,793.8134766 			"/>
			<polygon fill="#C49A6C" points="362.1965332,1085.961792 345.9073486,1085.961792 544.9085693,793.8134766 
				551.7733154,793.8134766 			"/>
			<polygon fill="#C49A6C" points="344.842804,1085.961792 322.7791138,1085.961792 535.1616821,793.8134766 
				544.4599609,793.8134766 			"/>
			<polygon fill="#C49A6C" points="321.785675,1085.961792 305.49646,1085.961792 527.8782959,793.8134766 534.743042,793.8134766 
							"/>
			<polygon fill="#C49A6C" points="304.4319458,1085.961792 282.3682251,1085.961792 518.1313477,793.8134766 
				527.4296265,793.8134766 			"/>
			<polygon fill="#C49A6C" points="281.3748169,1085.961792 265.0856018,1085.961792 510.8479614,793.8134766 
				517.7127075,793.8134766 			"/>
			<polygon fill="#C49A6C" points="264.0210571,1085.961792 241.9573669,1085.961792 501.1010742,793.8134766 
				510.399353,793.8134766 			"/>
			<polygon fill="#C49A6C" points="240.9639282,1085.961792 224.6747284,1085.961792 493.817688,793.8134766 
				500.6824036,793.8134766 			"/>
			<polygon fill="#C49A6C" points="223.610199,1085.961792 201.5464935,1085.961792 484.0707703,793.8134766 
				493.3690491,793.8134766 			"/>
			<polygon fill="#C49A6C" points="200.5530701,1085.961792 184.263855,1085.961792 476.787384,793.8134766 
				483.6521301,793.8134766 			"/>
			<polygon fill="#C49A6C" points="183.1993256,1085.961792 161.1356201,1085.961792 467.0404663,793.8134766 
				476.3387451,793.8134766 			"/>
			<polygon fill="#C49A6C" points="160.1421967,1085.961792 143.8529816,1085.961792 459.7570801,793.8134766 
				466.6218262,793.8134766 			"/>
			<polygon fill="#C49A6C" points="142.7884674,1085.961792 120.7247543,1085.961792 450.0101929,793.8134766 
				459.3084717,793.8134766 			"/>
			<polygon fill="#C49A6C" points="119.7313232,1085.961792 103.4421158,1085.961792 442.7267761,793.8134766 
				449.5915222,793.8134766 			"/>
			<polygon fill="#C49A6C" points="102.377594,1085.961792 80.3138809,1085.961792 432.9798889,793.8134766 
				442.2781677,793.8134766 			"/>
			<polygon fill="#C49A6C" points="79.3204498,1085.961792 63.0312462,1085.961792 425.6964722,793.8134766 
				432.5612183,793.8134766 			"/>
			<polygon fill="#C49A6C" points="61.9667206,1085.961792 39.9030113,1085.961792 415.949585,793.8134766 425.2478638,793.8134766 
							"/>
			<polygon fill="#C49A6C" points="38.909584,1085.961792 22.6203747,1085.961792 408.6661987,793.8134766 415.5309143,793.8134766 
							"/>
			<polygon fill="#C49A6C" points="21.555851,1085.961792 -0.5078592,1085.961792 398.919281,793.8134766 408.2175598,793.8134766 
							"/>
			<polygon fill="#C49A6C" points="-1.5012866,1085.961792 -17.7904949,1085.961792 391.6358948,793.8134766 
				398.5006104,793.8134766 			"/>
			<polygon fill="#C49A6C" points="-18.8550186,1085.961792 -40.9187279,1085.961792 381.8889771,793.8134766 
				391.1872559,793.8134766 			"/>
			<polygon fill="#C49A6C" points="-41.9121552,1085.961792 -58.2013664,1085.961792 374.6055908,793.8134766 
				381.4703369,793.8134766 			"/>
			<polygon fill="#C49A6C" points="-284.8273621,1085.961792 -301.1165771,1085.961792 272.2341919,793.8134766 
				279.098938,793.8134766 			"/>
			<polygon fill="#C49A6C" points="-302.1810913,1085.961792 -324.244812,1085.961792 262.4873047,793.8134766 
				271.7855835,793.8134766 			"/>
			<polygon fill="#C49A6C" points="-325.2382507,1085.961792 -341.5274353,1085.961792 255.2039032,793.8134766 
				262.068634,793.8134766 			"/>
			<polygon fill="#C49A6C" points="-342.59198,1085.961792 -364.6556702,1085.961792 245.457016,793.8134766 
				254.7552795,793.8134766 			"/>
			<polygon fill="#C49A6C" points="-365.6491089,1085.961792 -381.938324,1085.961792 238.1736145,793.8134766 
				245.0383453,793.8134766 			"/>
			<polygon fill="#C49A6C" points="-383.0028381,1085.961792 -405.0665588,1085.961792 228.426712,793.8134766 
				237.7249908,793.8134766 			"/>
			<polygon fill="#C49A6C" points="-406.059967,1085.961792 -422.3491821,1085.961792 221.1433105,793.8134766 
				228.0080566,793.8134766 			"/>
			<polygon fill="#C49A6C" points="-423.4136963,1085.961792 -445.477417,1085.961792 211.3964233,793.8134766 
				220.6947021,793.8134766 			"/>
			<polygon fill="#C49A6C" points="-446.4708252,1085.961792 -462.7600403,1085.961792 204.1130219,793.8134766 
				210.9777527,793.8134766 			"/>
			<polygon fill="#C49A6C" points="-463.824585,1085.961792 -485.8882751,1085.961792 194.3661194,793.8134766 
				203.6643982,793.8134766 			"/>
			<polygon fill="#C49A6C" points="-486.8817139,1085.961792 -503.170929,1085.961792 187.0827332,793.8134766 
				193.947464,793.8134766 			"/>
			<polygon fill="#C49A6C" points="-504.2354431,1085.961792 -526.2991333,1085.961792 177.3358307,793.8134766 
				186.6341095,793.8134766 			"/>
			<polygon fill="#C49A6C" points="-527.2926025,1085.961792 -543.5817871,1085.961792 170.0524292,793.8134766 
				176.9171753,793.8134766 			"/>
			<polygon fill="#C49A6C" points="-544.6463013,1085.961792 -566.710022,1085.961792 160.3055267,793.8134766 
				169.6038055,793.8134766 			"/>
			<polygon fill="#C49A6C" points="-567.7034302,1085.961792 -583.9926758,1085.961792 153.0221405,793.8134766 
				159.8868713,793.8134766 			"/>
			<polygon fill="#C49A6C" points="-585.0571899,1085.961792 -607.1208496,1085.961792 143.275238,793.8134766 
				152.5735168,793.8134766 			"/>
			<polygon fill="#C49A6C" points="-608.1143188,1085.961792 -624.4035034,1085.961792 135.9918365,793.8134766 
				142.8565826,793.8134766 			"/>
			<polygon fill="#C49A6C" points="-625.4680176,1085.961792 -647.5317383,1085.961792 126.2449417,793.8134766 
				135.5432129,793.8134766 			"/>
			<polygon fill="#C49A6C" points="-648.5251465,1085.961792 -664.8143921,1085.961792 118.9615479,793.8134766 
				125.8262863,793.8134766 			"/>
			<polygon fill="#C49A6C" points="-665.8789063,1085.961792 -687.942627,1085.961792 109.2146454,793.8134766 
				118.5129242,793.8134766 			"/>
			<polygon fill="#C49A6C" points="-688.9360352,1085.961792 -705.2252197,1085.961792 101.9312515,793.8134766 
				108.79599,793.8134766 			"/>
			<polygon fill="#C49A6C" points="-706.2897949,1085.961792 -728.3534546,1085.961792 92.1843491,793.8134766 
				101.4826279,793.8134766 			"/>
			<polygon fill="#C49A6C" points="-729.3469238,1085.961792 -745.6361084,1085.961792 84.9009552,793.8134766 
				91.7656937,793.8134766 			"/>
			<polygon fill="#C49A6C" points="-746.7006226,1085.961792 -768.7643433,1085.961792 75.1540604,793.8134766 
				84.4523315,793.8134766 			"/>
			<polygon fill="#C49A6C" points="-769.7577515,1085.961792 -786.0469971,1085.961792 67.8706589,793.8134766 
				74.7353973,793.8134766 			"/>
			<polygon fill="#C49A6C" points="-787.1115112,1085.961792 -809.1752319,1085.961792 58.1237602,793.8134766 
				67.4220428,793.8134766 			"/>
			<polygon fill="#C49A6C" points="-810.1686401,1085.961792 -826.4578247,1085.961792 50.8403664,793.8134766 
				57.705101,793.8134766 			"/>
			<polygon fill="#C49A6C" points="-827.5223389,1085.961792 -849.5860596,1085.961792 41.0934677,793.8134766 
				50.3917427,793.8134766 			"/>
			<polygon fill="#C49A6C" points="-850.5795288,1085.961792 -866.8687134,1085.961792 33.81007,793.8134766 
				40.6748085,793.8134766 			"/>
			<polygon fill="#C49A6C" points="-867.9332275,1085.961792 -889.9969482,1085.961792 24.0631714,793.8134766 
				33.3614502,793.8134766 			"/>
			<polygon fill="#C49A6C" points="-890.9903564,1085.961792 -907.2796021,1085.961792 16.7797737,793.8134766 
				23.6445122,793.8134766 			"/>
			<polygon fill="#C49A6C" points="-908.3441162,1085.961792 -930.4078369,1085.961792 7.032876,793.8134766 
				16.3311539,793.8134766 			"/>
			<polygon fill="#C49A6C" points="-931.4012451,1085.961792 -947.6904297,1085.961792 -0.2505209,793.8134766 
				6.6142173,793.8134766 			"/>
			<polygon fill="#C49A6C" points="-948.7549438,1085.961792 -970.8186646,1085.961792 -9.9974194,793.8134766 
				-0.6991413,793.8134766 			"/>
			<polygon fill="#C49A6C" points="-971.8121338,1085.961792 -988.1013184,1085.961792 -17.2808151,793.8134766 
				-10.4160786,793.8134766 			"/>
			<polygon fill="#C49A6C" points="-59.2658882,1085.961792 -81.3295975,1085.961792 364.8586731,793.8134766 
				374.1569519,793.8134766 			"/>
			<polygon fill="#C49A6C" points="-82.3230286,1085.961792 -98.612236,1085.961792 357.5752869,793.8134766 
				364.440033,793.8134766 			"/>
			<polygon fill="#C49A6C" points="-99.6767578,1085.961792 -121.7404709,1085.961792 347.8283997,793.8134766 
				357.1266785,793.8134766 			"/>
			<polygon fill="#C49A6C" points="-122.7338943,1085.961792 -139.0231018,1085.961792 340.5449829,793.8134766 
				347.409729,793.8134766 			"/>
			<polygon fill="#C49A6C" points="-140.0876312,1085.961792 -162.1513367,1085.961792 330.7980957,793.8134766 
				340.0963745,793.8134766 			"/>
			<polygon fill="#C49A6C" points="-163.1447601,1085.961792 -179.4339752,1085.961792 323.514679,793.8134766 
				330.379425,793.8134766 			"/>
			<polygon fill="#C49A6C" points="-180.4985046,1085.961792 -202.5622101,1085.961792 313.7677917,793.8134766 
				323.0660706,793.8134766 			"/>
			<polygon fill="#C49A6C" points="-203.5556335,1085.961792 -219.8448486,1085.961792 306.4844055,793.8134766 
				313.3491211,793.8134766 			"/>
			<polygon fill="#C49A6C" points="-220.9093628,1085.961792 -242.9730835,1085.961792 296.7374878,793.8134766 
				306.0357666,793.8134766 			"/>
			<polygon fill="#C49A6C" points="-243.966507,1085.961792 -260.2557068,1085.961792 289.4541016,793.8134766 
				296.3188171,793.8134766 			"/>
			<polygon fill="#C49A6C" points="-261.3202515,1085.961792 -283.3839417,1085.961792 279.7071838,793.8134766 
				289.0054626,793.8134766 			"/>
			<g opacity="0.5">
				
					<linearGradient id="SVGID_3_" gradientUnits="userSpaceOnUse" x1="-2078.3300781" y1="100.4022369" x2="-2078.3300781" y2="72.1811447" gradientTransform="matrix(4.489659e-11 -1 -1 -4.489659e-11 752.7424316 -1138.4423828)">
					<stop  offset="0.225275" style="stop-color:#000000;stop-opacity:0"/>
					<stop  offset="1" style="stop-color:#000000"/>
				</linearGradient>
				<polygon fill="url(#SVGID_3_)" points="674.0481567,793.8134766 652.34021,1085.961792 667.7955933,1085.961792 
					680.5612793,793.8134766 				"/>
			</g>
			<g>
				<polygon fill="#414042" points="689.8601685,1085.961792 667.3673096,1085.961792 680.3810425,793.8134766 
					689.8601685,793.8134766 				"/>
			</g>
			<g>
				<g>
					<polygon fill="#231F20" points="-26.4899025,1085.961792 -47.3619423,1085.961792 379.1736145,793.8134766 
						387.969696,793.8134766 					"/>
				</g>
				<g>
					<g opacity="0.5">
						
							<linearGradient id="SVGID_4_" gradientUnits="userSpaceOnUse" x1="-2078.3300781" y1="817.038147" x2="-2078.3300781" y2="375.8825073" gradientTransform="matrix(4.489659e-11 -1 -1 -4.489659e-11 752.7424316 -1138.4423828)">
							<stop  offset="0.225275" style="stop-color:#000000;stop-opacity:0"/>
							<stop  offset="1" style="stop-color:#000000"/>
						</linearGradient>
						<polygon fill="url(#SVGID_4_)" points="372.0372925,793.8134766 -64.2956848,1085.961792 -52.8517342,1085.961792 
							376.8599548,793.8134766 						"/>
					</g>
					<g opacity="0.5">
						
							<linearGradient id="SVGID_5_" gradientUnits="userSpaceOnUse" x1="-2078.3300781" y1="1938.3681641" x2="-2078.3300781" y2="1522.2619629" gradientTransform="matrix(0 -1 1 0 -1543.2619629 -1138.4423828)">
							<stop  offset="0.225275" style="stop-color:#000000;stop-opacity:0"/>
							<stop  offset="1" style="stop-color:#000000"/>
						</linearGradient>
						<polygon fill="url(#SVGID_5_)" points="395.1061707,793.8134766 -9.5560303,1085.961792 -20.9999828,1085.961792 
							390.2835083,793.8134766 						"/>
					</g>
					<g>
						<polygon fill="#414042" points="-37.7142372,1085.961792 -53.1689453,1085.961792 376.7263794,793.8134766 
							383.2394409,793.8134766 						"/>
					</g>
					<g>
						<polygon fill="#414042" points="-20.5921421,1085.961792 -36.0468483,1085.961792 383.9421387,793.8134766 
							390.4552002,793.8134766 						"/>
					</g>
				</g>
			</g>
			<g>
				<g>
					<polygon fill="#231F20" points="-704.4282837,1085.961792 -725.300354,1085.961792 93.4709625,793.8134766 
						102.2670441,793.8134766 					"/>
				</g>
				<g>
					<g opacity="0.5">
						
							<linearGradient id="SVGID_6_" gradientUnits="userSpaceOnUse" x1="-2078.3300781" y1="1494.9764404" x2="-2078.3300781" y2="661.585083" gradientTransform="matrix(4.489659e-11 -1 -1 -4.489659e-11 752.7424316 -1138.4423828)">
							<stop  offset="0.225275" style="stop-color:#000000;stop-opacity:0"/>
							<stop  offset="1" style="stop-color:#000000"/>
						</linearGradient>
						<polygon fill="url(#SVGID_6_)" points="86.3346939,793.8134766 -742.2340088,1085.961792 -730.7900391,1085.961792 
							91.1573486,793.8134766 						"/>
					</g>
					<g opacity="0.5">
						
							<linearGradient id="SVGID_7_" gradientUnits="userSpaceOnUse" x1="-2078.3300781" y1="1652.6655273" x2="-2078.3300781" y2="844.3236694" gradientTransform="matrix(0 -1 1 0 -1543.2619629 -1138.4423828)">
							<stop  offset="0.225275" style="stop-color:#000000;stop-opacity:0"/>
							<stop  offset="1" style="stop-color:#000000"/>
						</linearGradient>
						<polygon fill="url(#SVGID_7_)" points="109.4035492,793.8134766 -687.4943848,1085.961792 -698.9382935,1085.961792 
							104.5809021,793.8134766 						"/>
					</g>
					<g>
						<polygon fill="#414042" points="-715.6526489,1085.961792 -731.1072998,1085.961792 91.0237274,793.8134766 
							97.5367813,793.8134766 						"/>
					</g>
					<g>
						<polygon fill="#414042" points="-698.5305176,1085.961792 -713.9852295,1085.961792 98.2394714,793.8134766 
							104.7525253,793.8134766 						"/>
					</g>
				</g>
			</g>
		</g>
		<g>
			<g>
				<polygon fill="#414042" points="690.9700928,1085.961792 2358.6750488,1085.961792 1393.2415771,793.8134766 
					690.4229736,793.8134766 				"/>
			</g>
			<polygon fill="#C49A6C" points="711.7548218,1085.961792 733.8185425,1085.961792 708.4805298,793.8134766 
				699.182251,793.8134766 			"/>
			<polygon fill="#C49A6C" points="734.8119507,1085.961792 751.1011353,1085.961792 715.763916,793.8134766 
				708.8991699,793.8134766 			"/>
			<polygon fill="#C49A6C" points="752.1657104,1085.961792 774.2293701,1085.961792 725.5108032,793.8134766 
				716.2125244,793.8134766 			"/>
			<polygon fill="#C49A6C" points="775.2228394,1085.961792 791.5120239,1085.961792 732.7942505,793.8134766 
				725.9295044,793.8134766 			"/>
			<polygon fill="#C49A6C" points="792.5765381,1085.961792 814.6402588,1085.961792 742.5411377,793.8134766 
				733.2428589,793.8134766 			"/>
			<polygon fill="#C49A6C" points="815.633667,1085.961792 831.9229126,1085.961792 749.8245239,793.8134766 
				742.9597778,793.8134766 			"/>
			<polygon fill="#C49A6C" points="832.9874268,1085.961792 855.0511475,1085.961792 759.5714111,793.8134766 
				750.2731323,793.8134766 			"/>
			<polygon fill="#C49A6C" points="856.0445557,1085.961792 872.3338013,1085.961792 766.8547974,793.8134766 
				759.9900513,793.8134766 			"/>
			<polygon fill="#C49A6C" points="873.3983154,1085.961792 895.4620361,1085.961792 776.6017456,793.8134766 
				767.3034668,793.8134766 			"/>
			<polygon fill="#C49A6C" points="896.4554443,1085.961792 912.7446289,1085.961792 783.8851318,793.8134766 
				777.0203857,793.8134766 			"/>
			<polygon fill="#C49A6C" points="913.8091431,1085.961792 935.8728638,1085.961792 793.632019,793.8134766 
				784.3337402,793.8134766 			"/>
			<polygon fill="#C49A6C" points="936.866333,1085.961792 953.1555176,1085.961792 800.9154053,793.8134766 
				794.0506592,793.8134766 			"/>
			<polygon fill="#C49A6C" points="954.2200317,1085.961792 976.2837524,1085.961792 810.6622925,793.8134766 
				801.3640137,793.8134766 			"/>
			<polygon fill="#C49A6C" points="977.2771606,1085.961792 993.5664063,1085.961792 817.9457397,793.8134766 
				811.0809937,793.8134766 			"/>
			<polygon fill="#C49A6C" points="994.6309204,1085.961792 1016.6946411,1085.961792 827.692627,793.8134766 
				818.3943481,793.8134766 			"/>
			<polygon fill="#C49A6C" points="1017.6880493,1085.961792 1033.9772949,1085.961792 834.9760132,793.8134766 
				828.1112671,793.8134766 			"/>
			<polygon fill="#C49A6C" points="1035.041748,1085.961792 1057.1054688,1085.961792 844.7229004,793.8134766 
				835.4246216,793.8134766 			"/>
			<polygon fill="#C49A6C" points="1058.098877,1085.961792 1074.3881836,1085.961792 852.0062866,793.8134766 
				845.1416016,793.8134766 			"/>
			<polygon fill="#C49A6C" points="1075.4526367,1085.961792 1097.5163574,1085.961792 861.7532349,793.8134766 
				852.4549561,793.8134766 			"/>
			<polygon fill="#C49A6C" points="1098.5097656,1085.961792 1114.7989502,1085.961792 869.0366211,793.8134766 
				862.171875,793.8134766 			"/>
			<polygon fill="#C49A6C" points="1115.8635254,1085.961792 1137.9272461,1085.961792 878.7835083,793.8134766 
				869.4852295,793.8134766 			"/>
			<polygon fill="#C49A6C" points="1138.9206543,1085.961792 1155.2098389,1085.961792 886.0668945,793.8134766 
				879.2021484,793.8134766 			"/>
			<polygon fill="#C49A6C" points="1156.2744141,1085.961792 1178.3381348,1085.961792 895.8137817,793.8134766 
				886.5155029,793.8134766 			"/>
			<polygon fill="#C49A6C" points="1179.331543,1085.961792 1195.6207275,1085.961792 903.097229,793.8134766 
				896.2324829,793.8134766 			"/>
			<polygon fill="#C49A6C" points="1196.6853027,1085.961792 1218.7490234,1085.961792 912.8441162,793.8134766 
				903.5458374,793.8134766 			"/>
			<polygon fill="#C49A6C" points="1219.7424316,1085.961792 1236.0316162,1085.961792 920.1275024,793.8134766 
				913.2627563,793.8134766 			"/>
			<polygon fill="#C49A6C" points="1237.0960693,1085.961792 1259.15979,1085.961792 929.8743896,793.8134766 
				920.5761108,793.8134766 			"/>
			<polygon fill="#C49A6C" points="1260.1533203,1085.961792 1276.4425049,1085.961792 937.1578369,793.8134766 
				930.2930908,793.8134766 			"/>
			<polygon fill="#C49A6C" points="1277.506958,1085.961792 1299.5706787,1085.961792 946.9047241,793.8134766 
				937.6064453,793.8134766 			"/>
			<polygon fill="#C49A6C" points="1300.5640869,1085.961792 1316.8533936,1085.961792 954.1881104,793.8134766 
				947.3233643,793.8134766 			"/>
			<polygon fill="#C49A6C" points="1317.9178467,1085.961792 1339.9815674,1085.961792 963.9349976,793.8134766 
				954.6367188,793.8134766 			"/>
			<polygon fill="#C49A6C" points="1340.9749756,1085.961792 1357.2641602,1085.961792 971.2183838,793.8134766 
				964.3536377,793.8134766 			"/>
			<polygon fill="#C49A6C" points="1358.3287354,1085.961792 1380.3924561,1085.961792 980.965332,793.8134766 
				971.6670532,793.8134766 			"/>
			<polygon fill="#C49A6C" points="1381.3858643,1085.961792 1397.6750488,1085.961792 988.2487183,793.8134766 
				981.3839722,793.8134766 			"/>
			<polygon fill="#C49A6C" points="1398.739624,1085.961792 1420.8033447,1085.961792 997.9956055,793.8134766 
				988.6973267,793.8134766 			"/>
			<polygon fill="#C49A6C" points="1421.7967529,1085.961792 1438.0859375,1085.961792 1005.2789917,793.8134766 
				998.4142456,793.8134766 			"/>
			<polygon fill="#C49A6C" points="1664.7119141,1085.961792 1681.0012207,1085.961792 1107.6503906,793.8134766 
				1100.7856445,793.8134766 			"/>
			<polygon fill="#C49A6C" points="1682.0656738,1085.961792 1704.1293945,1085.961792 1117.3973389,793.8134766 
				1108.098999,793.8134766 			"/>
			<polygon fill="#C49A6C" points="1705.1228027,1085.961792 1721.4119873,1085.961792 1124.6806641,793.8134766 
				1117.815918,793.8134766 			"/>
			<polygon fill="#C49A6C" points="1722.4765625,1085.961792 1744.5402832,1085.961792 1134.4276123,793.8134766 
				1125.1292725,793.8134766 			"/>
			<polygon fill="#C49A6C" points="1745.5336914,1085.961792 1761.822876,1085.961792 1141.7109375,793.8134766 
				1134.8461914,793.8134766 			"/>
			<polygon fill="#C49A6C" points="1762.8874512,1085.961792 1784.9511719,1085.961792 1151.4578857,793.8134766 
				1142.1595459,793.8134766 			"/>
			<polygon fill="#C49A6C" points="1785.9445801,1085.961792 1802.2337646,1085.961792 1158.7412109,793.8134766 
				1151.8765869,793.8134766 			"/>
			<polygon fill="#C49A6C" points="1803.2983398,1085.961792 1825.3620605,1085.961792 1168.4881592,793.8134766 
				1159.1899414,793.8134766 			"/>
			<polygon fill="#C49A6C" points="1826.3554688,1085.961792 1842.6446533,1085.961792 1175.7716064,793.8134766 
				1168.9068604,793.8134766 			"/>
			<polygon fill="#C49A6C" points="1843.7091064,1085.961792 1865.7728271,1085.961792 1185.5184326,793.8134766 
				1176.2202148,793.8134766 			"/>
			<polygon fill="#C49A6C" points="1866.7662354,1085.961792 1883.055542,1085.961792 1192.8018799,793.8134766 
				1185.9371338,793.8134766 			"/>
			<polygon fill="#C49A6C" points="1884.1199951,1085.961792 1906.1837158,1085.961792 1202.5487061,793.8134766 
				1193.2504883,793.8134766 			"/>
			<polygon fill="#C49A6C" points="1907.177124,1085.961792 1923.4663086,1085.961792 1209.8321533,793.8134766 
				1202.9674072,793.8134766 			"/>
			<polygon fill="#C49A6C" points="1924.5308838,1085.961792 1946.5946045,1085.961792 1219.5791016,793.8134766 
				1210.2807617,793.8134766 			"/>
			<polygon fill="#C49A6C" points="1947.5880127,1085.961792 1963.8771973,1085.961792 1226.8624268,793.8134766 
				1219.9976807,793.8134766 			"/>
			<polygon fill="#C49A6C" points="1964.9417725,1085.961792 1987.0054932,1085.961792 1236.609375,793.8134766 
				1227.3110352,793.8134766 			"/>
			<polygon fill="#C49A6C" points="1987.9989014,1085.961792 2004.2880859,1085.961792 1243.8927002,793.8134766 
				1237.0279541,793.8134766 			"/>
			<polygon fill="#C49A6C" points="2005.3526611,1085.961792 2027.4163818,1085.961792 1253.6396484,793.8134766 
				1244.3413086,793.8134766 			"/>
			<polygon fill="#C49A6C" points="2028.40979,1085.961792 2044.6989746,1085.961792 1260.9230957,793.8134766 
				1254.0583496,793.8134766 			"/>
			<polygon fill="#C49A6C" points="2045.7635498,1085.961792 2067.8271484,1085.961792 1270.6699219,793.8134766 
				1261.3717041,793.8134766 			"/>
			<polygon fill="#C49A6C" points="2068.8205566,1085.961792 2085.1098633,1085.961792 1277.9533691,793.8134766 
				1271.088623,793.8134766 			"/>
			<polygon fill="#C49A6C" points="2086.1743164,1085.961792 2108.2380371,1085.961792 1287.7001953,793.8134766 
				1278.4019775,793.8134766 			"/>
			<polygon fill="#C49A6C" points="2109.2314453,1085.961792 2125.520752,1085.961792 1294.9836426,793.8134766 
				1288.1188965,793.8134766 			"/>
			<polygon fill="#C49A6C" points="2126.5852051,1085.961792 2148.6489258,1085.961792 1304.7305908,793.8134766 
				1295.432251,793.8134766 			"/>
			<polygon fill="#C49A6C" points="2149.642334,1085.961792 2165.9316406,1085.961792 1312.013916,793.8134766 
				1305.1491699,793.8134766 			"/>
			<polygon fill="#C49A6C" points="2166.9960938,1085.961792 2189.0598145,1085.961792 1321.7608643,793.8134766 
				1312.4625244,793.8134766 			"/>
			<polygon fill="#C49A6C" points="2190.0532227,1085.961792 2206.3425293,1085.961792 1329.0441895,793.8134766 
				1322.1794434,793.8134766 			"/>
			<polygon fill="#C49A6C" points="2207.4069824,1085.961792 2229.4707031,1085.961792 1338.7911377,793.8134766 
				1329.4927979,793.8134766 			"/>
			<polygon fill="#C49A6C" points="2230.4641113,1085.961792 2246.753418,1085.961792 1346.0744629,793.8134766 
				1339.2098389,793.8134766 			"/>
			<polygon fill="#C49A6C" points="2247.8178711,1085.961792 2269.8815918,1085.961792 1355.8214111,793.8134766 
				1346.5231934,793.8134766 			"/>
			<polygon fill="#C49A6C" points="2270.875,1085.961792 2287.1640625,1085.961792 1363.1048584,793.8134766 
				1356.2401123,793.8134766 			"/>
			<polygon fill="#C49A6C" points="2288.2287598,1085.961792 2310.2924805,1085.961792 1372.8516846,793.8134766 
				1363.5534668,793.8134766 			"/>
			<polygon fill="#C49A6C" points="2311.2858887,1085.961792 2327.5749512,1085.961792 1380.1351318,793.8134766 
				1373.2703857,793.8134766 			"/>
			<polygon fill="#C49A6C" points="2328.6396484,1085.961792 2350.7033691,1085.961792 1389.881958,793.8134766 
				1380.5837402,793.8134766 			"/>
			<polygon fill="#C49A6C" points="2351.6967773,1085.961792 2367.9858398,1085.961792 1397.1654053,793.8134766 
				1390.3006592,793.8134766 			"/>
			<polygon fill="#C49A6C" points="1439.1505127,1085.961792 1461.2142334,1085.961792 1015.0258789,793.8134766 
				1005.7276001,793.8134766 			"/>
			<polygon fill="#C49A6C" points="1462.2076416,1085.961792 1478.4968262,1085.961792 1022.3093262,793.8134766 
				1015.4445801,793.8134766 			"/>
			<polygon fill="#C49A6C" points="1479.5614014,1085.961792 1501.625,1085.961792 1032.0561523,793.8134766 
				1022.7579346,793.8134766 			"/>
			<polygon fill="#C49A6C" points="1502.6185303,1085.961792 1518.9077148,1085.961792 1039.3395996,793.8134766 
				1032.4748535,793.8134766 			"/>
			<polygon fill="#C49A6C" points="1519.972168,1085.961792 1542.0358887,1085.961792 1049.0865479,793.8134766 
				1039.788208,793.8134766 			"/>
			<polygon fill="#C49A6C" points="1543.0292969,1085.961792 1559.3186035,1085.961792 1056.369873,793.8134766 
				1049.505127,793.8134766 			"/>
			<polygon fill="#C49A6C" points="1560.3830566,1085.961792 1582.4467773,1085.961792 1066.1168213,793.8134766 
				1056.8184814,793.8134766 			"/>
			<polygon fill="#C49A6C" points="1583.4401855,1085.961792 1599.7294922,1085.961792 1073.4001465,793.8134766 
				1066.5354004,793.8134766 			"/>
			<polygon fill="#C49A6C" points="1600.7939453,1085.961792 1622.857666,1085.961792 1083.1470947,793.8134766 
				1073.848877,793.8134766 			"/>
			<polygon fill="#C49A6C" points="1623.8510742,1085.961792 1640.1402588,1085.961792 1090.430542,793.8134766 
				1083.5657959,793.8134766 			"/>
			<polygon fill="#C49A6C" points="1641.204834,1085.961792 1663.2685547,1085.961792 1100.1773682,793.8134766 
				1090.8791504,793.8134766 			"/>
			<g opacity="0.5">
				
					<linearGradient id="SVGID_8_" gradientUnits="userSpaceOnUse" x1="-2078.3300781" y1="1678.9512939" x2="-2078.3300781" y2="1650.7302246" gradientTransform="matrix(0 -1 1 0 -951.4069824 -1138.4423828)">
					<stop  offset="0.225275" style="stop-color:#000000;stop-opacity:0"/>
					<stop  offset="1" style="stop-color:#000000"/>
				</linearGradient>
				<polygon fill="url(#SVGID_8_)" points="705.8364258,793.8134766 727.5443726,1085.961792 712.0889893,1085.961792 
					699.3233032,793.8134766 				"/>
			</g>
			<g>
				<polygon fill="#414042" points="690.0244141,1085.961792 712.5172729,1085.961792 699.5036011,793.8134766 
					690.0244141,793.8134766 				"/>
			</g>
			<g>
				<g>
					<polygon fill="#231F20" points="1406.3745117,1085.961792 1427.246582,1085.961792 1000.7109375,793.8134766 
						991.914856,793.8134766 					"/>
				</g>
				<g>
					<g opacity="0.5">
						
							<linearGradient id="SVGID_9_" gradientUnits="userSpaceOnUse" x1="-2078.3300781" y1="2395.5871582" x2="-2078.3300781" y2="1954.4316406" gradientTransform="matrix(0 -1 1 0 -951.4069824 -1138.4423828)">
							<stop  offset="0.225275" style="stop-color:#000000;stop-opacity:0"/>
							<stop  offset="1" style="stop-color:#000000"/>
						</linearGradient>
						<polygon fill="url(#SVGID_9_)" points="1007.84729,793.8134766 1444.1802979,1085.961792 1432.7363281,1085.961792 
							1003.0246582,793.8134766 						"/>
					</g>
					<g opacity="0.5">
						
							<linearGradient id="SVGID_10_" gradientUnits="userSpaceOnUse" x1="-2078.3300781" y1="359.8190002" x2="-2078.3300781" y2="-56.2871284" gradientTransform="matrix(4.489659e-11 -1 -1 -4.489659e-11 1344.5974121 -1138.4423828)">
							<stop  offset="0.225275" style="stop-color:#000000;stop-opacity:0"/>
							<stop  offset="1" style="stop-color:#000000"/>
						</linearGradient>
						<polygon fill="url(#SVGID_10_)" points="984.7784424,793.8134766 1389.4406738,1085.961792 1400.8845215,1085.961792 
							989.6010742,793.8134766 						"/>
					</g>
					<g>
						<polygon fill="#414042" points="1417.598877,1085.961792 1433.0535889,1085.961792 1003.1582031,793.8134766 
							996.6451416,793.8134766 						"/>
					</g>
					<g>
						<polygon fill="#414042" points="1400.4766846,1085.961792 1415.9313965,1085.961792 995.9424438,793.8134766 
							989.4293823,793.8134766 						"/>
					</g>
				</g>
			</g>
			<g>
				<g>
					<polygon fill="#231F20" points="2084.3129883,1085.961792 2105.1848145,1085.961792 1286.4135742,793.8134766 
						1277.6175537,793.8134766 					"/>
				</g>
				<g>
					<g opacity="0.5">
						
							<linearGradient id="SVGID_11_" gradientUnits="userSpaceOnUse" x1="-2078.3300781" y1="3073.5256348" x2="-2078.3300781" y2="2240.1342773" gradientTransform="matrix(0 -1 1 0 -951.4069824 -1138.4423828)">
							<stop  offset="0.225275" style="stop-color:#000000;stop-opacity:0"/>
							<stop  offset="1" style="stop-color:#000000"/>
						</linearGradient>
						<polygon fill="url(#SVGID_11_)" points="1293.5499268,793.8134766 2122.1186523,1085.961792 2110.6745605,1085.961792 
							1288.7272949,793.8134766 						"/>
					</g>
					<g opacity="0.5">
						
							<linearGradient id="SVGID_12_" gradientUnits="userSpaceOnUse" x1="-2078.3300781" y1="74.1164093" x2="-2078.3300781" y2="-734.2254639" gradientTransform="matrix(4.489659e-11 -1 -1 -4.489659e-11 1344.5974121 -1138.4423828)">
							<stop  offset="0.225275" style="stop-color:#000000;stop-opacity:0"/>
							<stop  offset="1" style="stop-color:#000000"/>
						</linearGradient>
						<polygon fill="url(#SVGID_12_)" points="1270.4810791,793.8134766 2067.3789063,1085.961792 2078.822998,1085.961792 
							1275.3037109,793.8134766 						"/>
					</g>
					<g>
						<polygon fill="#414042" points="2095.5371094,1085.961792 2110.9919434,1085.961792 1288.8608398,793.8134766 
							1282.3477783,793.8134766 						"/>
					</g>
					<g>
						<polygon fill="#414042" points="2078.4150391,1085.961792 2093.869873,1085.961792 1281.6451416,793.8134766 
							1275.1320801,793.8134766 						"/>
					</g>
				</g>
			</g>
		</g>
	</g>
	<g clip-path="url(#SVGID_2_)">
		<g>
			<rect x="-75.2174301" y="187.7408295" fill="#E2A554" width="304.1327515" height="595.7484131"/>
			<g>
				<rect x="-63.7120399" y="196.5231171" fill="#F4EDDF" width="91.321785" height="47.3209267"/>
				<rect x="32.2532234" y="196.5231171" fill="#F4EDDF" width="91.321785" height="47.3209267"/>
				<rect x="128.2184906" y="196.5231171" fill="#F4EDDF" width="91.321785" height="47.3209267"/>
			</g>
			<g>
				<rect x="-63.7120399" y="248.239975" fill="#F4EDDF" width="91.321785" height="47.3209267"/>
				<rect x="32.2532234" y="248.239975" fill="#F4EDDF" width="91.321785" height="47.3209267"/>
				<rect x="128.2184906" y="248.239975" fill="#F4EDDF" width="91.321785" height="47.3209267"/>
			</g>
			<g>
				<rect x="-63.7120399" y="299.9568176" fill="#F4EDDF" width="91.321785" height="47.3209267"/>
				<rect x="32.2532234" y="299.9568176" fill="#F4EDDF" width="91.321785" height="47.3209267"/>
				<rect x="128.2184906" y="299.9568176" fill="#F4EDDF" width="91.321785" height="47.3209267"/>
			</g>
			<g>
				<rect x="-63.7120399" y="351.6736755" fill="#F4EDDF" width="91.321785" height="47.3209267"/>
				<rect x="32.2532234" y="351.6736755" fill="#F4EDDF" width="91.321785" height="47.3209267"/>
				<rect x="128.2184906" y="351.6736755" fill="#F4EDDF" width="91.321785" height="47.3209267"/>
			</g>
			<g>
				<rect x="-63.7120399" y="403.3905334" fill="#F4EDDF" width="91.321785" height="47.3209267"/>
				<rect x="32.2532234" y="403.3905334" fill="#F4EDDF" width="91.321785" height="47.3209267"/>
				<rect x="128.2184906" y="403.3905334" fill="#F4EDDF" width="91.321785" height="47.3209267"/>
			</g>
			<g>
				<rect x="-63.7120399" y="455.1073914" fill="#F4EDDF" width="91.321785" height="47.3209267"/>
				<rect x="32.2532234" y="455.1073914" fill="#F4EDDF" width="91.321785" height="47.3209267"/>
				<rect x="128.2184906" y="455.1073914" fill="#F4EDDF" width="91.321785" height="47.3209267"/>
			</g>
			<g>
				<rect x="-63.7120399" y="506.8242493" fill="#F4EDDF" width="91.321785" height="47.3209267"/>
				<rect x="32.2532234" y="506.8242493" fill="#F4EDDF" width="91.321785" height="47.3209267"/>
				<rect x="128.2184906" y="506.8242493" fill="#F4EDDF" width="91.321785" height="47.3209267"/>
			</g>
			<g>
				<rect x="-63.7120399" y="558.5411377" fill="#F4EDDF" width="91.321785" height="47.3209267"/>
				<rect x="32.2532234" y="558.5411377" fill="#F4EDDF" width="91.321785" height="47.3209267"/>
				<rect x="128.2184906" y="558.5411377" fill="#F4EDDF" width="91.321785" height="47.3209267"/>
			</g>
			<g>
				<rect x="-63.7120399" y="610.2579956" fill="#F4EDDF" width="91.321785" height="47.3209267"/>
				<rect x="32.2532234" y="610.2579956" fill="#F4EDDF" width="91.321785" height="47.3209267"/>
				<rect x="128.2184906" y="610.2579956" fill="#F4EDDF" width="91.321785" height="47.3209267"/>
			</g>
			<g>
				<rect x="-63.7120399" y="661.9748535" fill="#F4EDDF" width="91.321785" height="47.3209267"/>
				<rect x="32.2532234" y="661.9748535" fill="#F4EDDF" width="91.321785" height="47.3209267"/>
				<rect x="128.2184906" y="661.9748535" fill="#F4EDDF" width="91.321785" height="47.3209267"/>
			</g>
			<g>
				<rect x="-63.7120399" y="713.6917114" fill="#F4EDDF" width="91.321785" height="47.3209267"/>
				<rect x="32.2532234" y="713.6917114" fill="#F4EDDF" width="91.321785" height="47.3209267"/>
				<rect x="128.2184906" y="713.6917114" fill="#F4EDDF" width="91.321785" height="47.3209267"/>
			</g>
			
				<linearGradient id="SVGID_13_" gradientUnits="userSpaceOnUse" x1="-1623.9857178" y1="63.748745" x2="-1623.9857178" y2="59.3631706" gradientTransform="matrix(0 -1 1 0 -123.0748978 -1138.4423828)">
				<stop  offset="0.225275" style="stop-color:#000000;stop-opacity:0"/>
				<stop  offset="1" style="stop-color:#000000"/>
			</linearGradient>
			<rect x="-63.7116547" y="187.7409363" opacity="0.5" fill="url(#SVGID_13_)" width="4.3855" height="595.6047363"/>
			
				<linearGradient id="SVGID_14_" gradientUnits="userSpaceOnUse" x1="-1623.9857178" y1="-26.7573128" x2="-1623.9857178" y2="-31.1428833" gradientTransform="matrix(4.489659e-11 -1 -1 -4.489659e-11 188.6554871 -1138.4423828)">
				<stop  offset="0.225275" style="stop-color:#000000;stop-opacity:0"/>
				<stop  offset="1" style="stop-color:#000000"/>
			</linearGradient>
			<rect x="215.412796" y="187.7409363" opacity="0.5" fill="url(#SVGID_14_)" width="4.3855" height="595.6047363"/>
		</g>
		<g>
			
				<rect x="-379.065155" y="187.7408295" transform="matrix(-1 -4.489266e-11 4.489266e-11 -1 -453.9975891 971.2301025)" fill="#E2A554" width="304.1327515" height="595.7484131"/>
			<g>
				
					<rect x="-177.7595825" y="196.5231171" transform="matrix(-1 -4.490642e-11 4.490642e-11 -1 -264.1973572 440.367157)" fill="#F4EDDF" width="91.321785" height="47.3209267"/>
				
					<rect x="-273.7248535" y="196.5231171" transform="matrix(-1 -4.490642e-11 4.490642e-11 -1 -456.1278992 440.367157)" fill="#F4EDDF" width="91.321785" height="47.3209267"/>
				
					<rect x="-369.690094" y="196.5231171" transform="matrix(-1 -4.490642e-11 4.490642e-11 -1 -648.0584106 440.367157)" fill="#F4EDDF" width="91.321785" height="47.3209267"/>
			</g>
			<g>
				
					<rect x="-177.7595825" y="248.239975" transform="matrix(-1 -4.489621e-11 4.489621e-11 -1 -264.1973572 543.8008423)" fill="#F4EDDF" width="91.321785" height="47.3209267"/>
				
					<rect x="-273.7248535" y="248.239975" transform="matrix(-1 -4.488644e-11 4.488644e-11 -1 -456.1278992 543.8008423)" fill="#F4EDDF" width="91.321785" height="47.3209267"/>
				
					<rect x="-369.690094" y="248.239975" transform="matrix(-1 -4.490642e-11 4.490642e-11 -1 -648.0584106 543.8008423)" fill="#F4EDDF" width="91.321785" height="47.3209267"/>
			</g>
			<g>
				
					<rect x="-177.7595825" y="299.9568176" transform="matrix(-1 -4.489621e-11 4.489621e-11 -1 -264.1973572 647.2345581)" fill="#F4EDDF" width="91.321785" height="47.3209267"/>
				
					<rect x="-273.7248535" y="299.9568176" transform="matrix(-1 -4.489621e-11 4.489621e-11 -1 -456.1278992 647.2345581)" fill="#F4EDDF" width="91.321785" height="47.3209267"/>
				
					<rect x="-369.690094" y="299.9568176" transform="matrix(-1 -4.489621e-11 4.489621e-11 -1 -648.0584106 647.2345581)" fill="#F4EDDF" width="91.321785" height="47.3209267"/>
			</g>
			<g>
				
					<rect x="-177.7595825" y="351.6736755" transform="matrix(-1 -4.488644e-11 4.488644e-11 -1 -264.1973572 750.6682739)" fill="#F4EDDF" width="91.321785" height="47.3209267"/>
				
					<rect x="-273.7248535" y="351.6736755" transform="matrix(-1 -4.489621e-11 4.489621e-11 -1 -456.1278992 750.6682739)" fill="#F4EDDF" width="91.321785" height="47.3209267"/>
				
					<rect x="-369.690094" y="351.6736755" transform="matrix(-1 -4.489621e-11 4.489621e-11 -1 -648.0584106 750.6682739)" fill="#F4EDDF" width="91.321785" height="47.3209267"/>
			</g>
			<g>
				
					<rect x="-177.7595825" y="403.3905334" transform="matrix(-1 -4.488644e-11 4.488644e-11 -1 -264.1973572 854.1019897)" fill="#F4EDDF" width="91.321785" height="47.3209267"/>
				
					<rect x="-273.7248535" y="403.3905334" transform="matrix(-1 -4.489621e-11 4.489621e-11 -1 -456.1278992 854.1019897)" fill="#F4EDDF" width="91.321785" height="47.3209267"/>
				
					<rect x="-369.690094" y="403.3905334" transform="matrix(-1 -4.489621e-11 4.489621e-11 -1 -648.0584106 854.1019897)" fill="#F4EDDF" width="91.321785" height="47.3209267"/>
			</g>
			<g>
				
					<rect x="-177.7595825" y="455.1073914" transform="matrix(-1 -4.489621e-11 4.489621e-11 -1 -264.1973572 957.5357056)" fill="#F4EDDF" width="91.321785" height="47.3209267"/>
				
					<rect x="-273.7248535" y="455.1073914" transform="matrix(-1 -4.489621e-11 4.489621e-11 -1 -456.1278992 957.5357056)" fill="#F4EDDF" width="91.321785" height="47.3209267"/>
				
					<rect x="-369.690094" y="455.1073914" transform="matrix(-1 -4.487622e-11 4.487622e-11 -1 -648.0584106 957.5357056)" fill="#F4EDDF" width="91.321785" height="47.3209267"/>
			</g>
			<g>
				
					<rect x="-177.7595825" y="506.8242493" transform="matrix(-1 -4.491619e-11 4.491619e-11 -1 -264.1973572 1060.9694824)" fill="#F4EDDF" width="91.321785" height="47.3209267"/>
				
					<rect x="-273.7248535" y="506.8242493" transform="matrix(-1 -4.489621e-11 4.489621e-11 -1 -456.1278992 1060.9694824)" fill="#F4EDDF" width="91.321785" height="47.3209267"/>
				
					<rect x="-369.690094" y="506.8242493" transform="matrix(-1 -4.491619e-11 4.491619e-11 -1 -648.0584106 1060.9694824)" fill="#F4EDDF" width="91.321785" height="47.3209267"/>
			</g>
			<g>
				
					<rect x="-177.7595825" y="558.5411377" transform="matrix(-1 -4.489621e-11 4.489621e-11 -1 -264.1973572 1164.4031982)" fill="#F4EDDF" width="91.321785" height="47.3209267"/>
				
					<rect x="-273.7248535" y="558.5411377" transform="matrix(-1 -4.487622e-11 4.487622e-11 -1 -456.1278992 1164.4031982)" fill="#F4EDDF" width="91.321785" height="47.3209267"/>
				
					<rect x="-369.690094" y="558.5411377" transform="matrix(-1 -4.489621e-11 4.489621e-11 -1 -648.0584106 1164.4031982)" fill="#F4EDDF" width="91.321785" height="47.3209267"/>
			</g>
			<g>
				
					<rect x="-177.7595825" y="610.2579956" transform="matrix(-1 -4.491619e-11 4.491619e-11 -1 -264.1973572 1267.8369141)" fill="#F4EDDF" width="91.321785" height="47.3209267"/>
				
					<rect x="-273.7248535" y="610.2579956" transform="matrix(-1 -4.487622e-11 4.487622e-11 -1 -456.1278992 1267.8369141)" fill="#F4EDDF" width="91.321785" height="47.3209267"/>
				
					<rect x="-369.690094" y="610.2579956" transform="matrix(-1 -4.491619e-11 4.491619e-11 -1 -648.0584106 1267.8369141)" fill="#F4EDDF" width="91.321785" height="47.3209267"/>
			</g>
			<g>
				
					<rect x="-177.7595825" y="661.9748535" transform="matrix(-1 -4.487622e-11 4.487622e-11 -1 -264.1973572 1371.2706299)" fill="#F4EDDF" width="91.321785" height="47.3209267"/>
				
					<rect x="-273.7248535" y="661.9748535" transform="matrix(-1 -4.489621e-11 4.489621e-11 -1 -456.1278992 1371.2706299)" fill="#F4EDDF" width="91.321785" height="47.3209267"/>
				
					<rect x="-369.690094" y="661.9748535" transform="matrix(-1 -4.489621e-11 4.489621e-11 -1 -648.0584106 1371.2706299)" fill="#F4EDDF" width="91.321785" height="47.3209267"/>
			</g>
			<g>
				
					<rect x="-177.7595825" y="713.6917114" transform="matrix(-1 -4.489621e-11 4.489621e-11 -1 -264.1973572 1474.7043457)" fill="#F4EDDF" width="91.321785" height="47.3209267"/>
				
					<rect x="-273.7248535" y="713.6917114" transform="matrix(-1 -4.487622e-11 4.487622e-11 -1 -456.1278992 1474.7043457)" fill="#F4EDDF" width="91.321785" height="47.3209267"/>
				
					<rect x="-369.690094" y="713.6917114" transform="matrix(-1 -4.491619e-11 4.491619e-11 -1 -648.0584106 1474.7043457)" fill="#F4EDDF" width="91.321785" height="47.3209267"/>
			</g>
			
				<linearGradient id="SVGID_15_" gradientUnits="userSpaceOnUse" x1="-1623.9857178" y1="100.8509293" x2="-1623.9857178" y2="96.4653625" gradientTransform="matrix(4.489659e-11 -1 -1 -4.489659e-11 10.0272551 -1138.4423828)">
				<stop  offset="0.225275" style="stop-color:#000000;stop-opacity:0"/>
				<stop  offset="1" style="stop-color:#000000"/>
			</linearGradient>
			<rect x="-90.8236771" y="187.7409363" opacity="0.5" fill="url(#SVGID_15_)" width="4.3855" height="595.6047363"/>
			
				<linearGradient id="SVGID_16_" gradientUnits="userSpaceOnUse" x1="-1623.9857178" y1="-63.8595009" x2="-1623.9857178" y2="-68.2450714" gradientTransform="matrix(0 -1 1 0 -301.703125 -1138.4423828)">
				<stop  offset="0.225275" style="stop-color:#000000;stop-opacity:0"/>
				<stop  offset="1" style="stop-color:#000000"/>
			</linearGradient>
			<rect x="-369.9481506" y="187.7409363" opacity="0.5" fill="url(#SVGID_16_)" width="4.3855" height="595.6047363"/>
		</g>
		<rect x="-369.7590332" y="783.3456421" fill="#7F5940" width="571.0289917" height="4.0804009"/>
		<rect x="-370.5178223" y="184.1977081" fill="#7F5940" width="528.132019" height="3.936799"/>
		
			<linearGradient id="SVGID_17_" gradientUnits="userSpaceOnUse" x1="-1624.1815186" y1="612.4091187" x2="-1624.1815186" y2="596.4869995" gradientTransform="matrix(4.489659e-11 -1 -1 -4.489659e-11 752.7424316 -1138.4423828)">
			<stop  offset="0.225275" style="stop-color:#000000;stop-opacity:0"/>
			<stop  offset="1" style="stop-color:#000000"/>
		</linearGradient>
		<rect x="140.3333435" y="184.1977081" opacity="0.5" fill="url(#SVGID_17_)" width="15.9218349" height="603.0828247"/>
		<g>
			<rect x="155.6243896" y="184.1977081" fill="#E2A554" width="308.6832581" height="603.2283325"/>
			<g>
				<rect x="167.3019257" y="193.0902557" fill="#F4EDDF" width="92.6881561" height="47.915062"/>
				<rect x="264.7030334" y="193.0902557" fill="#F4EDDF" width="92.6881561" height="47.915062"/>
				<rect x="362.1041565" y="193.0902557" fill="#F4EDDF" width="92.6881561" height="47.915062"/>
			</g>
			<g>
				<rect x="167.3019257" y="245.4564514" fill="#F4EDDF" width="92.6881561" height="47.915062"/>
				<rect x="264.7030334" y="245.4564514" fill="#F4EDDF" width="92.6881561" height="47.915062"/>
				<rect x="362.1041565" y="245.4564514" fill="#F4EDDF" width="92.6881561" height="47.915062"/>
			</g>
			<g>
				<rect x="167.3019257" y="297.8226318" fill="#F4EDDF" width="92.6881561" height="47.915062"/>
				<rect x="264.7030334" y="297.8226318" fill="#F4EDDF" width="92.6881561" height="47.915062"/>
				<rect x="362.1041565" y="297.8226318" fill="#F4EDDF" width="92.6881561" height="47.915062"/>
			</g>
			<g>
				<rect x="167.3019257" y="350.1888428" fill="#F4EDDF" width="92.6881561" height="47.915062"/>
				<rect x="264.7030334" y="350.1888428" fill="#F4EDDF" width="92.6881561" height="47.915062"/>
				<rect x="362.1041565" y="350.1888428" fill="#F4EDDF" width="92.6881561" height="47.915062"/>
			</g>
			<g>
				<rect x="167.3019257" y="402.5550232" fill="#F4EDDF" width="92.6881561" height="47.915062"/>
				<rect x="264.7030334" y="402.5550232" fill="#F4EDDF" width="92.6881561" height="47.915062"/>
				<rect x="362.1041565" y="402.5550232" fill="#F4EDDF" width="92.6881561" height="47.915062"/>
			</g>
			<g>
				<rect x="167.3019257" y="454.9212036" fill="#F4EDDF" width="92.6881561" height="47.915062"/>
				<rect x="264.7030334" y="454.9212036" fill="#F4EDDF" width="92.6881561" height="47.915062"/>
				<rect x="362.1041565" y="454.9212036" fill="#F4EDDF" width="92.6881561" height="47.915062"/>
			</g>
			<g>
				<rect x="167.3019257" y="507.287384" fill="#F4EDDF" width="92.6881561" height="47.915062"/>
				<rect x="264.7030334" y="507.287384" fill="#F4EDDF" width="92.6881561" height="47.915062"/>
				<rect x="362.1041565" y="507.287384" fill="#F4EDDF" width="92.6881561" height="47.915062"/>
			</g>
			<g>
				<rect x="167.3019257" y="559.6535645" fill="#F4EDDF" width="92.6881561" height="47.915062"/>
				<rect x="264.7030334" y="559.6535645" fill="#F4EDDF" width="92.6881561" height="47.915062"/>
				<rect x="362.1041565" y="559.6535645" fill="#F4EDDF" width="92.6881561" height="47.915062"/>
			</g>
			<g>
				<rect x="167.3019257" y="612.0197754" fill="#F4EDDF" width="92.6881561" height="47.915062"/>
				<rect x="264.7030334" y="612.0197754" fill="#F4EDDF" width="92.6881561" height="47.915062"/>
				<rect x="362.1041565" y="612.0197754" fill="#F4EDDF" width="92.6881561" height="47.915062"/>
			</g>
			<g>
				<rect x="167.3019257" y="664.3859863" fill="#F4EDDF" width="92.6881561" height="47.915062"/>
				<rect x="264.7030334" y="664.3859863" fill="#F4EDDF" width="92.6881561" height="47.915062"/>
				<rect x="362.1041565" y="664.3859863" fill="#F4EDDF" width="92.6881561" height="47.915062"/>
			</g>
			<g>
				<rect x="167.3019257" y="716.7521362" fill="#F4EDDF" width="92.6881561" height="47.915062"/>
				<rect x="264.7030334" y="716.7521362" fill="#F4EDDF" width="92.6881561" height="47.915062"/>
				<rect x="362.1041565" y="716.7521362" fill="#F4EDDF" width="92.6881561" height="47.915062"/>
			</g>
			
				<linearGradient id="SVGID_18_" gradientUnits="userSpaceOnUse" x1="-1624.1816406" y1="294.8283386" x2="-1624.1816406" y2="290.3771362" gradientTransform="matrix(0 -1 1 0 -123.0748978 -1138.4423828)">
				<stop  offset="0.225275" style="stop-color:#000000;stop-opacity:0"/>
				<stop  offset="1" style="stop-color:#000000"/>
			</linearGradient>
			<rect x="167.3023071" y="184.1978149" opacity="0.5" fill="url(#SVGID_18_)" width="4.4511166" height="603.0828247"/>
			
				<linearGradient id="SVGID_19_" gradientUnits="userSpaceOnUse" x1="-1624.1816406" y1="-261.9475708" x2="-1624.1816406" y2="-266.3987732" gradientTransform="matrix(4.489659e-11 -1 -1 -4.489659e-11 188.6554871 -1138.4423828)">
				<stop  offset="0.225275" style="stop-color:#000000;stop-opacity:0"/>
				<stop  offset="1" style="stop-color:#000000"/>
			</linearGradient>
			<rect x="450.6030884" y="184.1978149" opacity="0.5" fill="url(#SVGID_19_)" width="4.4511166" height="603.0828247"/>
		</g>
		<g>
			
				<rect x="1150.9692383" y="187.7408295" transform="matrix(-1 -4.489266e-11 4.489266e-11 -1 2606.0712891 971.2301025)" fill="#E2A554" width="304.1327515" height="595.7484131"/>
			<g>
				
					<rect x="1352.2749023" y="196.5231171" transform="matrix(-1 -4.489621e-11 4.489621e-11 -1 2795.871582 440.367157)" fill="#F4EDDF" width="91.321785" height="47.3209267"/>
				
					<rect x="1256.3095703" y="196.5231171" transform="matrix(-1 -4.490642e-11 4.490642e-11 -1 2603.940918 440.367157)" fill="#F4EDDF" width="91.321785" height="47.3209267"/>
				
					<rect x="1160.3443604" y="196.5231171" transform="matrix(-1 -4.490642e-11 4.490642e-11 -1 2412.010498 440.367157)" fill="#F4EDDF" width="91.321785" height="47.3209267"/>
			</g>
			<g>
				
					<rect x="1352.2749023" y="248.239975" transform="matrix(-1 -4.489621e-11 4.489621e-11 -1 2795.871582 543.8008423)" fill="#F4EDDF" width="91.321785" height="47.3209267"/>
				
					<rect x="1256.3095703" y="248.239975" transform="matrix(-1 -4.490642e-11 4.490642e-11 -1 2603.940918 543.8008423)" fill="#F4EDDF" width="91.321785" height="47.3209267"/>
				
					<rect x="1160.3443604" y="248.239975" transform="matrix(-1 -4.490642e-11 4.490642e-11 -1 2412.010498 543.8008423)" fill="#F4EDDF" width="91.321785" height="47.3209267"/>
			</g>
			<g>
				
					<rect x="1352.2749023" y="299.9568176" transform="matrix(-1 -4.490642e-11 4.490642e-11 -1 2795.871582 647.2345581)" fill="#F4EDDF" width="91.321785" height="47.3209267"/>
				
					<rect x="1256.3095703" y="299.9568176" transform="matrix(-1 -4.489621e-11 4.489621e-11 -1 2603.940918 647.2345581)" fill="#F4EDDF" width="91.321785" height="47.3209267"/>
				
					<rect x="1160.3443604" y="299.9568176" transform="matrix(-1 -4.490642e-11 4.490642e-11 -1 2412.010498 647.2345581)" fill="#F4EDDF" width="91.321785" height="47.3209267"/>
			</g>
			<g>
				
					<rect x="1352.2749023" y="351.6736755" transform="matrix(-1 -4.490642e-11 4.490642e-11 -1 2795.871582 750.6682739)" fill="#F4EDDF" width="91.321785" height="47.3209267"/>
				
					<rect x="1256.3095703" y="351.6736755" transform="matrix(-1 -4.490642e-11 4.490642e-11 -1 2603.940918 750.6682739)" fill="#F4EDDF" width="91.321785" height="47.3209267"/>
				
					<rect x="1160.3443604" y="351.6736755" transform="matrix(-1 -4.489621e-11 4.489621e-11 -1 2412.010498 750.6682739)" fill="#F4EDDF" width="91.321785" height="47.3209267"/>
			</g>
			<g>
				
					<rect x="1352.2749023" y="403.3905334" transform="matrix(-1 -4.490642e-11 4.490642e-11 -1 2795.871582 854.1019897)" fill="#F4EDDF" width="91.321785" height="47.3209267"/>
				
					<rect x="1256.3095703" y="403.3905334" transform="matrix(-1 -4.490642e-11 4.490642e-11 -1 2603.940918 854.1019897)" fill="#F4EDDF" width="91.321785" height="47.3209267"/>
				
					<rect x="1160.3443604" y="403.3905334" transform="matrix(-1 -4.489621e-11 4.489621e-11 -1 2412.010498 854.1019897)" fill="#F4EDDF" width="91.321785" height="47.3209267"/>
			</g>
			<g>
				
					<rect x="1352.2749023" y="455.1073914" transform="matrix(-1 -4.489621e-11 4.489621e-11 -1 2795.871582 957.5357056)" fill="#F4EDDF" width="91.321785" height="47.3209267"/>
				
					<rect x="1256.3095703" y="455.1073914" transform="matrix(-1 -4.489621e-11 4.489621e-11 -1 2603.940918 957.5357056)" fill="#F4EDDF" width="91.321785" height="47.3209267"/>
				
					<rect x="1160.3443604" y="455.1073914" transform="matrix(-1 -4.489621e-11 4.489621e-11 -1 2412.010498 957.5357056)" fill="#F4EDDF" width="91.321785" height="47.3209267"/>
			</g>
			<g>
				
					<rect x="1352.2749023" y="506.8242493" transform="matrix(-1 -4.489621e-11 4.489621e-11 -1 2795.871582 1060.9694824)" fill="#F4EDDF" width="91.321785" height="47.3209267"/>
				
					<rect x="1256.3095703" y="506.8242493" transform="matrix(-1 -4.489621e-11 4.489621e-11 -1 2603.940918 1060.9694824)" fill="#F4EDDF" width="91.321785" height="47.3209267"/>
				
					<rect x="1160.3443604" y="506.8242493" transform="matrix(-1 -4.489621e-11 4.489621e-11 -1 2412.010498 1060.9694824)" fill="#F4EDDF" width="91.321785" height="47.3209267"/>
			</g>
			<g>
				
					<rect x="1352.2749023" y="558.5411377" transform="matrix(-1 -4.491619e-11 4.491619e-11 -1 2795.871582 1164.4031982)" fill="#F4EDDF" width="91.321785" height="47.3209267"/>
				
					<rect x="1256.3095703" y="558.5411377" transform="matrix(-1 -4.491619e-11 4.491619e-11 -1 2603.940918 1164.4031982)" fill="#F4EDDF" width="91.321785" height="47.3209267"/>
				
					<rect x="1160.3443604" y="558.5411377" transform="matrix(-1 -4.491619e-11 4.491619e-11 -1 2412.010498 1164.4031982)" fill="#F4EDDF" width="91.321785" height="47.3209267"/>
			</g>
			<g>
				
					<rect x="1352.2749023" y="610.2579956" transform="matrix(-1 -4.489621e-11 4.489621e-11 -1 2795.871582 1267.8369141)" fill="#F4EDDF" width="91.321785" height="47.3209267"/>
				
					<rect x="1256.3095703" y="610.2579956" transform="matrix(-1 -4.491619e-11 4.491619e-11 -1 2603.940918 1267.8369141)" fill="#F4EDDF" width="91.321785" height="47.3209267"/>
				
					<rect x="1160.3443604" y="610.2579956" transform="matrix(-1 -4.491619e-11 4.491619e-11 -1 2412.010498 1267.8369141)" fill="#F4EDDF" width="91.321785" height="47.3209267"/>
			</g>
			<g>
				
					<rect x="1352.2749023" y="661.9748535" transform="matrix(-1 -4.487622e-11 4.487622e-11 -1 2795.871582 1371.2706299)" fill="#F4EDDF" width="91.321785" height="47.3209267"/>
				
					<rect x="1256.3095703" y="661.9748535" transform="matrix(-1 -4.487622e-11 4.487622e-11 -1 2603.940918 1371.2706299)" fill="#F4EDDF" width="91.321785" height="47.3209267"/>
				
					<rect x="1160.3443604" y="661.9748535" transform="matrix(-1 -4.487622e-11 4.487622e-11 -1 2412.010498 1371.2706299)" fill="#F4EDDF" width="91.321785" height="47.3209267"/>
			</g>
			<g>
				
					<rect x="1352.2749023" y="713.6917114" transform="matrix(-1 -4.487622e-11 4.487622e-11 -1 2795.871582 1474.7043457)" fill="#F4EDDF" width="91.321785" height="47.3209267"/>
				
					<rect x="1256.3095703" y="713.6917114" transform="matrix(-1 -4.487622e-11 4.487622e-11 -1 2603.940918 1474.7043457)" fill="#F4EDDF" width="91.321785" height="47.3209267"/>
				
					<rect x="1160.3443604" y="713.6917114" transform="matrix(-1 -4.485668e-11 4.485668e-11 -1 2412.010498 1474.7043457)" fill="#F4EDDF" width="91.321785" height="47.3209267"/>
			</g>
			
				<linearGradient id="SVGID_20_" gradientUnits="userSpaceOnUse" x1="-1623.9857178" y1="-1164.3249512" x2="-1623.9857178" y2="-1168.7104492" gradientTransform="matrix(4.489659e-11 -1 -1 -4.489659e-11 274.8858032 -1138.4423828)">
				<stop  offset="0.225275" style="stop-color:#000000;stop-opacity:0"/>
				<stop  offset="1" style="stop-color:#000000"/>
			</linearGradient>
			<rect x="1439.2106934" y="187.7409363" opacity="0.5" fill="url(#SVGID_20_)" width="4.3855" height="595.6047363"/>
			
				<linearGradient id="SVGID_21_" gradientUnits="userSpaceOnUse" x1="-1623.9857178" y1="1201.3164063" x2="-1623.9857178" y2="1196.9307861" gradientTransform="matrix(0 -1 1 0 -36.844574 -1138.4423828)">
				<stop  offset="0.225275" style="stop-color:#000000;stop-opacity:0"/>
				<stop  offset="1" style="stop-color:#000000"/>
			</linearGradient>
			<rect x="1160.0863037" y="187.7409363" opacity="0.5" fill="url(#SVGID_21_)" width="4.3855" height="595.6047363"/>
		</g>
		<g>
			<rect x="1454.8170166" y="187.7408295" fill="#E2A554" width="304.1327515" height="595.7484131"/>
			<g>
				<rect x="1466.3223877" y="196.5231171" fill="#F4EDDF" width="91.321785" height="47.3209267"/>
				<rect x="1562.2875977" y="196.5231171" fill="#F4EDDF" width="91.321785" height="47.3209267"/>
				<rect x="1658.2529297" y="196.5231171" fill="#F4EDDF" width="91.321785" height="47.3209267"/>
			</g>
			<g>
				<rect x="1466.3223877" y="248.239975" fill="#F4EDDF" width="91.321785" height="47.3209267"/>
				<rect x="1562.2875977" y="248.239975" fill="#F4EDDF" width="91.321785" height="47.3209267"/>
				<rect x="1658.2529297" y="248.239975" fill="#F4EDDF" width="91.321785" height="47.3209267"/>
			</g>
			<g>
				<rect x="1466.3223877" y="299.9568176" fill="#F4EDDF" width="91.321785" height="47.3209267"/>
				<rect x="1562.2875977" y="299.9568176" fill="#F4EDDF" width="91.321785" height="47.3209267"/>
				<rect x="1658.2529297" y="299.9568176" fill="#F4EDDF" width="91.321785" height="47.3209267"/>
			</g>
			<g>
				<rect x="1466.3223877" y="351.6736755" fill="#F4EDDF" width="91.321785" height="47.3209267"/>
				<rect x="1562.2875977" y="351.6736755" fill="#F4EDDF" width="91.321785" height="47.3209267"/>
				<rect x="1658.2529297" y="351.6736755" fill="#F4EDDF" width="91.321785" height="47.3209267"/>
			</g>
			<g>
				<rect x="1466.3223877" y="403.3905334" fill="#F4EDDF" width="91.321785" height="47.3209267"/>
				<rect x="1562.2875977" y="403.3905334" fill="#F4EDDF" width="91.321785" height="47.3209267"/>
				<rect x="1658.2529297" y="403.3905334" fill="#F4EDDF" width="91.321785" height="47.3209267"/>
			</g>
			<g>
				<rect x="1466.3223877" y="455.1073914" fill="#F4EDDF" width="91.321785" height="47.3209267"/>
				<rect x="1562.2875977" y="455.1073914" fill="#F4EDDF" width="91.321785" height="47.3209267"/>
				<rect x="1658.2529297" y="455.1073914" fill="#F4EDDF" width="91.321785" height="47.3209267"/>
			</g>
			<g>
				<rect x="1466.3223877" y="506.8242493" fill="#F4EDDF" width="91.321785" height="47.3209267"/>
				<rect x="1562.2875977" y="506.8242493" fill="#F4EDDF" width="91.321785" height="47.3209267"/>
				<rect x="1658.2529297" y="506.8242493" fill="#F4EDDF" width="91.321785" height="47.3209267"/>
			</g>
			<g>
				<rect x="1466.3223877" y="558.5411377" fill="#F4EDDF" width="91.321785" height="47.3209267"/>
				<rect x="1562.2875977" y="558.5411377" fill="#F4EDDF" width="91.321785" height="47.3209267"/>
				<rect x="1658.2529297" y="558.5411377" fill="#F4EDDF" width="91.321785" height="47.3209267"/>
			</g>
			<g>
				<rect x="1466.3223877" y="610.2579956" fill="#F4EDDF" width="91.321785" height="47.3209267"/>
				<rect x="1562.2875977" y="610.2579956" fill="#F4EDDF" width="91.321785" height="47.3209267"/>
				<rect x="1658.2529297" y="610.2579956" fill="#F4EDDF" width="91.321785" height="47.3209267"/>
			</g>
			<g>
				<rect x="1466.3223877" y="661.9748535" fill="#F4EDDF" width="91.321785" height="47.3209267"/>
				<rect x="1562.2875977" y="661.9748535" fill="#F4EDDF" width="91.321785" height="47.3209267"/>
				<rect x="1658.2529297" y="661.9748535" fill="#F4EDDF" width="91.321785" height="47.3209267"/>
			</g>
			<g>
				<rect x="1466.3223877" y="713.6917114" fill="#F4EDDF" width="91.321785" height="47.3209267"/>
				<rect x="1562.2875977" y="713.6917114" fill="#F4EDDF" width="91.321785" height="47.3209267"/>
				<rect x="1658.2529297" y="713.6917114" fill="#F4EDDF" width="91.321785" height="47.3209267"/>
			</g>
			
				<linearGradient id="SVGID_22_" gradientUnits="userSpaceOnUse" x1="-1623.9857178" y1="1328.9245605" x2="-1623.9857178" y2="1324.5390625" gradientTransform="matrix(0 -1 1 0 141.7836609 -1138.4423828)">
				<stop  offset="0.225275" style="stop-color:#000000;stop-opacity:0"/>
				<stop  offset="1" style="stop-color:#000000"/>
			</linearGradient>
			<rect x="1466.3227539" y="187.7409363" opacity="0.5" fill="url(#SVGID_22_)" width="4.3855" height="595.6047363"/>
			
				<linearGradient id="SVGID_23_" gradientUnits="userSpaceOnUse" x1="-1623.9857178" y1="-1291.9332275" x2="-1623.9857178" y2="-1296.3187256" gradientTransform="matrix(4.489659e-11 -1 -1 -4.489659e-11 453.5140381 -1138.4423828)">
				<stop  offset="0.225275" style="stop-color:#000000;stop-opacity:0"/>
				<stop  offset="1" style="stop-color:#000000"/>
			</linearGradient>
			<rect x="1745.4472656" y="187.7409363" opacity="0.5" fill="url(#SVGID_23_)" width="4.3855" height="595.6047363"/>
		</g>
		
			<rect x="1178.614624" y="783.3456421" transform="matrix(-1 -4.489576e-11 4.489576e-11 -1 2928.2583008 1570.7717285)" fill="#7F5940" width="571.0289917" height="4.0804009"/>
		
			<rect x="1222.2703857" y="184.1977081" transform="matrix(-1 -4.489532e-11 4.489532e-11 -1 2972.6728516 372.3322144)" fill="#7F5940" width="528.132019" height="3.936799"/>
		
			<linearGradient id="SVGID_24_" gradientUnits="userSpaceOnUse" x1="-1624.1815186" y1="1840.4827881" x2="-1624.1815186" y2="1824.5606689" gradientTransform="matrix(0 -1 1 0 -600.9315186 -1138.4423828)">
			<stop  offset="0.225275" style="stop-color:#000000;stop-opacity:0"/>
			<stop  offset="1" style="stop-color:#000000"/>
		</linearGradient>
		<rect x="1223.6293945" y="184.1977081" opacity="0.5" fill="url(#SVGID_24_)" width="15.9218349" height="603.0828247"/>
		<g>
			
				<rect x="915.5769653" y="184.1977081" transform="matrix(-1 -4.489710e-11 4.489710e-11 -1 2139.8371582 971.6237793)" fill="#E2A554" width="308.6832581" height="603.2283325"/>
			<g>
				
					<rect x="1119.8945313" y="193.0902557" transform="matrix(-1 -4.489177e-11 4.489177e-11 -1 2332.4772949 434.0955811)" fill="#F4EDDF" width="92.6881561" height="47.915062"/>
				
					<rect x="1022.4934082" y="193.0902557" transform="matrix(-1 -4.489177e-11 4.489177e-11 -1 2137.6750488 434.0955811)" fill="#F4EDDF" width="92.6881561" height="47.915062"/>
				
					<rect x="925.0922852" y="193.0902557" transform="matrix(-1 -4.489177e-11 4.489177e-11 -1 1942.8726807 434.0955811)" fill="#F4EDDF" width="92.6881561" height="47.915062"/>
			</g>
			<g>
				
					<rect x="1119.8945313" y="245.4564514" transform="matrix(-1 -4.489177e-11 4.489177e-11 -1 2332.4772949 538.8279419)" fill="#F4EDDF" width="92.6881561" height="47.915062"/>
				
					<rect x="1022.4934082" y="245.4564514" transform="matrix(-1 -4.489177e-11 4.489177e-11 -1 2137.6750488 538.8279419)" fill="#F4EDDF" width="92.6881561" height="47.915062"/>
				
					<rect x="925.0922852" y="245.4564514" transform="matrix(-1 -4.489177e-11 4.489177e-11 -1 1942.8726807 538.8279419)" fill="#F4EDDF" width="92.6881561" height="47.915062"/>
			</g>
			<g>
				
					<rect x="1119.8945313" y="297.8226318" transform="matrix(-1 -4.489177e-11 4.489177e-11 -1 2332.4772949 643.5603638)" fill="#F4EDDF" width="92.6881561" height="47.915062"/>
				
					<rect x="1022.4934082" y="297.8226318" transform="matrix(-1 -4.489177e-11 4.489177e-11 -1 2137.6750488 643.5603638)" fill="#F4EDDF" width="92.6881561" height="47.915062"/>
				
					<rect x="925.0922852" y="297.8226318" transform="matrix(-1 -4.489177e-11 4.489177e-11 -1 1942.8726807 643.5603638)" fill="#F4EDDF" width="92.6881561" height="47.915062"/>
			</g>
			<g>
				
					<rect x="1119.8945313" y="350.1888428" transform="matrix(-1 -4.489177e-11 4.489177e-11 -1 2332.4772949 748.2927246)" fill="#F4EDDF" width="92.6881561" height="47.915062"/>
				
					<rect x="1022.4934082" y="350.1888428" transform="matrix(-1 -4.489177e-11 4.489177e-11 -1 2137.6750488 748.2927246)" fill="#F4EDDF" width="92.6881561" height="47.915062"/>
				
					<rect x="925.0922852" y="350.1888428" transform="matrix(-1 -4.489177e-11 4.489177e-11 -1 1942.8726807 748.2927246)" fill="#F4EDDF" width="92.6881561" height="47.915062"/>
			</g>
			<g>
				
					<rect x="1119.8945313" y="402.5550232" transform="matrix(-1 -4.489177e-11 4.489177e-11 -1 2332.4772949 853.0250854)" fill="#F4EDDF" width="92.6881561" height="47.915062"/>
				
					<rect x="1022.4934082" y="402.5550232" transform="matrix(-1 -4.489177e-11 4.489177e-11 -1 2137.6750488 853.0250854)" fill="#F4EDDF" width="92.6881561" height="47.915062"/>
				
					<rect x="925.0922852" y="402.5550232" transform="matrix(-1 -4.489177e-11 4.489177e-11 -1 1942.8726807 853.0250854)" fill="#F4EDDF" width="92.6881561" height="47.915062"/>
			</g>
			<g>
				
					<rect x="1119.8945313" y="454.9212036" transform="matrix(-1 -4.488200e-11 4.488200e-11 -1 2332.4772949 957.7574463)" fill="#F4EDDF" width="92.6881561" height="47.915062"/>
				
					<rect x="1022.4934082" y="454.9212036" transform="matrix(-1 -4.488200e-11 4.488200e-11 -1 2137.6750488 957.7574463)" fill="#F4EDDF" width="92.6881561" height="47.915062"/>
				
					<rect x="925.0922852" y="454.9212036" transform="matrix(-1 -4.486246e-11 4.486246e-11 -1 1942.8726807 957.7574463)" fill="#F4EDDF" width="92.6881561" height="47.915062"/>
			</g>
			<g>
				
					<rect x="1119.8945313" y="507.287384" transform="matrix(-1 -4.488200e-11 4.488200e-11 -1 2332.4772949 1062.4898682)" fill="#F4EDDF" width="92.6881561" height="47.915062"/>
				
					<rect x="1022.4934082" y="507.287384" transform="matrix(-1 -4.488200e-11 4.488200e-11 -1 2137.6750488 1062.4898682)" fill="#F4EDDF" width="92.6881561" height="47.915062"/>
				
					<rect x="925.0922852" y="507.287384" transform="matrix(-1 -4.488200e-11 4.488200e-11 -1 1942.8726807 1062.4898682)" fill="#F4EDDF" width="92.6881561" height="47.915062"/>
			</g>
			<g>
				
					<rect x="1119.8945313" y="559.6535645" transform="matrix(-1 -4.492152e-11 4.492152e-11 -1 2332.4772949 1167.22229)" fill="#F4EDDF" width="92.6881561" height="47.915062"/>
				
					<rect x="1022.4934082" y="559.6535645" transform="matrix(-1 -4.492152e-11 4.492152e-11 -1 2137.6750488 1167.22229)" fill="#F4EDDF" width="92.6881561" height="47.915062"/>
				
					<rect x="925.0922852" y="559.6535645" transform="matrix(-1 -4.490154e-11 4.490154e-11 -1 1942.8726807 1167.22229)" fill="#F4EDDF" width="92.6881561" height="47.915062"/>
			</g>
			<g>
				
					<rect x="1119.8945313" y="612.0197754" transform="matrix(-1 -4.492152e-11 4.492152e-11 -1 2332.4772949 1271.9545898)" fill="#F4EDDF" width="92.6881561" height="47.915062"/>
				
					<rect x="1022.4934082" y="612.0197754" transform="matrix(-1 -4.492152e-11 4.492152e-11 -1 2137.6750488 1271.9545898)" fill="#F4EDDF" width="92.6881561" height="47.915062"/>
				
					<rect x="925.0922852" y="612.0197754" transform="matrix(-1 -4.492152e-11 4.492152e-11 -1 1942.8726807 1271.9545898)" fill="#F4EDDF" width="92.6881561" height="47.915062"/>
			</g>
			<g>
				
					<rect x="1119.8945313" y="664.3859863" transform="matrix(-1 -4.488200e-11 4.488200e-11 -1 2332.4772949 1376.6870117)" fill="#F4EDDF" width="92.6881561" height="47.915062"/>
				
					<rect x="1022.4934082" y="664.3859863" transform="matrix(-1 -4.488200e-11 4.488200e-11 -1 2137.6750488 1376.6870117)" fill="#F4EDDF" width="92.6881561" height="47.915062"/>
				
					<rect x="925.0922852" y="664.3859863" transform="matrix(-1 -4.486246e-11 4.486246e-11 -1 1942.8726807 1376.6870117)" fill="#F4EDDF" width="92.6881561" height="47.915062"/>
			</g>
			<g>
				
					<rect x="1119.8945313" y="716.7521362" transform="matrix(-1 -4.492152e-11 4.492152e-11 -1 2332.4772949 1481.4193115)" fill="#F4EDDF" width="92.6881561" height="47.915062"/>
				
					<rect x="1022.4934082" y="716.7521362" transform="matrix(-1 -4.492152e-11 4.492152e-11 -1 2137.6750488 1481.4193115)" fill="#F4EDDF" width="92.6881561" height="47.915062"/>
				
					<rect x="925.0922852" y="716.7521362" transform="matrix(-1 -4.490154e-11 4.490154e-11 -1 1942.8726807 1481.4193115)" fill="#F4EDDF" width="92.6881561" height="47.915062"/>
			</g>
			
				<linearGradient id="SVGID_25_" gradientUnits="userSpaceOnUse" x1="-1624.1816406" y1="-933.2453613" x2="-1624.1816406" y2="-937.6965332" gradientTransform="matrix(4.489659e-11 -1 -1 -4.489659e-11 274.8858032 -1138.4423828)">
				<stop  offset="0.225275" style="stop-color:#000000;stop-opacity:0"/>
				<stop  offset="1" style="stop-color:#000000"/>
			</linearGradient>
			<rect x="1208.1311035" y="184.1978149" opacity="0.5" fill="url(#SVGID_25_)" width="4.4511166" height="603.0828247"/>
			
				<linearGradient id="SVGID_26_" gradientUnits="userSpaceOnUse" x1="-1624.1816406" y1="966.1260986" x2="-1624.1816406" y2="961.6749268" gradientTransform="matrix(0 -1 1 0 -36.844574 -1138.4423828)">
				<stop  offset="0.225275" style="stop-color:#000000;stop-opacity:0"/>
				<stop  offset="1" style="stop-color:#000000"/>
			</linearGradient>
			<rect x="924.8303833" y="184.1978149" opacity="0.5" fill="url(#SVGID_26_)" width="4.4511166" height="603.0828247"/>
		</g>
	</g>
	<rect x="-303.6279297" y="155.9213867" clip-path="url(#SVGID_2_)" fill="#7F5940" width="1987.1405029" height="28.276329"/>
	
		<linearGradient id="SVGID_27_" gradientUnits="userSpaceOnUse" x1="-637.835022" y1="1647.8474121" x2="-637.835022" y2="1639.8863525" gradientTransform="matrix(-1 0 0 1 52.1072426 -1455.6885986)">
		<stop  offset="0.225275" style="stop-color:#000000;stop-opacity:0"/>
		<stop  offset="1" style="stop-color:#000000"/>
	</linearGradient>
	
		<rect x="-303.627655" y="184.1978912" opacity="0.5" clip-path="url(#SVGID_2_)" fill="url(#SVGID_27_)" width="1987.1398926" height="7.9609179"/>
	<g clip-path="url(#SVGID_2_)">
		
			<linearGradient id="SVGID_28_" gradientUnits="userSpaceOnUse" x1="-637.8349609" y1="-837.3510742" x2="-637.8349609" y2="-840.543457" gradientTransform="matrix(-1 0 0 -1 52.1072426 -53.1770401)">
			<stop  offset="0.225275" style="stop-color:#000000;stop-opacity:0"/>
			<stop  offset="1" style="stop-color:#000000"/>
		</linearGradient>
		<rect x="-215.1771851" y="784.1740112" opacity="0.5" fill="url(#SVGID_28_)" width="1810.2387695" height="3.192328"/>
		
			<linearGradient id="SVGID_29_" gradientUnits="userSpaceOnUse" x1="-637.8348389" y1="-934.8054199" x2="-637.8348389" y2="-937.9978027" gradientTransform="matrix(-1 0 0 0.9998034 52.1078262 1736.399292)">
			<stop  offset="0.225275" style="stop-color:#000000;stop-opacity:0"/>
			<stop  offset="1" style="stop-color:#000000"/>
		</linearGradient>
		<rect x="-215.1767273" y="798.5858765" opacity="0.5" fill="url(#SVGID_29_)" width="1810.2387695" height="3.1917005"/>
		<rect x="-215.1774597" y="787.3664551" fill="#7F5940" width="1810.2392578" height="11.3388071"/>
	</g>
	<g clip-path="url(#SVGID_2_)">
		<g>
			<g>
				<g>
					<rect x="-51.4322701" y="121.1068649" fill="#D7BA8C" width="272.585907" height="13.0051928"/>
					<rect x="-51.4322701" y="110.9198227" fill="#D7BA8C" width="272.585907" height="9.6014814"/>
					<rect x="-51.4322701" y="97.2871552" fill="#D7BA8C" width="272.585907" height="13.0051928"/>
					<rect x="-51.4322701" y="87.1001129" fill="#D7BA8C" width="272.585907" height="9.6014814"/>
					<rect x="-51.4322701" y="73.4674454" fill="#D7BA8C" width="272.585907" height="13.0051928"/>
					<rect x="-51.4322701" y="63.2804031" fill="#D7BA8C" width="272.585907" height="9.6014814"/>
					<rect x="-51.4322701" y="49.6477394" fill="#D7BA8C" width="272.585907" height="13.0051928"/>
					<rect x="-51.4322701" y="39.4606934" fill="#D7BA8C" width="272.585907" height="9.6014814"/>
				</g>
			</g>
			
				<linearGradient id="SVGID_30_" gradientUnits="userSpaceOnUse" x1="-1225.2287598" y1="552.3099365" x2="-1225.2287598" y2="532.0397949" gradientTransform="matrix(4.489659e-11 -1 -1 -4.489659e-11 752.7424316 -1138.4423828)">
				<stop  offset="0.225275" style="stop-color:#000000;stop-opacity:0"/>
				<stop  offset="1" style="stop-color:#000000"/>
			</linearGradient>
			<rect x="200.4324799" y="39.4606934" opacity="0.5" fill="url(#SVGID_30_)" width="20.2698669" height="94.6513672"/>
			
				<linearGradient id="SVGID_31_" gradientUnits="userSpaceOnUse" x1="451.6350708" y1="2086.2531738" x2="451.6350708" y2="2065.9831543" gradientTransform="matrix(-1 0 0 1 540.1422729 -2026.4705811)">
				<stop  offset="0.225275" style="stop-color:#000000;stop-opacity:0"/>
				<stop  offset="1" style="stop-color:#000000"/>
			</linearGradient>
			<rect x="-44.1392403" y="39.5127678" opacity="0.5" fill="url(#SVGID_31_)" width="265.2929382" height="20.2698669"/>
			
				<linearGradient id="SVGID_32_" gradientUnits="userSpaceOnUse" x1="235.7700958" y1="-981.5593262" x2="235.7700958" y2="-1001.8295288" gradientTransform="matrix(1 0 0 -1 -148.2628784 -867.973877)">
				<stop  offset="0.225275" style="stop-color:#000000;stop-opacity:0"/>
				<stop  offset="1" style="stop-color:#000000"/>
			</linearGradient>
			<rect x="-45.1392403" y="113.5854645" opacity="0.5" fill="url(#SVGID_32_)" width="265.2929382" height="20.2698669"/>
			<rect x="220.1409454" y="27.1094627" fill="#7F5940" width="22.9265766" height="119.3538284"/>
			
				<linearGradient id="SVGID_33_" gradientUnits="userSpaceOnUse" x1="1900.6568604" y1="624.9450073" x2="1900.6568604" y2="604.6748047" gradientTransform="matrix(-4.489659e-11 1 1 4.489659e-11 -649.3775024 -1813.8704834)">
				<stop  offset="0.225275" style="stop-color:#000000;stop-opacity:0"/>
				<stop  offset="1" style="stop-color:#000000"/>
			</linearGradient>
			<rect x="-44.7023506" y="39.4606934" opacity="0.5" fill="url(#SVGID_33_)" width="20.2698669" height="94.6513672"/>
			
				<rect x="-67.0675125" y="27.1094627" transform="matrix(-1 -1.224647e-16 1.224647e-16 -1 -111.2084579 173.5727539)" fill="#7F5940" width="22.9265766" height="119.3538284"/>
			
				<rect x="76.5367126" y="-126.4947662" transform="matrix(6.123234e-17 -1 1 6.123234e-17 59.4272499 116.5727539)" fill="#7F5940" width="22.9265766" height="310.1350403"/>
			
				<rect x="76.5367126" y="-10.6042271" transform="matrix(6.123234e-17 -1 1 6.123234e-17 -56.4632874 232.4632874)" fill="#7F5940" width="22.9265766" height="310.1350403"/>
		</g>
		<g>
			<g>
				<g>
					<rect x="254.5677338" y="121.1068649" fill="#D7BA8C" width="272.585907" height="13.0051928"/>
					<rect x="254.5677338" y="110.9198227" fill="#D7BA8C" width="272.585907" height="9.6014814"/>
					<rect x="254.5677338" y="97.2871552" fill="#D7BA8C" width="272.585907" height="13.0051928"/>
					<rect x="254.5677338" y="87.1001129" fill="#D7BA8C" width="272.585907" height="9.6014814"/>
					<rect x="254.5677338" y="73.4674454" fill="#D7BA8C" width="272.585907" height="13.0051928"/>
					<rect x="254.5677338" y="63.2804031" fill="#D7BA8C" width="272.585907" height="9.6014814"/>
					<rect x="254.5677338" y="49.6477394" fill="#D7BA8C" width="272.585907" height="13.0051928"/>
					<rect x="254.5677338" y="39.4606934" fill="#D7BA8C" width="272.585907" height="9.6014814"/>
				</g>
			</g>
			
				<linearGradient id="SVGID_34_" gradientUnits="userSpaceOnUse" x1="-1225.2287598" y1="246.309967" x2="-1225.2287598" y2="226.0397644" gradientTransform="matrix(4.489659e-11 -1 -1 -4.489659e-11 752.7424316 -1138.4423828)">
				<stop  offset="0.225275" style="stop-color:#000000;stop-opacity:0"/>
				<stop  offset="1" style="stop-color:#000000"/>
			</linearGradient>
			<rect x="506.4324951" y="39.4606934" opacity="0.5" fill="url(#SVGID_34_)" width="20.2698669" height="94.6513672"/>
			
				<linearGradient id="SVGID_35_" gradientUnits="userSpaceOnUse" x1="145.6350555" y1="2086.2531738" x2="145.6350555" y2="2065.9831543" gradientTransform="matrix(-1 0 0 1 540.1422729 -2026.4705811)">
				<stop  offset="0.225275" style="stop-color:#000000;stop-opacity:0"/>
				<stop  offset="1" style="stop-color:#000000"/>
			</linearGradient>
			<rect x="261.8607483" y="39.5127678" opacity="0.5" fill="url(#SVGID_35_)" width="265.2929382" height="20.2698669"/>
			
				<linearGradient id="SVGID_36_" gradientUnits="userSpaceOnUse" x1="541.7700806" y1="-981.5593262" x2="541.7700806" y2="-1001.8295288" gradientTransform="matrix(1 0 0 -1 -148.2628784 -867.973877)">
				<stop  offset="0.225275" style="stop-color:#000000;stop-opacity:0"/>
				<stop  offset="1" style="stop-color:#000000"/>
			</linearGradient>
			<rect x="260.8607483" y="113.5854645" opacity="0.5" fill="url(#SVGID_36_)" width="265.2929382" height="20.2698669"/>
			<rect x="526.1409302" y="27.1094627" fill="#7F5940" width="22.9265766" height="119.3538284"/>
			
				<linearGradient id="SVGID_37_" gradientUnits="userSpaceOnUse" x1="1900.6568604" y1="930.9450073" x2="1900.6568604" y2="910.6748047" gradientTransform="matrix(-4.489659e-11 1 1 4.489659e-11 -649.3775024 -1813.8704834)">
				<stop  offset="0.225275" style="stop-color:#000000;stop-opacity:0"/>
				<stop  offset="1" style="stop-color:#000000"/>
			</linearGradient>
			<rect x="261.2976379" y="39.4606934" opacity="0.5" fill="url(#SVGID_37_)" width="20.2698669" height="94.6513672"/>
			
				<rect x="238.9324799" y="27.1094627" transform="matrix(-1 -1.224647e-16 1.224647e-16 -1 500.7915344 173.5727539)" fill="#7F5940" width="22.9265766" height="119.3538284"/>
			
				<rect x="382.5367126" y="-126.4947662" transform="matrix(6.123234e-17 -1 1 6.123234e-17 365.4272461 422.5727539)" fill="#7F5940" width="22.9265766" height="310.1350403"/>
			
				<rect x="382.5367126" y="-10.6042271" transform="matrix(6.123234e-17 -1 1 6.123234e-17 249.5367126 538.4633179)" fill="#7F5940" width="22.9265766" height="310.1350403"/>
		</g>
		<g>
			<g>
				<g>
					<rect x="560.567749" y="121.1068649" fill="#D7BA8C" width="272.585907" height="13.0051928"/>
					<rect x="560.567749" y="110.9198227" fill="#D7BA8C" width="272.585907" height="9.6014814"/>
					<rect x="560.567749" y="97.2871552" fill="#D7BA8C" width="272.585907" height="13.0051928"/>
					<rect x="560.567749" y="87.1001129" fill="#D7BA8C" width="272.585907" height="9.6014814"/>
					<rect x="560.567749" y="73.4674454" fill="#D7BA8C" width="272.585907" height="13.0051928"/>
					<rect x="560.567749" y="63.2804031" fill="#D7BA8C" width="272.585907" height="9.6014814"/>
					<rect x="560.567749" y="49.6477394" fill="#D7BA8C" width="272.585907" height="13.0051928"/>
					<rect x="560.567749" y="39.4606934" fill="#D7BA8C" width="272.585907" height="9.6014814"/>
				</g>
			</g>
			
				<linearGradient id="SVGID_38_" gradientUnits="userSpaceOnUse" x1="-1225.2287598" y1="-59.690033" x2="-1225.2287598" y2="-79.960228" gradientTransform="matrix(4.489659e-11 -1 -1 -4.489659e-11 752.7424316 -1138.4423828)">
				<stop  offset="0.225275" style="stop-color:#000000;stop-opacity:0"/>
				<stop  offset="1" style="stop-color:#000000"/>
			</linearGradient>
			<rect x="812.4324951" y="39.4606934" opacity="0.5" fill="url(#SVGID_38_)" width="20.2698669" height="94.6513672"/>
			
				<linearGradient id="SVGID_39_" gradientUnits="userSpaceOnUse" x1="-160.3649445" y1="2086.2531738" x2="-160.3649445" y2="2065.9831543" gradientTransform="matrix(-1 0 0 1 540.1422729 -2026.4705811)">
				<stop  offset="0.225275" style="stop-color:#000000;stop-opacity:0"/>
				<stop  offset="1" style="stop-color:#000000"/>
			</linearGradient>
			<rect x="567.8607788" y="39.5127678" opacity="0.5" fill="url(#SVGID_39_)" width="265.2929382" height="20.2698669"/>
			
				<linearGradient id="SVGID_40_" gradientUnits="userSpaceOnUse" x1="847.7700806" y1="-981.5593262" x2="847.7700806" y2="-1001.8295288" gradientTransform="matrix(1 0 0 -1 -148.2628784 -867.973877)">
				<stop  offset="0.225275" style="stop-color:#000000;stop-opacity:0"/>
				<stop  offset="1" style="stop-color:#000000"/>
			</linearGradient>
			<rect x="566.8607788" y="113.5854645" opacity="0.5" fill="url(#SVGID_40_)" width="265.2929382" height="20.2698669"/>
			<rect x="832.1409302" y="27.1094627" fill="#7F5940" width="22.9265766" height="119.3538284"/>
			
				<linearGradient id="SVGID_41_" gradientUnits="userSpaceOnUse" x1="1900.6568604" y1="1236.9449463" x2="1900.6568604" y2="1216.6748047" gradientTransform="matrix(-4.489659e-11 1 1 4.489659e-11 -649.3775024 -1813.8704834)">
				<stop  offset="0.225275" style="stop-color:#000000;stop-opacity:0"/>
				<stop  offset="1" style="stop-color:#000000"/>
			</linearGradient>
			<rect x="567.2976685" y="39.4606934" opacity="0.5" fill="url(#SVGID_41_)" width="20.2698669" height="94.6513672"/>
			
				<rect x="544.9324951" y="27.1094627" transform="matrix(-1 -1.224647e-16 1.224647e-16 -1 1112.7915039 173.5727539)" fill="#7F5940" width="22.9265766" height="119.3538284"/>
			
				<rect x="688.5366821" y="-126.4947662" transform="matrix(6.123234e-17 -1 1 6.123234e-17 671.4272461 728.5727539)" fill="#7F5940" width="22.9265766" height="310.1350403"/>
			
				<rect x="688.5366821" y="-10.6042271" transform="matrix(6.123234e-17 -1 1 6.123234e-17 555.5366821 844.4633179)" fill="#7F5940" width="22.9265766" height="310.1350403"/>
		</g>
		<g>
			<g>
				<g>
					<rect x="866.567749" y="121.1068649" fill="#D7BA8C" width="272.585907" height="13.0051928"/>
					<rect x="866.567749" y="110.9198227" fill="#D7BA8C" width="272.585907" height="9.6014814"/>
					<rect x="866.567749" y="97.2871552" fill="#D7BA8C" width="272.585907" height="13.0051928"/>
					<rect x="866.567749" y="87.1001129" fill="#D7BA8C" width="272.585907" height="9.6014814"/>
					<rect x="866.567749" y="73.4674454" fill="#D7BA8C" width="272.585907" height="13.0051928"/>
					<rect x="866.567749" y="63.2804031" fill="#D7BA8C" width="272.585907" height="9.6014814"/>
					<rect x="866.567749" y="49.6477394" fill="#D7BA8C" width="272.585907" height="13.0051928"/>
					<rect x="866.567749" y="39.4606934" fill="#D7BA8C" width="272.585907" height="9.6014814"/>
				</g>
			</g>
			
				<linearGradient id="SVGID_42_" gradientUnits="userSpaceOnUse" x1="-1225.2287598" y1="-365.690033" x2="-1225.2287598" y2="-385.9602356" gradientTransform="matrix(4.489659e-11 -1 -1 -4.489659e-11 752.7424316 -1138.4423828)">
				<stop  offset="0.225275" style="stop-color:#000000;stop-opacity:0"/>
				<stop  offset="1" style="stop-color:#000000"/>
			</linearGradient>
			<rect x="1118.4324951" y="39.4606934" opacity="0.5" fill="url(#SVGID_42_)" width="20.2698669" height="94.6513672"/>
			
				<linearGradient id="SVGID_43_" gradientUnits="userSpaceOnUse" x1="-466.3649292" y1="2086.2531738" x2="-466.3649292" y2="2065.9831543" gradientTransform="matrix(-1 0 0 1 540.1422729 -2026.4705811)">
				<stop  offset="0.225275" style="stop-color:#000000;stop-opacity:0"/>
				<stop  offset="1" style="stop-color:#000000"/>
			</linearGradient>
			<rect x="873.8607788" y="39.5127678" opacity="0.5" fill="url(#SVGID_43_)" width="265.2929382" height="20.2698669"/>
			
				<linearGradient id="SVGID_44_" gradientUnits="userSpaceOnUse" x1="1153.7701416" y1="-981.5593262" x2="1153.7701416" y2="-1001.8295288" gradientTransform="matrix(1 0 0 -1 -148.2628784 -867.973877)">
				<stop  offset="0.225275" style="stop-color:#000000;stop-opacity:0"/>
				<stop  offset="1" style="stop-color:#000000"/>
			</linearGradient>
			<rect x="872.8607788" y="113.5854645" opacity="0.5" fill="url(#SVGID_44_)" width="265.2929382" height="20.2698669"/>
			<rect x="1138.1409912" y="27.1094627" fill="#7F5940" width="22.9265766" height="119.3538284"/>
			
				<linearGradient id="SVGID_45_" gradientUnits="userSpaceOnUse" x1="1900.6568604" y1="1542.9449463" x2="1900.6568604" y2="1522.6748047" gradientTransform="matrix(-4.489659e-11 1 1 4.489659e-11 -649.3775024 -1813.8704834)">
				<stop  offset="0.225275" style="stop-color:#000000;stop-opacity:0"/>
				<stop  offset="1" style="stop-color:#000000"/>
			</linearGradient>
			<rect x="873.2976685" y="39.4606934" opacity="0.5" fill="url(#SVGID_45_)" width="20.2698669" height="94.6513672"/>
			
				<rect x="850.9324951" y="27.1094627" transform="matrix(-1 -1.224647e-16 1.224647e-16 -1 1724.7915039 173.5727539)" fill="#7F5940" width="22.9265766" height="119.3538284"/>
			
				<rect x="994.5366821" y="-126.4947662" transform="matrix(6.123234e-17 -1 1 6.123234e-17 977.4272461 1034.5727539)" fill="#7F5940" width="22.9265766" height="310.1350403"/>
			
				<rect x="994.5366821" y="-10.6042271" transform="matrix(6.123234e-17 -1 1 6.123234e-17 861.5366821 1150.4632568)" fill="#7F5940" width="22.9265766" height="310.1350403"/>
		</g>
		<g>
			<g>
				<g>
					<rect x="1172.567749" y="121.1068649" fill="#D7BA8C" width="272.585907" height="13.0051928"/>
					<rect x="1172.567749" y="110.9198227" fill="#D7BA8C" width="272.585907" height="9.6014814"/>
					<rect x="1172.567749" y="97.2871552" fill="#D7BA8C" width="272.585907" height="13.0051928"/>
					<rect x="1172.567749" y="87.1001129" fill="#D7BA8C" width="272.585907" height="9.6014814"/>
					<rect x="1172.567749" y="73.4674454" fill="#D7BA8C" width="272.585907" height="13.0051928"/>
					<rect x="1172.567749" y="63.2804031" fill="#D7BA8C" width="272.585907" height="9.6014814"/>
					<rect x="1172.567749" y="49.6477394" fill="#D7BA8C" width="272.585907" height="13.0051928"/>
					<rect x="1172.567749" y="39.4606934" fill="#D7BA8C" width="272.585907" height="9.6014814"/>
				</g>
			</g>
			
				<linearGradient id="SVGID_46_" gradientUnits="userSpaceOnUse" x1="-1225.2287598" y1="-671.6900635" x2="-1225.2287598" y2="-691.9602051" gradientTransform="matrix(4.489659e-11 -1 -1 -4.489659e-11 752.7424316 -1138.4423828)">
				<stop  offset="0.225275" style="stop-color:#000000;stop-opacity:0"/>
				<stop  offset="1" style="stop-color:#000000"/>
			</linearGradient>
			<rect x="1424.4324951" y="39.4606934" opacity="0.5" fill="url(#SVGID_46_)" width="20.2698669" height="94.6513672"/>
			
				<linearGradient id="SVGID_47_" gradientUnits="userSpaceOnUse" x1="-772.3649292" y1="2086.2531738" x2="-772.3649292" y2="2065.9831543" gradientTransform="matrix(-1 0 0 1 540.1422729 -2026.4705811)">
				<stop  offset="0.225275" style="stop-color:#000000;stop-opacity:0"/>
				<stop  offset="1" style="stop-color:#000000"/>
			</linearGradient>
			<rect x="1179.8607178" y="39.5127678" opacity="0.5" fill="url(#SVGID_47_)" width="265.2929382" height="20.2698669"/>
			
				<linearGradient id="SVGID_48_" gradientUnits="userSpaceOnUse" x1="1459.7701416" y1="-981.5593262" x2="1459.7701416" y2="-1001.8295288" gradientTransform="matrix(1 0 0 -1 -148.2628784 -867.973877)">
				<stop  offset="0.225275" style="stop-color:#000000;stop-opacity:0"/>
				<stop  offset="1" style="stop-color:#000000"/>
			</linearGradient>
			<rect x="1178.8607178" y="113.5854645" opacity="0.5" fill="url(#SVGID_48_)" width="265.2929382" height="20.2698669"/>
			<rect x="1444.1409912" y="27.1094627" fill="#7F5940" width="22.9265766" height="119.3538284"/>
			
				<linearGradient id="SVGID_49_" gradientUnits="userSpaceOnUse" x1="1900.6568604" y1="1848.9449463" x2="1900.6568604" y2="1828.6748047" gradientTransform="matrix(-4.489659e-11 1 1 4.489659e-11 -649.3775024 -1813.8704834)">
				<stop  offset="0.225275" style="stop-color:#000000;stop-opacity:0"/>
				<stop  offset="1" style="stop-color:#000000"/>
			</linearGradient>
			<rect x="1179.2976074" y="39.4606934" opacity="0.5" fill="url(#SVGID_49_)" width="20.2698669" height="94.6513672"/>
			
				<rect x="1156.9324951" y="27.1094627" transform="matrix(-1 -1.224647e-16 1.224647e-16 -1 2336.7915039 173.5727539)" fill="#7F5940" width="22.9265766" height="119.3538284"/>
			
				<rect x="1300.5367432" y="-126.4947662" transform="matrix(6.123234e-17 -1 1 6.123234e-17 1283.4272461 1340.5727539)" fill="#7F5940" width="22.9265766" height="310.1350403"/>
			
				<rect x="1300.5367432" y="-10.6042271" transform="matrix(6.123234e-17 -1 1 6.123234e-17 1167.5367432 1456.4632568)" fill="#7F5940" width="22.9265766" height="310.1350403"/>
		</g>
	</g>
	
		<linearGradient id="SVGID_50_" gradientUnits="userSpaceOnUse" x1="-637.835022" y1="1614.8474121" x2="-637.835022" y2="1606.8863525" gradientTransform="matrix(-1 0 0 1 52.1072426 -1453.6885986)">
		<stop  offset="0.225275" style="stop-color:#000000;stop-opacity:0"/>
		<stop  offset="1" style="stop-color:#000000"/>
	</linearGradient>
	
		<rect x="-303.627655" y="153.1978912" opacity="0.5" clip-path="url(#SVGID_2_)" fill="url(#SVGID_50_)" width="1987.1398926" height="7.9609179"/>
	<rect x="-303.6279297" y="-6.0786176" clip-path="url(#SVGID_2_)" fill="#7F5940" width="1987.1405029" height="28.276329"/>
	
		<linearGradient id="SVGID_51_" gradientUnits="userSpaceOnUse" x1="-637.835022" y1="1471.8474121" x2="-637.835022" y2="1463.8863525" gradientTransform="matrix(-1 0 0 -1 52.1072426 1486.045166)">
		<stop  offset="0.225275" style="stop-color:#000000;stop-opacity:0"/>
		<stop  offset="1" style="stop-color:#000000"/>
	</linearGradient>
	
		<rect x="-303.627655" y="14.1977587" opacity="0.5" clip-path="url(#SVGID_2_)" fill="url(#SVGID_51_)" width="1987.1398926" height="7.9609179"/>
</g>
<radialGradient id="SVGID_52_" cx="700" cy="490" r="881.9265137" gradientTransform="matrix(1 0 0 0.7600656 0 117.5678635)" gradientUnits="userSpaceOnUse">
	<stop  offset="0" style="stop-color:#000000;stop-opacity:0"/>
	<stop  offset="0.3766224" style="stop-color:#030303;stop-opacity:0.2752973"/>
	<stop  offset="0.6682565" style="stop-color:#0D0B0C;stop-opacity:0.4884712"/>
	<stop  offset="0.9305599" style="stop-color:#1D1A1B;stop-opacity:0.6802055"/>
	<stop  offset="1" style="stop-color:#231F20;stop-opacity:0.7309636"/>
</radialGradient>
<rect opacity="0.5" fill="url(#SVGID_52_)" width="1400" height="980"/>
</svg>
