<?xml version="1.0" encoding="UTF-8" standalone="no"?>
<svg id="svg2" xmlns:rdf="http://www.w3.org/1999/02/22-rdf-syntax-ns#" xmlns="http://www.w3.org/2000/svg" height="1854pt" width="1953pt" version="1.1" xmlns:cc="http://creativecommons.org/ns#" xmlns:dc="http://purl.org/dc/elements/1.1/" viewBox="0 0 1953 1854">
<path id="path118" d="m339.61 1384.2c7.01-3.33 6.91 7.23 1.14 6.76-4.99 1.23-4.21-4.93-1.14-6.76zm2.55-23.84c7.33 0.98 2.22 11.19-3.73 9.09-5.56-2.36 0.29-7.89 3.73-9.09zm-15.64-29c13.58 0.21-2.94 22.11-9.89 11.94-1.5-5.8 6.35-8.9 9.89-11.94zm-6.92-26.82c9.7-1.23 2.19 16.26-5.72 10.81-6.61-3.69 1.64-9.29 5.72-10.81zm306.6-7.24c10.53 16.88 10.98 39.7 10.4 59.2-6.11 1.39-5.3-8.83-6.23-13.27-6.68-4.87-1.17-15.19-2.54-21.77-1.69-7.42-3.99-17.24-1.63-24.16zm1103.2-30.01c3.71-1.66 8.64 3.46 5.69 6.88-3.91 4.5-12.67-5.11-5.69-6.88zm-1427-30.03c6.77-1.45 0.78 6.39-0.64 8.94-4.53-0.48-3.83-8.62 0.64-8.94zm1430.1-8.95c4.89-2.29 11.01 6.17 4.91 8.52-7.25 4.04-13.81-7.09-4.91-8.52zm0.05-24.06c4.98-1.6 12.88 5.08 7.23 9.5-3.18 8.08-16.43-6.49-7.23-9.5zm-1123.3-25.2c8.64 3.28 7.38 17.56 9.77 25.75-0.11 19.88 9.42 39.15 7.86 58.8-3.4 9.36-8.88 3.55-6.28-3.76-6.63-26.45-8.2-53.87-11.35-80.79zm-296.97-6.77c3.7-1.9 8.94 1.79 4.71 4.72-2.71 4.9-9.09-2.31-4.71-4.72zm-22.95-2.13c5.87-1.33 5.58 7.33 0.11 7.55-6.3 2.15-5.4-7.3-0.11-7.55zm1442.9-5.99c3.54-0.51 10.04 2.81 7.02 7.1-5.73 3.05-16.59-3.53-7.02-7.1zm0.09-51.96c4.55-1.61 9.93 5.61 5.78 9.12-5.64 4.27-13.86-7.62-5.78-9.12zm-1451.2-21.9c12.46 0.12 1.26 17.05-7.99 9.8-10.64-2.68 2.42-11.39 7.99-9.8zm1450-5.02c3.27-0.43 10.73 2.44 6.17 6.15-3.49 5.12-12.68-3.82-6.17-6.15zm2.02-46.01c3.12-1.33 7.14 5.16 2.61 5.75-3.55 1.27-7.31-4.93-2.61-5.75zm-1457.8-21.1c5.87-2.17 6.69 10.5-0.86 6.64-3.7-1.35-3.03-6.26 0.86-6.64zm1463.8-43.86c3.48-0.98 5.59 3.66 2.52 5.43-5.58 3.91-8.12-6-2.52-5.43zm12.51-26.93c11.03-2.07 0.96 13.73-5.77 8.85-7.42-3.01 2.16-7.6 5.77-8.85zm-16.94-8.3c3.27-0.34 7.83-0.71 10.32 2.06 0.56 7.48-20.03 3.16-10.32-2.06zm-1370.6-25.84c2.79 0.22 4.98 3.06 5.78 5.64-3.69 5.81-13.83-2.73-5.78-5.64zm-27.5-28.03c5.33-3.08 10.73 4.08 3.8 5.36-4.99 4.32-11-3.12-3.8-5.36zm1414.6-9.18c14.31 1.79-7.63 9.47 0 0zm-1529.9-50.59c9.8 2.48-4.9 15.3-10.24 8.24-0.97-6.15 5.69-7.17 10.24-8.24zm1535-6.23c11.28-0.66-2.61 5.23 0 0zm-1189.7-1.86c9.34-2.39 6.41 11.56 3.6 16.07-8.32 3.05-13.11-14.35-3.6-16.07zm1199.7-22.18c6-2.12 8.42 10.16-0.04 6.78-4.43-0.25-3.88-6.04 0.04-6.78zm-1546 0.22c7.87 0.71 0.12 14.75-6.59 9.09 0.29-2.84 0.5-9.14 6.59-9.09zm339.95-22.34c8.42-0.49 12.18 19.16 2.04 18.88-4.4-4.21-7.11-14.3-2.04-18.88zm-236.92-38.87c4.43 1.05 6.51 8.14 12.5 9.11-1.45 12.04-24.41-2.46-12.5-9.11zm-7-14c6.18 0.21 13.93 0.38 18.48 5.16-1.62 8.41-23.93 2.46-18.48-5.16zm-1.03-24.06c7.24 1.03 21.42 3.2 19.97 12.37-6.04-0.5-27.98-3.55-19.97-12.37zm791.72-4.02c3.98-1.56 7.04 4.61 5.66 7.85-0.21 25.3-4.28 50.91 6.41 74.83 7.14 11.05-9.08 20.52-2.11 31.92 3.92 3.39 3.53 18.89-3.46 13.69-6.19-13.4-6.7-29.78 0.83-41.86-13.51-27.02-9.95-58.41-7.33-86.43zm-565.56-5.81c9.34 0.71 9.54 16.62 12.02 23.99-3.1 14.07 10.07 26.28 5.73 40.08-7.69 4.47-10.71-3.67-9.61-9.65-13.56-5.99-3.35-26.4-9.59-37.89-3.75-5.15-3.01-12.17 1.45-16.53zm1232.7-26.05c5.74 1.04 4.39 11.46-2.16 10.74-5.77-1.77-2.04-9.48 2.16-10.74zm-668.04-11.11c5.45 0.34 8.1 12.05 1.83 13.77-5.65-1.42-4.36-10.09-1.83-13.77zm-928.65-21.85c8.15-4.8 10.2 7.63 2.85 8.48-6.25 3.89-8.09-8.2-2.85-8.48zm357.49-3.07c12.4 1.92 3.78 16.59 7.79 24.54-10.37 9.16-24.11-22.43-7.79-24.54zm565.57-12.38c11.63-1.87 5.81 13.2 2.05 18.02-9.38 0.03-6.91-13.71-2.05-18.02zm-789.26-7.67c3.96 1.06 7.65 3.89 12.42 1.95 2.97 13.61-24.65 8-12.42-1.95zm-135.07-3.93c5.6-0.97 6.23 8.63 0.5 8.69-5.79 1.03-5.78-8.05-0.5-8.69zm924.16-29.04c6.43-1.16 1.92 10.16-0.67 11.59-8.31 0.63-6.56-10.72 0.67-11.59zm-575.13-2.09c12.34 1.66 2.59 20.43 9.15 28.41 5.66 6.99-6.47 11.44-10.32 5.13-2.63-10.92-6.7-23.97 1.17-33.54zm1256-14.93c4.67-3.24 9.81 7.29 3.92 8.07-4.66 3.16-7.68-5.74-3.92-8.07zm-686.11-15.11c6.03-0.5 7.59 9.72 5.49 13.77-7.4 1.95-8.09-9.03-5.49-13.77zm-935.75-6.63c7.52-2.72 9.98 7.39 1.75 6.95-8.39 5.22-9.07-7.71-1.75-6.95zm1624.9-4.2c4.75-1.39 7.95 7.48 2.93 9.22-5.13 3.3-8.89-8.98-2.93-9.22zm-30.81-0.04c4.34-2.57 1.9 3.73 0 0zm35.87-35.9c6.47-1.59 5.46 9.46-0.86 7.89 0.9-3.68-5.13-6.32 0.86-7.89zm-1620.1-4.11c5.69-1.8 8.16 7.67 1.82 8.04-6.48 3.74-8.62-7.34-1.82-8.04zm1604.1-8.03c3.73-1.47 7.57 4.08 5.97 7.21-3.93 1.68-11.89-3.66-5.97-7.21zm-1604.3-19.92c12.24-2.37-1.67 13.85 0 0zm1613.2-45.03c7.05-2.2 6.63 8.26 1.48 9.75-5.32 0.07-6.55-8.28-1.48-9.75zm-6.17-35.05c4.67-0.92 8.26 4.97 3.52 7.62-3.74-0.06-9.84-5.48-3.52-7.62zm27.37-57.92c4.92-3.82 12.05 4.47 5.9 7.24-4.89 6.94-12.31-3.81-5.9-7.24zm-37.88-0.87c5.68 0.5 21.35-4.17 19.25 6.54-7.76 0.8-15.42 1.86-22.87 4.1-6.27-2.16-2.48-11.63 3.62-10.64zm57.8-321.39h8.03c8.04 1.84 10.83 10.9 14.3 17.31 6.22 19.24 10.57 42.84-1.75 60.56 14.19 6.65 28.34 21.31 26.01 38.03-3.18 12.03-16.57 15.54-26 21.22 12.63 9.29 26.6 17.84 35.89 30.99 14.22 13.31 10.09 38.44 28.33 48.53 9.32 5.35 7.15 17.97 3.96 26.42-6.61 7.29-19.79 6.21-26.09 12.75 27.19 14.25 63.48 27.14 66.85 62.66v8.91c-4.79 13.46-16.7 27.98-31.88 27.3-4.21 14.28-0.06 29.75-1.04 44.42-3.79 51.25-0.47 102.45-7.36 153.41-0.34 72.8-12.04 144.96-14.95 217.55-5.75 64.02-16.66 127.36-18.96 191.7-6.41 103.23-11.37 206.27-19.72 309.57 0.57 52.32-7.28 102.55-1.24 154.45 7.03 12.86 26.27 17.94 26.76 35.16-4.23 28-36.25 36.24-59.55 41.99-15.48 7.71-34.39 0.14-48.88 10.35-14.08-3.16-9.09 18.98-21 21.94-12.69 4.28-11.82 19.48-10.04 30.38 6.11 63.47 12.38 128.47-3.48 191.04-4.04 18.08-10.8 36.57-24.3 49.74-6.92 15.69-29.58 18.85-42.16 8.4-11.26-8.31-19.23-21.03-20.87-35-14.18-62.74-6.86-128.84 10.15-190.24 5.36-17.3 10.28-35.2 12.94-52.95-8.37-9.65-15.37-20.16-15.67-33.44-27.06 1.16-52.81-17.11-80.01-9.82-138.72 13.92-277.39 32.85-416.64 38.9-51.6 2.62-102.1 15.06-154.07 15.19-56.56 0.59-113.54 4.61-169.69-4.83-48.08-7.34-96.98-7.62-144.68-17.39-15.69-2.92-30.57 6-46.29 4.12-31.67-0.41-63.48 0.82-94.95-3.7-21.94-2.96-42.9-13.45-65.29-12.74-22 14.63-46.15 28.13-72.13 34.1-5.93 2.1-5.9-9.68-10.74-3.62 5.8 18.31-6.5 36.12-18.64 48.27 2.74-1.58 6.95-4.38 9.06-0.36 22.19 36.68 31.05 79.17 44.8 119.27 3.01 24.02 13.1 47.66 9.14 72.15 4.43 15.49-0.77 30.77-3.13 45.97-3.12 17.52-21.19 21.89-35.86 25.34h-4.5c-16.9-4.37-27.62-21.09-34.28-36.85-10.71-16.05-16.81-34.52-22.05-52.94-16.36-54.55-22.7-111.69-22.89-168.52-19.25-6.68-28.21-32.9-10.97-47.03-20.94 6.49-42.95 7.89-64.54 10.99-22.06-8.61-53.52-2.31-66.33-26.77-9.21-10.39 1.61-22.7 6.78-32.01 20.34-18.52 47.05-26.01 71.09-37.91-1.18-0.99-2.66-1.46-4.07-1.94 67.57-20.71 138.92-30.25 209.02-31.41-9.42-14.17-5.75-32.65-11.04-48.35-4.97-12.94-4.73-27.01-8.05-40.23-3.75-0.21-8.35 3.37-11.51 0.56-0.85-6.54 6.04-9.63 8.53-14.78-8.6-31.61-13.06-64.35-16.7-96.84-14.96-29.34-6.41-67.78-21.72-94.3 8.3-5.25 0.56-15.99 0.15-24.14-5.77 1.48-15.62 0.96-13.26-7.8 10.15-8.95 9.73-28.63-4.04-34.09-5.28-7.74 10.8-7.17 7.53-14.44-12.23-38.44-15.67-79.02-21.05-118.83-10.82-36.14-13.25-74.19-20.78-111.09-6.92 4.64-15.42-0.1-23.07 1.13-6.03-10.75 17.21-9.87 22.7-4.63-7.66-41.14-11.31-82.83-15.89-124.35-7.64-33.33-10.39-67.36-11.44-101.45 1.78-12.77-16.3 1.05-19.31-10.04 3.96-6.96 12.77 2.28 18.04-2.78 0.56-17.47-2.53-34.72-7.81-51.26-3.96-2.78-8.87-3.74-13.02-6.17-1.39-6.42 6.66-5.78 10.64-4.87-1.58-11.92-4.18-23.68-5.9-35.53-7.93-5.54-18.73-5.75-28.07-6.28-3.77-15.48 21.48-4.95 26.9-6.88 2.21-12.71-10.82-9.69-18.35-13.59-5.08-1.04-13.63 4.26-13.68-4.34 8.02-5.6 18.07-4.18 27.23-3.54-0.34-4.82-0.64-9.68-1.87-14.36-5.52 2.91-17.07 1.71-16.87-6.07 4.69-5.72 11.34 1.82 16.36 3.47-0.75-5.35-1.17-10.75-1.81-16.1-10.16 0.38-19.86-3.56-30.04-3.29-4.77-0.55-12.19 0.61-14.11-5.32 13.21-4.91 28.34 1.44 42.15 0.68-0.22-5.52-0.82-11.01-1.55-16.46-7.74 3.35-16.12-1.4-23.26-4.45 1.74-11.59 17.01 1.75 22.6-0.69 2.53-9.47-6.82-14.9-14.82-16.26-48.95-18.22-100.91-2.14-150.89-0.09-24.06 6.56-48.81 12.18-70.83 24.23-3.59 3.29 0.06 14.83 5.58 10.64 19.74-13.55 44.04-17.77 67.15-22.02 4.1-0.67 15.97-1.77 14.91 5.28-29.56-1.28-57.65 14.81-81.37 31.48-2.98 1.19-2.61 5.71-0.33 7.43 26.41-13.99 55.12-24.45 85.09-26.81 2.69-0.84 1.73 2.07 1.64 3.66-24.81 2.09-47.66 13.56-69.29 24.73-8.56 3.61-12.27 11.76-13.24 20.53 26.18-14.87 54.89-26.59 84.82-30.88 5.31-1.39 2.24 7.57-2.58 4.36-27.09 7.69-53.34 19.44-76.61 35.27-3.81 2.16-6.92 10.34-1.9 12.14 28.69-11.97 56.62-28.32 88.09-31.75 4.5-1.76 3.68 7.78-1.66 4.2-30.1 6.39-58.16 21.21-83.13 38.88-3.86 1.22-8 10.69-1.17 7.93 20.62-11.69 45.22-13.93 65.42-25.99 5.8-1.3 20.7-6.34 18.23 4.43-27.11 8.19-56.69 17.19-78.31 34.75 23.94-0.64 49.59-19.6 75.82-14.38 3.44 5.13-5.88 4.29-8.34 6.01-24.5 5.39-47.42 16.35-68.93 29-2.84 0.97-1.95 6.44 2.61 2.71 25.82-7.4 52.4-11.32 79.01-14.38 3.29 0.89 7.68 4.99 4.08 8.16-27.71 3.25-56.52 5-82.2 16.97-5.23 1.16-4.05 13.12 1.7 9.81 18.61-8.68 39.32-11.82 59.54-13.85 0.21 9.56-14.73 7.86-21.55 10.8-14.69 1.7-27.31 9.85-38.9 18.39-0.16 2.52 0.47 8.98 4.11 6.77 22.52-11.62 47.98-17.13 73.11-18.11 6.47 2.13-0.77 10-5.45 7.85-24.87 2.7-44.75 17-65.66 29.41-3.56 1.47-3.28 9.11 1.35 7.17 23.34-5.33 46.76-25.34 71.2-14.06 4.61-2.38 6.89 4.53 4.01 6.07-22.87 4.09-47.67 5.79-67.67 18.68-8.31-1.9-10.77 13.31-4.4 14.67 18.63-11.76 39.86-19.41 61.97-20.48 2.64 0.01 6.34 4.09 2.8 5.87-8.51 9.98-29.49 2.02-32.47 17.75-4.88 15.21-33.71 4.18-30.75 22.52 22.21-4.54 44.31-17.27 67.71-14.85 7 6.43-7.57 6.87-11.25 7.01-17.43-0.06-27.98 16.16-44.37 19.49-6.78 0.86-9.02 8.13-4.17 12.57 25.57-10.22 53.21-18.03 80.94-18.3 2.57 3.51-1.79 6.27-4.83 7.08-14.52 3.87-29.83 5.12-43.91 10.36-1.7 12.34-17.42 13.42-27.13 16.2-4.62 0.04-3.56 7.09-0.14 7.73 23.13-4.43 45.8-11.5 69-15.51 4.19-1.45 8.18 3.25 4.7 6.65-17.01 2.37-33.05 8.96-49.27 14.32-4.27 8.33-13.39 12.11-22.37 10.11-5.01 0.76-1.33 13.54 4.54 10.43 23.46-7.78 47.68-16.08 72.74-15.62 5-0.38 4.83 8.29-0.32 7.25-28.46-1.75-52.32 14.6-75.21 28.69 0.27 3.47 3.44 7.33 7.06 4.9 23.43-11.33 50.21-10.79 75.41-13.41 3.33-16.07 17.08 2.29 8.35 8.54-15.9 0.98-32.33-0.92-47.65 4.97-12.02 0.84-18.61 13.12-30.28 14.8-0.61 4.53-9.35 3.2-7.45 8.57 24.2-3.52 47.93-14.68 73.05-11.14 5.89 1.95 10.77-1.79 15.56-4.42 3.96 3.63 14.07 4.65 11.29 11.91-11.67 3.4-23.59 1.32-35.2-0.75-21.65 1.77-48.05 8.91-60.03 27.7 28.39-10.88 58.99-9.61 88.28-13.42 7.62 2.67 1.82 13.18-5.3 10.69-18.19 1.16-45.42-6.46-55.87 12.12-5.51 4.38-19.18 3.2-18.74 11.36 22.9-2.06 45.45-11.4 68.89-9.44 3.59 0.41 6.27 4.12 4 7.41-24.12 0.54-48.05 6.62-70.29 15.51 1.56 3.74 3.46 11.52 8.96 8.86 18.56-7.48 38.75-13.41 58.86-9.05 3.17 2.43 7.85 9.98 1.41 11.48-11.87-0.05-24.05 0.45-35.45 4.15 2.88 11.89-18.57 16.78-28.34 16.88-8.59-4.29-4.44 7.31 0.35 5.3 27.61-6.55 56.04-10.53 84.34-7.95 2.28 1.68 0.54 6.49-2.99 5.54-25.58 1.89-52.66 6.05-75.93 14.78 6.33 5.47 16.64-2.93 24.6-3-1.3 12.31-22.37 5.52-24.89 14.75 24.43-6.47 49.9-10.17 75.21-9.45 4.13-0.12 11.09 4.26 6.23 8.27-27.19-1.91-53.4 5.61-78.17 15.83-2.43 2.29-2.56 10.82 2.62 9.36 22.4-3.82 44.49-12.2 67.59-9.62 4.6 0.4 11.18 1.75 8.33 8.29-17.22-2.8-38.08-1.13-49.2 14.09-5.19 8.6-31.71 3.38-25.45 15.35 26.07-10.09 54.88-14.01 82.66-10.93 4.33-0.02 3.91 6.5-0.17 6.58-14.12-0.08-28.96-0.43-42.37 4.55-10.61 10.57-22.88 19.26-36.64 25.29 19.68-4.92 39.93-12.27 60.98-10.73 7.03 0.27 18.43-3.97 21.71 4.25-21.35 5.4-46.65 3.31-65.39 15.95 6.79-0.2 12.4-5.36 18.94-5.62-1.03 12.16-19.69 11.44-28.93 15.38-6.63 0.27-3.24 10.29 2.75 7.02 23.41-7.14 49.45-15.12 73.89-8.33 4.87 0.46 3.71 6.53-0.6 6.83-20.92 3.37-42.13 7.9-60.02 19.74-4.98 3.08-18.09 2.26-12.66 10.96 25.95-2.83 51.49-9.92 77.43-11.89 4.59-0.41 10.39 4.17 5.29 8.11-26.42 7.45-57.47 5.8-79.56 24.8-0.71 1.85-1.11 9.5 3.07 7.64 25.49-10.61 53.69-18.43 81.36-13.17-0.12 1.59-0.36 4.77-0.49 6.36-18.21 0.16-36.95 1.1-53.73 8.9-3.41 11.95-18.39 12.13-25.99 20.12-1.88 1.42 0.78 2.51 2.1 1.85 17.36-6.65 36.04-8.15 54.32-10.54 9.24-1.1 19.13-3.93 27.78 0.74 1.86-5.98 15.27-8.32 10.57-0.37-22.81 9.48-48.43 9.6-72.47 15.4 14.73 10.71-27.4 10.14-16.85 23.02 25.3-8.29 52.38-9.81 78.62-13.87 3.08 0.16 4.4 4.91 1.27 6.2-16.51 5.75-34.61 5.53-51 11.7-7.07 7.36-15.43 12.27-21.82 20.42 27.74-7.09 57.41-15.38 85.68-8.36 4.9-0.32 14.45-9.04 14.15 1.38-7.2 11.1-20 5.45-30.09 3.7-24.66 3.41-50.34 9.66-70.4 25.02-3.07 18.92 20.37-2.88 28.82 5.66 25.56-4.96 51.85-10.49 77.81-10.21 6.87 8.36-10.16 9.18-15.58 10.03-26.59 0.28-51.48 9.81-76.62 17.29-2.47 1.53-7.67 1.6-7.89 5.15 26.23 5.08 52.3-8 78.56-5.75 7.97 1.95 2.33 9.44-3.71 7.37-23.56 5.66-49.33 6.8-69.47 21.86 1.27 12.98 14.73-4.28 21.64-5.42 9.19 0.49-7.95 14.01 2.22 9.57 20.62-3.31 43.01-13.87 63.39-6.05 6.31-1.57 16.57-12.37 18.92-1.23-2.9 6.97-16.77 13.12-23.63 6.37-27.17 0.7-53.06 11.26-78.05 21.28-3.06 1.26-1.98 4.95-1.77 7.67 8.34 7.38 20.36-8.61 27.72-0.41 19.8-2.15 39.38-9.44 59.61-8.81 6.82 1.59 0.85 9.61-4.23 8.02-27.7 2.46-53.86 12.72-78.97 23.99 4.37 8.85 15.37-8.58 21.62-2.35-2.27 10.06-16.93 8.57-20.74 14.89 27.52-8.64 55.7-18.94 85.2-16.83 3.81 0.29 3.57 7.26-0.45 6.89-27.57 3.28-54.24 11.85-79.48 23.44-4.02 0.63-5.57 9.47-0.79 8.25 9.51-1.81 18.48-7.22 28-8.25 6.24 3.33-10.21 8.07-1.77 7.23 23.02-7.09 56.11-20.1 74.8-4.15 6.15 7.29-9.24 11-10.35 2.81-30.92 2.9-61.04 13.24-89.26 26.23-1.79 17.79 19.24-5.52 25.4 5.2 22.17-3.35 43.69-11.75 66.15-13.77 5.86 0.64 2.13 7.19-1.22 8.66-21.22 6.68-44.11 8.06-64.13 18.28-4.55 3.36 5.06-0.67 3.69 3.86-2.22 4.88-7.9 7.65-10.98 12.14 22.53-9.52 46.78-14.44 71.1-16.04 4.74-0.18 15.74-1 11.43 7.64-25.45 3.81-52.44 6.19-74.78 20.18-5.84 3.6-17.21 4.58-17.46 12.73 8.79-0.92 14.8-9.18 22.79-12.47 4.84 5.04-12.23 10.63-2.39 9.6 23.18-7.99 47.84-20.36 72.65-10.72 4.35 1.85 15.9-1.97 12.2 7.31-5.56 4.4-12.7 1.94-18.66-0.15-26.49-4.87-48.24 12.5-72.72 18.93-4.79 1.52-12.37 3.73-10.03 10.73 7.3 0.83 9.01-11.03 16.39-9.45 3.68 1.73 1.83 6.12 0.81 8.98 29.09-10.48 60.25-14.25 90.6-16.93 5.8-0.45 2.4 8.58-1.06 9.98-24.39 1.77-48.8 6.43-71.83 14.68-8.21 7.42-23.3 7.18-27.28 18.81 7.24-2.25 15.46-9.5 22.34-4.15 20.32-6.22 43.75-5.72 61.96-16.46 7.73 2.28 15.69 2.58 23.67 2.31 3.85 8.1-5 12.11-11.5 10.2-14.08-4-26.51 5.79-40.56 5.9-19.66 1.75-34.53 14.81-51.59 22.81 3.41 7.16 13.38-4.42 20.11-0.07 25.63-5.5 51-13.93 77.34-16.04 5.39 1.33 0.74 8.11-2.69 8.92-25.62-0.76-48.4 13.35-73 18.39-13.32 7.21-25.1 17.03-39.11 23-2.24 3.14-7.68 8.22-10.44 3.12 2.5-17.18 0.41-35.1 0.14-52.04-7.57-6.37-4.16-14.69-2.86-22.54-2.54-17.96-3.61-36.11-5.65-54.1-6.88-20.97-9.41-42.92-11.07-64.79-4.73-17.31-10.01-34.66-7.84-52.92-10.24-45.77-15.77-92.8-25.39-138.86-5.55-33.07-13.87-65.79-15.69-99.34 1.08-17.27-12.28-31.66-6.65-49.43-5.97-12.3-10.3-25.63-8.87-39.51-3.94-20.2-5.4-40.79-8.2-61.18-3.89-15.45-11.6-31.81-6.33-47.7-4.04-5.39-6.98-11.52-4.85-18.36-8.85-13.07-4.85-30.34-8.58-45.08-8.89-45.83-15.58-91.86-24.1-137.51-5.78-31.61-6-64.11-13.43-95.37-7.16-8.43-3.19-19.98-6.96-29.83-4.3-11.96-3.21-24.88-6.47-37.05-21.1 4.44-44.95-12.96-47.54-34.73v-5.27c11.79-39.54 57.9-53.24 93.03-64.65-6.27-4.9-19.28-4.93-22.31-15.44-2.39-10.04-15.51-5.85-19.37-14.23-2.06-12.65 12.14-18.06 20.34-24.21 6.4-27.69 21.9-52.95 42.2-72.82-22.67-8.94-16.16-41.06 3.33-50.08 1.4-10.33-7.92-20.76-4.34-31.96 0.09-18.27 2.27-53.12 28.04-49.11 18.99 16.95 25.16 43.5 28.05 67.99 23.06 3.04 41.42 30.27 26.1 51.21 25.08 8.47 48.75 28.6 57.2 54.65 6.36 2.71 14.71 1.56 18.66 8.52 10.23 13.58-3.69 29.27-12.98 38.71-2.84 3.27-13.64 6.66-12.84-0.59 10.24-5.29 17.74-16.07 17.59-27.94-2.58-8.8-14.35-8.37-21.15-11.84-9.63-18.87-24.84-35.29-43.66-45.5-16.71-9.3-36.66-5.92-54.53-2.8 4.02 10.07-18.12 2.75-17.37 11.61 6.6 0.83 13.72-4.88 19.83-1.58-0.93 13.74-28.02 4.42-28.69 17.53 8.74 0.52 18.69-3.75 26.56-0.8-0.49 12.04-23.66 2.54-25.53 13.03 8.43-0.35 16.75-2.32 25.23-2.02 4.29 4.99-2.85 8.85-4.16 13.17 8.54 1.87 16.62-2.78 25.08-3.09 8.03-0.04 19.6-2.16 21.37-11.63 1.91-9.31-14.91-12-9.09-21.28-3.66 0.12-6.93-5.12-2.39-6.17 20.19 1.5 43.77 15.39 45.58 37.46-43.64 11.95-89.52 17.76-134.44 25.65-6.32 5.06-23.4 9.26-20.33 18.53 58.82-22.4 122.13-31.73 185.01-32.29 8.21 2.27 3.41 14.96-5.2 10.88 0.54 10.96-5.56 20.22-15.73 24.51 5.49-1.98 12.24 0.23 9.22 7.08 27.21 0.98 54.59 5.8 80.19 15.41 25.27 12.6 26.02 51.23 4.64 67.64 21.57 6.01 44.01 5.68 66.11 7.73 36.26 2.72 70.71 17.51 107.47 15.97 21.55-4.54 40.91-17.77 63.66-17.26 80.29-12.06 159.61 11.62 239.79 16.28 23.14 6.31 47.34-0.34 70.71 5.45 72.11 11.94 148.91-11.23 217.9 18.59 35.51-19.68 75.41-31.44 115.58-36.43 26.95 1.15 53.56-5.49 80.52-5.33 50.53-2.24 101.1-2.16 151.53-6.65 52.69-6.35 107.93-0.95 158.78-19.12 12.94-8.6 29.82-9.55 41.85-19.28-5.1-8.05-15.14-12.15-18.32-21.65-7.78-13.62 0.81-29.13 10.22-39.36 21.56-15.69 46.9-26.62 73.81-28.83-2.61-6.3-3.41-13.12-5.06-19.69-5.49-6.13-13.82-10.3-16.47-18.61 0.94-10.62 13.05-14.45 21.42-17.63 12.14-26.22 34.05-50.61 61.39-63.1 5.84-2.26 12.52-7.96 12.47-14.5-6.77-5.69-16.36-11.91-15.1-22.13 1.15-16.64 19.61-23.72 31.25-31.2-1.06-1.57-2.89-2.7-3.41-4.54 1.43-16.83 5.89-33.22 12.84-48.63 2.18-10.15 11.47-16.65 21.39-18.07m-1.73 22.22c-5.14 1.61-4.06 7.01-0.15 9.3 6.8 15.49-1.8 33.04-16.71 38.83 10.27 0.54 20.49 4.08 30.86 4.42 4.45-16.73 5.5-35.26-2.46-51.15-3.62-1.52-7.69-1.92-11.54-1.4m-1688 62.04c-11.98 9.8-2.1 26.71 4.66 36.58 7.59-2.31 16.49-14.35 8.6-21.72-4.87-4.21-4.6-17.26-13.26-14.86m1687.6 1.05c-4.27 0.44-2.86 4.55-2.4 7.41-1.7 8.69-17.43 1.19-17.78 9.05 10.32 1.52 21.29 3.22 31.57 2.28-1.24-3.3 1.4-7.32 5.05-6.73 9.92 1.64 5.95 16.96 16.13 18.58 5-4.49 1.92-9.96-2.7-13.1-5.76-11.1-18.18-15.98-29.87-17.49m-28.8 27.86c-5.47 3.55 5.46 6.67 8.32 4.93 6.34-2.14 17.81 7.74 21.07-1.08-9.08-2.64-19.71-3.72-29.39-3.85m-2.94 22.25c-2.44-0.33-6.94 1.8-2.17 2.22 10.75-2.27 25.13 2.25 25.48 15.08-4.77 6.34-12.1-0.97-18.19 0.74-14.69 1.77-31.43-1.6-44.97 4.84 18.13 5.93 43.22-4.8 62.7 3.4 4.09 3.11-0.13 8.15-4.08 8.51 2.47 2.06 12.14 3.29 8.86 8.81-5.64 3.4 5.76 5.35 0.72 9.76-3.54 5.56-8.07-1.33-12.16-1.8-19.08-3.94-38.79-0.94-58.03-1.12-5.44-0.58-20.3 10.93-19.27-0.32 25.67-8.79 53.53-5.46 79.85-6.13-23.28-10.06-50.54-0.34-75-3.29-2.58 6.24-16.23 13.1-10.11 19.72 35.79-8.09 72.8 0.21 108.82-1.36 9.3-7.29 0.3-19.6 3.59-28.76 1.55-3.47-6.79-3.6-3.95-7.3 13.36-1.36 20.58 13.69 29.85 21.02 6.17 3.76 1.42 12.63 7.09 17 6.25 6.28-4.64 9.33-8.22 12.93-8.03 3.81-18.93 4.07-25.89-2.1-36.68-4.02-73.89-6.74-110.67-2.83-8.64 2.85-16.79 7.33-25.99 8.13-1.58 1.82-3.09 5.67-0.5 7.23 56.63-13.01 116.74-8.52 173.55 3.35 9.63 2.9 20.3 4.44 28.5 10.69 3.99 0.53 3.37-6.19 1.06-8.11-10.54-6.99-23.44-8.88-34.33-15.15-1.88-12.85 19.42 6.37 14.96-5.58-6-15.33-11.32-32.66-25.28-42.78-6.54-9.01-19.24-10.64-24.46-20.78-13.86-2.22-27.62-6.74-41.76-6.02m-8.73 9.12c-3.9 2.39-12.22-0.98-12.97 4.49 9.73-1.82 20.05-0.55 29.53-2.76-4.84-3.25-11.16-2.54-16.56-1.73m-1623.2 7.84c-2.08-0.01-3.04 1.13-2.4 3.14 14.34-1.77 17.34 17.76 32.91 14.4-2.44-13.41-18.37-19.07-30.51-17.54m-22.94 12.15c-9.15 2.75-31.02 7-21.49 19.34 10-4.16 19.35-10.48 30.57-10.86-1.28-4.41-2.23-12.29-9.08-8.48m1628 1.03c-6.45 1.35-12.94 1.26-19.41 0.54-3.86-0.16-7.61 9.57 0.2 5.41 18.68 0.16 37.15-4.75 55.84-1.66 8.09 5.57 4.18-8.7-1.09-4.45-11.89-0.23-23.71-0.29-35.54 0.16m-1590.1 11.89c-11.72-0.73 14.03 5.37 15.06-0.46-5.03-0.25-10.05-0.1-15.06 0.46m1594.8 45.13c-20.15 3.66-40.57 0-60.6 4.57 27.96-0.66 59.24-1.44 88.26-2.18-8.17-1.57-18.64-3.08-27.66-2.39m-22.23 9.85c-8.36 3.51-31.85-4.74-31.66 5.98 24.62-2.15 52.19-1.89 76.34-4.19-14.76-1.57-29.7-1.41-44.68-1.79m115.09 4.75c-4.5 3.52-1.2 11.42-7.4 14.11 5.61 2.78 13.42 3.14 19.93 3.47 1.57-7.72-5.63-16.15-12.53-17.58m-116.78 5.38c-6.52-0.55-42.98 4.36-19.29 3.91 9.49-1.72 19.19-1.92 28.72-3.51 3.5-2.69-8.33 0.02-9.43-0.4m27.6 15.99c-28.82-0.75-56.88 6.26-84.67 12.98-21.48 6.15-46.79 16.5-54.92 39.17-5.49 13.21 5.62 23.7 15.4 30.2 0.88-8.1 13.54-12.14 12.18-17.94 6.44 2.35 11.1-4.33 17.06-5.62 8.71-4.51-12.76 2.25-7.61-6.62 43.21-18.42 94.91-18.32 138.58-22.52-35.31-4.13-71.68-0.48-106.01 9.02-14.05 3.13-28.4 8.09-42.91 5.6 0.15-5.34 8.53-5.27 12.61-7.02-2.79-3.53-13.91 3.19-14.1-3.53 26.69-9.35 53.94-16.74 81.86-21.48 2.62-5.65 7.59 0.29 11.94-1.12 18.79-2.93 38.15-3.31 56.78 0.93 10.57-2.38 24.97 2.94 25.61 15.16-0.47 7.89-8.73 10.14-15.2 9.92 17.24 3.96 35.9 4.5 53.75 6.19 5.64-5.09-0.76-13.04-0.49-19.46 12.22-11.55 29.04 1.59 40.99 7.55 15.48 4.44 14.34 25.76 4.41 35.27 4.65 5.1 7.32 26.72 15.6 12.78 21.22-23.96-1.66-61.68-31.36-62.66-41.08-17.01-85.86-17.98-129.5-16.8m1.26 17.04c-17.62 1.59-38.51 2.05-54.28 8.55 22.49-2.4 44.91-5.84 67.64-4.03 0.84-6.03-9.43-5.06-13.36-4.52m-1562.9 0.73c-19.42 4.44 15.49 4.14 0 0m-31.15 10.09c-20.78 1.62-42.5 4.24-61.36 11.69 21.59-2.86 42.77-8.66 64.54-10.38 1.62-2.75-1.66-1.36-3.18-1.31m21.85 4.93c-22.76 3.29-45.57 6.52-68.14 10.94 22.79-2.34 48.66-5.88 72.85-8.15 0.01-2.16-2.69-3.79-4.71-2.79m1579.4 13.17c-33.84 3.52-73.24 6.98-97.72 32.41 12.88-2.51 25.92-5.39 37.44-11.89 12.59-1.92 3.74 9.52-1.34 11.07 10.43-1.84 20.77-5.85 31.53-5.02 1.28 2.14-0.14 3.74-2.26 4.33-24.23 7.97-50 10.29-74.05 18.77-5.82 0.91-9.66 10.47-5.23 13.73 28.75-15.23 62.54-17.6 94.39-13.63 3.82 0.28 6.97 5.79 1.24 5.63-10.22-1.79-29.3 3.46-34.23-2.65-4.07 7.94-30.17 1.98-17.74 10.43-12.76 9.27-31.14 9.6-44.58 18.65-1.14 1.81-2.13 6.05 0.73 6.52 27.64-14.69 60.45-15.99 91.07-13.85 4.01 0.5 13.65 0.38 11.96 6.88-23.01-2.13-46.58-0.78-68.93 5.13 1.08 2.64 6.68 6.33 1.39 7.38-13.74 3.12-27.81 7.94-37.75 18.45-2.26 0.93-2.4 6.4 0.89 4.75 28.09-12.55 58.72-23.41 89.93-17.03 3.79 1.04 12.62 1.4 11.43 7.36-29.53-4.91-59.77 2.23-86.64 14.44 4.79 3.94 19.04-8.56 21.67 0.37-8.22 9.17-30.22 6.17-35.23 16.71 29.25-9.49 61.53-15.41 92.77-11.07 2.68 0.33 6 3.16 4.15 5.99-31.43-2.33-66.97 1.85-95.2 17.06 5.33 0.62 19.19-6.27 25.71 0.62-9.99 4.27-29.98 6.08-26.2 20.69 27.02-18.52 63.57-18.33 95.45-17.19 3.25-0.33 8.79 4.08 5.29 6.93-27.96-1.38-57.38 0.82-83.49 11.67 1.52 2.46 12.71 1.92 6.15 5.18-7.23 5.51-28.27 4.85-21.77 18.45 14.97-4.3 29.34-13.22 45.86-13.48 17.49 0.59 38.16-7.98 54.04 1.14-14.99 0.6-29.45 5.79-44.46 6.63 1.51 2.33 9.63-0.97 5.89 3.75-10.58 6.09-24.01 7.43-36.15 7.97-2.07-7.1-9.64-1.68-13.75 0.48 4.12 1.41 10.49-1.39 14.51 2.9-7.22 6.92-32.2 4.5-27.33 19.74 28.06-12.86 61.08-18.45 91.66-10.9 3.09 0.32 8.35 2.98 6.97 6.95-14.6-2.31-29.14-3.33-43.96-1.96 4.13 3.72 15.37-1.62 17.1 3.84-11.28 1.66-21.47 7.43-33.1 6.87-10.97 1.17-25.21-3.83-33.42 5.85 4.77 2.82 22.63-8.64 24.65 2.25-7.75 8.95-34.45 1.1-31.64 18.36 27.7-19.14 63.47-17.55 95-10.64 2.33 5.26 7.28 5.27 11.84 7.68-16.71 4.94-34.48-3.5-51.29 2.64-16.86-3.41-34.92-1.8-49.21 8.51 6.88 2.11 16.5-5.42 22.28 0.93 0.12 9.82-25.41 1.74-17.82 12.61 29.77-13.48 63.81-0.14 93.3-5.24 3.36 7.25-8.9 13.23-13.93 7.66-19.66 2.43-39.26 6.42-58.62 11.36-2.47 12.09-28.42 2.33-32.89 16.18 31.52-14.06 67.07-3.63 99.29-7.28 7.92 16.91-22.96-0.46-24.39 10.63-16.74 2.5-32.95 4.79-49.91 9.6-5.39 9.78-25.93 2.17-26.91 13.99 30.46-10.14 64.25-10.9 95.55-3.37 1.55 10.03-14.66-1.33-17.1 7.3-25.33 2.57-52.15 4.33-76.73 13.11-4.69 0.11-4.34 11.15 0.6 8.6 23.67-10.19 50.04-7.48 75.08-6.98 5.43 0.93 15.77-0.38 16.47 7.57-30.75-3.34-62 8.93-91.95 18.85-6.84-0.2-7.67 15.85-0.01 11.21 31.76-14.91 68.25-11.26 101.68-4.91 4.44 4.53-4.11 7.84-7.67 6.77-23.14-5.77-50.76-7.78-72 3.92 6.48 0.44 8.47 9.38 0.52 8.77-10.09 1.87-35.32 1.6-29.78 18.34 23.58-19.65 53.85-10.56 81.44-12.46 5.45-5.02 16.69 1.05 8.97 6.93-22.1 2.39-45.38 0.29-67.09 7.21-3.11 10.08-21.53 7.6-24.96 16.25 31.13-4.56 63.02-8.34 94.39-6.41 6.17-2.46 20.94-4.49 19.21 5.32-4.26 0.53-9.01 0.46-12.09 3.9-25.28-7.02-52.16 1.98-77.18 6.63-2.11 7.69-13.6 5.46-16.56 11.48 32.29-4.28 64.93-6.32 97.47-5.42 4.5 0.69 12.92-2.79 14.62 3.49-8.16 10.05-20.34 1.14-30.57 3.5-22.27 0.94-44.53 3.23-66.41 7.5 15.26 13.67-27.97 6.64-20.04 19.81 28.96-4.17 58.28-6.77 87.57-6.7 4.25 0.39 14.28 0.24 10.33 7.88-26.34-0.37-52.91 1.38-78.64 7.17-4.18 9.2-22.31 6.01-22.53 17.43 30.67-4.28 62.01-7.35 92.87-6.27 7.9 6.94-11.93 5.1-15.72 6.53-19.44 7.02-41.73 13.39-61.57 7.75-5.46 0.97 5.61 2.1 4.78 6.45-7.29 6.47-20.55 8.2-22.82 19.02 28.15-6.53 57.31-5.07 86.05-4.72 3.41 0.22 5.69 4.32 4.25 7.36-25.78 0.18-52.42-1.88-77.48 5.39 5.8 5.5-3.07 13.39-7.94 16.19 25.48-4.44 51.41-3.35 77.16-2.94 2.82-0.14 3.57 2.58 3.88 4.88-24.46 2.56-49.7 2.03-73.56 8.43 3.49 10.24-21.71 12.06-19.52 25.22 33.66-8.5 73.7-11.16 104.74-2.52-0.28 5-11.97 12.17-12.27 3.14-9.03-2.76-18.49 1.07-27.73-0.17-13.73 8.47-31.35 6.11-45.45 14.03 2.39 9.88-15.58 7-16.26 17.1-1.33 4.53 3.61 0.92 3.75-1.66 18.43-2.62 35.64-13.72 54.87-11.67 1.91 6.21-7.03 2.61-9.73 5.95-3.28 3.85-8.39 5.28-12.14 8.07 17.15 2.15 36.5-4.1 53.21 3.21 1.31 6.28-7.95 2.88-11.13 3.76-20.65 0.7-41.48 1.31-61.79 5-6.46 0.69-3.54 10.63-10.08 11.1-4.06 1.2-11.21 3.14-9.85 8.65 5.4 1.2 11.3-5.89 15.87-0.7-3.62 5.2-13.95 2.47-16.85 8.09 23.18-8.18 48.16-8.35 72.52-9.13 5.16 1 13.91-0.48 15.51 6.21-26.28 2.89-56.68-1.54-78.95 16.03 4.54 5.97-5.67 6.32-7.12 10.91 23-2.63 45.74-7.48 68.87-8.96 4.85 0.22 13.62 1.92 9.38 9.14-21.91 2.52-43.63 7.15-65.61 9.39-6.3 0.65-9.56 7.42-13.62 10.52 24.18 2.64 54.48-5.73 78.88 1.81-18.99 10.68-47.09 0.84-68.35 9.76-6.79 2.73-19.51 5.22-15.55 15.78 26.07-1.66 52.67-4.08 78.93-1.17 2.24 2.18 2.89 6.12-0.6 7.46-25.6-2.46-51.26 0.6-76.47 5-10.27 4.58 14.25 5.95 2.89 14.22 20.12-4.41 40.96-3 61.4-3.01 4.46 1.22 15.33 0.64 11.5 8.74-24.87-1.38-49.86 0.9-74.08 6.87-5.59 0.67 0.8 7.46-3.84 9.13-2.2 1.34-10.52 5.92-5.13 6.91 27.34-8.27 56.35-6.28 84.57-6.5 4.59-0.27 5.01 7 0.68 7.49-24.86 1.74-50.7 0.73-74.51 9.68-5.25 6.46-15.99 9.16-17.14 18.38 34.84-7.05 72.11-8.98 106.62-4.92 6.35 8.64-11.85 12.08-16.81 6.9-24.33-3.14-49.08 1.47-73.02 6.3 8.14 13.24-15.49 4.36-14.15 14.79 28.84-4.17 58.12-4.88 87.22-3.66 4.83 0.93 2.7 8.04-1.61 7.71-25.42-0.13-51.32-0.57-75.98 6.56 1.98 9.31-16.92 8.41-11.67 18.37 25.25-5.87 51.43-7.28 77.29-6.93 4.75-10.32 26.26-4.99 20.84 7.16-5.17 6.22-9.93-7.12-15.16 1-22.36-1.83-45.67 3.09-67.55 8.28-3.1 8.21-14.71 7.13-18.29 13.84 26.4-7.26 53.97-4.65 80.87-7.14 5.59-3.41 17.5-1.6 8.81 6.14-21.3 4.89-46.5 0.57-68.63 7.73-7.31-1.68-0.41 5.95-5.87 6.4-5.01 3.18-16.13 3.41-16.73 9.19 28.3-4.1 57.73-5.99 86.55-4.07 2.61 0.37 3.96 3.19 3.67 5.63-29.42 2.36-60.27 1.21-88.29 11.65-4.52 10.41 5.49 5.71 10.71 10.15 25.12-6.15 51.31-5.52 76.97-4.27 4.75-2.59 10.41 6.18 4.35 7.11-31.94-0.59-64.49 3.12-94.14 15.6-2.05 0.84-3.7 5.6-0.37 5.54 29.95-8.19 61.57-7.69 92.3-5.42 3.82-0.91 3.9 5.8 0.36 5.6-28.7-0.32-58.2 0.62-85.49 10.06-1.82 5.63-10.89 9.49-8.97 14.81 29.88-8.77 61.24-9.13 92.11-8.8 4.93 1.12 1.9 7.35-2.06 7.24-27.37 0.41-54.69 4.74-81.47 10.42-5.31 0.59-0.17 4.24 0.2 7.12-1.78 6.43-13.34 2.76-11.91 11.02 29.12-5.92 59.08-10.2 88.88-7.12 3.04 0.2 4.99 3.1 3.85 5.98-27.74 2.19-56.21 1.87-82.8 11.17-4.99 1.52 2.76 7.04-1.07 9.88-2.11 2.88-9.26-0.18-8.84 4.17 26.18-3.01 52.4-11.18 78.95-6.41 2.73 0.14 3.82 3.18 4.1 5.51-25.69 2.03-52.12 5.51-77.08 12.98-5.59-1.36-7.13 11.04 0.36 6.3 21.86-4.86 44.77-8.22 66.9-3.39-2.44 10.02-18.87 3.06-26.32 4.28-19.4 4.45-39.37 8.29-57.43 17.06 77.64-9.48 160.98-8.21 233.39 23.33 0.84-60.81 4.52-121.9 6.55-182.62 6.94-44.44 6.66-89.5 9.2-134.28 9.34-76.17 5.62-152.9 15.98-228.97 5.23-31.86 4.59-65.03 12.98-96.14-3.68-15.68 1.16-32.62 1-48.75 10.8-123.62 19.41-247.52 19.78-371.57 8.5-20.85-11.72-43.68-32.33-45.07-6.24-8.13-18.04-8.72-27.4-8.93-23.32-2.13-46.79-3.98-70.08-2.83m-1674 3.45c-9.44-0.71-4.45 4.66 0 0 2.85-1.6 10.81 1 12.19-2.07-4.02 0.4-8.9-0.35-12.19 2.07m8.54 5.83c6.16 1.62 3.8-4.39 0 0m-16.29 5.16c5.02-2.11 12.27-1.3 16.29-5.16-5.35 0.82-13.4 0.59-16.29 5.16m144.64-2.51c-51.45 3.22-102.81 7.32-151.74 24.57 8.65-0.75 2.36 11.59 10.27 8.12 36.19-10.48 73.32-19.94 111.13-21.2 7.09 3.54 1.58 13.09 3.58 18.16 10.13 12.96 29.22 5.54 44.4 7.69 2.47-4.52 8.79-13.59 0.18-15.33-9.93-0.51-3.55-9.74 2.47-10.74 15.29-1.16 31.87 2.49 43.3 13.28 3.97 8.21 0.43 17.75-6.01 23.02 5.17 4.87 12.67 9.04 14.92 16.73 17.73-12.82 11.25-48.46-11.66-52.12-19.95-5.17-39.7-14.47-60.84-12.18m1427.7 19.74c-9.34 11.74 14.21 2.03 0 0m-1594.6 8.24c-13.05 3.88-27.6 9.04-37.55 17.74 14.06-4.74 27.11-11.97 41.12-16.86 4.06-1.29-1.62-3.1-3.57-0.88m112.97 3.1c-26.25 2.07-52.3 6.45-77.66 13.54 3.6 2.17 8.95 0.93 13.05 2.89 23.85-7.05 48.29-12.89 72.97-16.14-0.81-2.77-6.84 0.99-8.36-0.29m1456.8 15.84c-82.92 37.98-175.8 31.83-264.22 39.49-46.76-0.51-93.46 0.17-139.51 5.83-18.92 5.62-39.86-2.16-58.36 5.92-26.87 4.07-52.08 14.86-77.34 24.31-4.09 3.79-14.47 3-10.49 11.41 0.73 14.02 3.46 27.26 2.1 41.18 0.32 4.97 3.12 12.71-2.65 15.68-14.3-15.58-9.28-39.68-18.62-57.55-15.26-12.4-36.53-13.08-54.67-19.27-57.54-0.07-115.19 5-172.56-3.99-43.8-1.74-87.67-5.41-131.17-11.69-23.04-2.44-46.78-2.95-68.95-10.42-49.33-2.06-100.84 0.32-146.77 20.4 0.37 25.48 17.7 47.05 14.15 74.14 4.18 9.91 4.87 20.57 2.77 30.9 6.47 8.06 9.72 18.32 6.17 28.51 1.32 8.31-5.14 3.6-5.34-0.4-3-15.61-13.69-29.17-9.37-46.05-8.19-27.42-10.04-57.7-24.86-83.54-6.04-2.93-12.19-11.04-19.31-6.75-23.1 4.86-44.81-7.28-67.21-8.29-19.17-10.63-42.06-3.71-62.38-10.11-8.41-1.67-17.48-6.6-25.82-1.77 0.34 25.84 8 50.73 10.23 76.09 3.93 18.88 0.82 41.02 13.35 57.24 4.73 52.29 4.53 105.72 17.62 157.01 3.61 72.33 16.72 141.35 27.74 212.27 10.88 33.69 10.09 69.68 19.39 103.74 5.11 34.92 17.03 69.18 18.88 104.22 1.26 8.92 10.4 16.79 5.19 26.07 2.77 5.91-1.22 20.3 4.39 19.63 0.99 20.6 0.55 43.76 10.61 62.37 4.19 43.22 12.1 85.84 25.08 127.21 0.11 8.13 0.71 16.84 5.76 23.57-0.66 19.7 6.56 38.78 10.55 57.91-7.11 4.29 4.87 4.52 7.64 5.71 11.99 5.52 24.59 13.44 28.09 27.09 6.4 14.19-5.46 27.2-10.57 39.22 7.14 5.33 17.42 1.37 25.37 4.89 7.6 3.94 16.22 5.58 24.69 6.16 20.21-3.2 39.6 7.04 59.87 2.29 13.46 4.62 28.47 3.38 42.91 1.9-4.29-31.61-18.02-62.52-14.72-94.71 1.48-7.27 5.94 0.6 5.6 4.33-0.67 18.95 6.47 36.58 10.7 54.67-1.43 15.31 16.86 34.51 34.51 33.02 21.45 0.05 42.85 2.21 64.16 4.66-3.28-5.17-7.72-18.81 4.05-15.27 5.87 8.95 13.12 19.78 25.36 19.9 22.97 1.48 45.58 6.06 68.51 7.95 23.61-2.42 47 1.58 70.18 5.45 61.27-0.95 123.29-1.43 183.63-13.1 17.15-11 39.36-3.9 57.02-6.62-4.54-5.63-0.15-19.45 7.05-9.95 0.96 10.39 10.36 13.62 19.89 9.71-3.44-10.17 8.36-8.63 9.94-0.56 56.14-2.23 113.17-5.16 169.03-13.62 0.61-3.61 3.68-6.92 7.87-6.91 3.65 10.4 15.62 3.93 23.39 4.65-7.45-6.82-8.36-18.11-11.74-26.54 16.9-2.02 12.97 23.67 29.23 23.84 14.56 1.98-2.12-12.75 3.36-18.63 5.9-4.75 13.66 2.98 18.81-3.95 13.17 2.97-1.54 15.15-3.14 21.6 20.35-2.84 42.24-0.21 61.22-9.03-0.18-2.99-5.93-8.56-0.83-10.95 8.89-4.98 7.69 12.73 16.38 9.36 19.35-0.46 38.38-3.87 57.53-6.32-13.67-1.14-19.46-17.69-23.63-29.28 1.11-18.46 18.69-31.51 34.43-37.07 12.31-59.33 19.49-120.1 19.82-180.91 14.82-60.26 4.63-122.04 19.27-182.08-0.43-38.7 3.48-77.15 4.86-115.53 6.28-43.94 2.13-89.48 9.27-133.43 4.87-43.64 0.32-88.04 6.66-131.54-1.83-22.85 8.24-45.33 2.03-67.83-4.38-43.51 6.75-86.61 0.9-130.02 3.72-31.67 1.09-62.49 0.28-93.65 3.4-3.97 4.43-16.45-3.26-14.17m-1590.7 24.6c-6.26-1.17-2.94 4.7 0 0 12.66-5.58 27.92-9.38 39.08-16.33-13.1 4.71-27.74 8.09-39.08 16.33m-37.43-9.97c-16.3 18.94 6.53 44.67 27.84 47.65-0.05-8.12-4.12-15.43-5.49-23.31-2.6 0.22-8.87 0.89-5.49-3.35 6.17-8.41-11.82 6.77-8.48-3.85-3.93-4.31-4.13-13.02-8.38-17.14m40.24 0.21c-8.97 3.22-19.68 5.98-26.42 12.69 9.6-3.25 18.78-7.76 27.98-12.01 2.08-1.3-0.54-1.23-1.56-0.68m1616.8 49.76c-5.82 4.17 8.89-0.91 0 0m26.32 72.08c1.9 3.73 4.34-2.57 0 0m48.84 55.64c3.97 5.07 12.69-1.17 0 0m-65.24 37.44c-16.64 3.18 3.49 6.17 0 0m-15.84 29.77c-8.05 7.6 10.87 1.15 0 0m14.24 48.15c1.9 3.73 4.34-2.57 0 0m-1554.9 3.95c-4.17 0.94-8.69 2.11-11.74 5.31 2.87 2.09 17.05-4.36 11.74-5.31m35.92 169.25c-5.5 3.66-14.37 1.4-18.55 6.99 2.85 6.78 23.34-6.46 18.55-6.99m1486.8 37.92c-1.17 6.54 10.98-3.39 0 0m-1471.9 62.07c-7.32 3.16-13.71 8.2-20.72 12.01 7.07 1.87 24.58-10.38 20.72-12.01m1498.1 5.78c-7.73-2.28-5.95 3.32 0 0 10.62 1.37 7.47-3.74 0 0m-1483.1 46.23c-3.13 1.27-7.44 1.86-9.15 5.06 1.2 1.67 18.35-5.88 9.15-5.06m-32.99 52.78c-1.1 6.34 5.54 1.34 0 0m18.94 12.88c-4.56-1.42-0.56 4.38 0 0 9.41-2.56 7.75-6.27 0 0m11.46 20.87c-6.01-1.55-2.39 4.86 0 0 7.46 0.83 4.62-4.78 0 0m1448.6 2.27c1.9 3.73 4.34-2.57 0 0m-1449.4 121.5c-6.31 9.5 5.97 9.63 0 0m6.09 54.43c-3.06 2.38 0.7 7.53 0.5 10.76 3.97-0.42 1.38-10.48-0.5-10.76m33.97 29.06c-5.96 2.97-14.44 3.24-19.05 7.88 3.67 0.84 21.75-5.87 19.05-7.88m5.37 44.14c-2.79 1.65-6.1 3.48-7.46 6.65 2.78-0.44 10.89-7.14 7.46-6.65m-12.08 7.86c-2.47 0.71-4.88 2.16-5.47 4.86 3.29-0.88 13.32-5.91 5.47-4.86m-8.44 51.85c0.72 3.92 0.65 9.54 4.07 11.88-1.42-3.7 0.39-11.67-4.07-11.88m1473.6 10.42c-19.47 2.26-39.9-1.62-58.64 5.36-2.66 2.86-6.75 7.91-3.66 11.93 69.62-10.32 141.83 0.28 207.64 24.22 12.67 4.43 27.12 10.51 31.91 23.51 15.26-9.63-2.1-32.95-16.94-32.16-47.6-28.68-106.15-31.56-160.31-32.86m-12.41 21.89c-18.85 0.63-38.13 1.95-56.19 7.7 1.37 4.1 9.11 2 12.35 2.19 30.12-4.68 62.58-6.06 91.53-8.25-15.85-1.87-31.74-1.71-47.69-1.64m-1244.6 10.68c-1.65-0.07-2.44 3.18-0.45 2.86 14.76-0.88 29.07 2.95 43.49 5.2 11.36 2.91 10 15.68 19.27 20.44 3.31 18.78-11.81 32.36-25.53 42.02-2.08 12.8 12.43 1.47 13.69-4.62 12.21-4.69 19.73-17.09 22.72-29.41 0.36-12.71-8.81-24.01-19.64-29.74-17.18-6.77-35.91-6.01-53.55-6.75m-32.37 2.43c-31.4 4.05-65.99 5.21-94.24 18.56 41.16-5.33 81.84-19 123.41-18.47-9.02-2.35-19.55 0.6-29.17-0.09m-37.24 15.39c28.02-4.07 56.32-6.25 84.65-5.16 2.15-0.94 5.44-4.91 1.01-4.51-28.69-0.73-57.97 3.33-85.66 9.67m1351.3-6.64c-15.09 2.75-30.65-0.87-45.49 3.35-9.65 1.69-11.11 14.97-22.14 13.78 5.12 11.37-19.62 5.81-21.36 17.43 13.03 7.01 32.06-3.54 32.64-17.89 37.75-7 79.96-6.88 115.9 6.52 5.02-1.02 10.22-2.35 15.33-0.76-2.27 7.76-14.89 5.86-16.58 14.1 3.47 4.19 1.53 7.88-0.81 11.95 7.24-2.16 6.87-12.2 15.14-12.98 7.27-6.06 22.95-5.02 24.3-16.37-11.49 2.82-21.64-20.55-33.49-10.53-20.99-4.13-42.06-7.75-63.44-8.6m-91.78 0.39c-0.89 2 4.76 3.72 1.74 5.83-12.09 1.32-28.77 3.94-33.16 17.29 11.36 7.86 16.32-10.46 26.79-12.04 7.41 0.56 18.46-12.02 4.63-11.08m-23.82 2.78c-7.25 1.56-13.55 5.62-19.59 9.73 1.49 8.17 9.32 6.08 11.04-0.14 0.66-3.63 19.94-11.25 8.55-9.59m-1180.5 3.11c-6.26 2.78-20.48-1.44-22.77 3.99 19.56-1.01 40.16-0.72 58.68-1.37-7.8-7.83-24.6-1.18-35.91-2.62m-122.83 17.63c22.25-5.78 46.01-11.76 67.62-17.27-22.45 3.63-47.93 7.05-67.62 17.27m1525.4-15.79c-1.03 6.37-14.15 1.46-9.49 9.36 8.69-2.62 23.31-9.8 27.8 2.36 5.8 8.14-17.2 23.27 1.24 17.25 10.15-13.66-1.54-32.03-19.55-28.97m-1432.2 1.84c3.29 3.46 5.39-2.61 0 0m-120.37 1.73c-3.31 3.68 4.67 0.58 0 0m165.84 1.35c-17.25 1.6 13.19 4.38 0 0m-26.9 1.13c-3.27-0.61-17.96 3.72-8.86 2.81 1.78-0.83 17.3-1.71 8.86-2.81m1217.5 0.97c-4.49 2.97-12.67 4.45-14.23 9.08 5.01 12.16 16.46-1.74 24.42-3.71-1.1-3.2-6.68-6.21-10.19-5.37m-1245.2 3.04c2.47 3.6 8.2-3.11 0 0m-19.76 2.75c2.38 4.81 6.37-2.65 0 0m-5.02 0.97c1.91 3.72 4.35-2.57 0 0m-62.16 2.05c-2.95 0.92-6.47 1.23-8.93 3.3-0.62 2.17 14.39-2.9 8.93-3.3m48.13 0.17c-13.33 2.63-26.92 4.61-39.95 8.54-8.23-0.04-2.8 2.61-0.75 1.86 14.27-2.84 28.21-7.34 42.65-9.35 10.23-0.11 0.43-3.14-1.95-1.05m119.13 0.17c-14.07-1.49-26.09 3.88-37.29 11.91-17.23-2.85-36.43 1.53-51.36 9.15-8.38-1.8-17.97 2.1-24.85 4.43 20.65-4.84 41.31-1.8 62.08-0.39 12.63-14.17 30.86-14.63 47.85-19.75 7.03-3.54 4.86 5.06 1.28 5.7-24.13 3.84-50.79 16.97-61.19 39.49-7.14 0.75-3.15 12.86-11.04 12.82-4.79-3.49-11.97-4.8-15.75 0.82-10.56 1.25-21.8 3.95-30.2 10.5 0.66 1.72 6.7-3.64 8.59-0.05 1.15 4.1-5.6 3.8-6.04 7.61 8.7-2.42 15.73-10.33 25.36-7.31 10.64 3.68 14.7 16.07 12.05 26.37 9.32-1.02 5.07-20.89 14.43-11.43 13.83-7-20.95-25.56 3.43-27.06 19.3-26.29 57.09-28.3 72.65-57.83 2.32-5.94-6.36-6.87-10-4.98m1226.2-0.16c-13.98 13.82-14.86 40.43 0.13 54.73 18.21 3.36 36.76 6.2 55.38 5.7 1.13-0.75 4.59-2.52 1.4-2.88-9.88 0.04-19.05-5.37-29.02-2.32-16.22 2.2-30.43-10.34-34.8-25.18-1.48-11.49 5.88-21.14 10.82-30.73l-3.91 0.68m-16.35 3.89c-3.9 8.55-13.55 2.25-18.58 7.94 4.58 3.88 23.31-1.81 18.58-7.94m-1336.6 6.7c11.23 0.31 7.37-4.3 0 0m1406.2-1.88c-3.08 9-18.41 0.19-19.56 9.33 13.18 2.36 24.35 14.36 17.67 27.62 10.06 3.93 18.31-11.36 21.09-19.58-5.83-5.97-11.98-12.87-19.2-17.37m-1475.4 20.83c23.11-6.41 47.6-8.74 69.2-18.95-23.48 3.45-48.57 10-69.2 18.95m-28.49-12.85c-6.61 3.36 4.31 2.09 0 0m-5.15 4.15c-2.97 1.77-8.92 1.4-9.27 5.78 1.36 1.86 13.29-5.49 9.27-5.78m101.12 6.83c-5.97 3.73 6.77 0.18 0 0m66.18 3.08c-0.14 4.45 4.55-1.72 0 0m-92.99 4.25c5.79 4.15 8.97-1.45 0 0m-49.02 2.99c-15.34 6.16-35.41 8.75-45.3 22.53 14.15-5.28 27.63-13.17 42.77-15.89 4.24 0.3 8.46-9.73 2.53-6.64m121.03 2.17c-9.01 1.54-21-0.11-28.52 4.55 13.4-2.11 26.95-2.35 40.5-2.19 5.93-5.29-9.38-1.61-11.98-2.36m55.67 2.44c-3.31 3.68 4.67 0.58 0 0m-162.85 4.46c-17.57 2.88-34.18 10.04-50.15 17.68 1.04 2.15 4.99 3.46 7.44 3.38 15.45-10.62 34.08-15.35 52.51-17.43-1.79-3.09-6.46-3.67-9.8-3.63m110.25 0.75c1.91 3.72 4.34-2.58 0 0m-12.38 6.43c-4.2 0.62-10.65 0.16-12.92 2.39 8.19-0.45 16.43-0.86 24.54-2.19-1.69-2.45-8.47 0.44-11.62-0.2m-82.59 0.84c-16.75 1.87-33.14 6.74-47.98 14.74 19.73 2.76 39.99-8.33 60.36-10.11-1.14-5.19-8.2-5.82-12.38-4.63m16.76 10.06c-15.51 2.14-32.24 4.88-46.09 10.72 15.29 3.07 34.47-2.15 50.89-5.83 4.2-3.11-0.79-7.14-4.8-4.89m32.34 2c-3.4 0.75-6.71 1.96-9.73 3.69 2.08 7.33 20.56-6.37 9.73-3.69m1385.5 21.62c-6.21 7.51-0.39 15-5.11 22.12 2.22 52.83-1.46 106.57-8.93 158.88-6.79 3.54-16.07 3.56-23.27 7.62-8.29-3.16-26.04-5.87-16.8 7.15 17.7-4.25 35.67-1.9 52.55 2.88 18.4-60.42 22.24-126.89 7.62-189.07-1.56-3.18-1.78-9.46-6.06-9.58m-1396.1 1.05c-4.54 9.94 5.12 3.83 0 0m53.43 39.98c-10.38 7.23 3.14 18.81 0.18 28.04 9.08 40.66 28.46 84.41 36.17 127.65 4.51 7.11 2.99 15.74 0.24 23.2 5.48-1.3 11.09-0.75 16.66-0.45 3.1-18.79-3.16-37.54-6.51-55.86-8.45-39.14-17.78-78.97-38.2-113.82-2.32-3-3.28-10.41-8.54-8.76m1282.5 115.79c-1.18 4.36-2.35 12.09 1.94 15.16 3.78-3.88 2.82-13.38-1.94-15.16m-1218.8 46.62c-2.26 17.01 4.3 2.74 0 0m1260.2 2.67c0.66 5.22-5.41 20.26 2.5 22.72 7.77-7.37 20.97-28.82-2.5-22.72m-1260.2 8.89c-1.02 4.61 4.62-1.03 0 0m0.99 3.88c-0.02 6.08-2.73 14.24 0.39 19.12 3.14-5.04-0.51-13.56-0.39-19.12m-16.73 12.5c-13.76-3.17-5.56 16.66-1.79 24.36 8.68 2.81 5.03-5.78 7.11-10.05-1.63-4.58 4.38-17.81-5.32-14.31m-29.85 7.92c-7.25 0.39-15.42 11.73-5.95 12.92-3.59-8.77 10.66-6.44 5.95-12.92m1312 2.02c-7.33 0.81-15.36 0.71-20.29 6.4 6.16 4.98 19.23-2.73 20.29-6.4z"/>
</svg>
