<?xml version="1.0" standalone="no"?>
<!DOCTYPE svg PUBLIC "-//W3C//DTD SVG 20010904//EN"
 "http://www.w3.org/TR/2001/REC-SVG-20010904/DTD/svg10.dtd">
<svg version="1.0" xmlns="http://www.w3.org/2000/svg"
 width="200.000000pt" height="200.000000pt" viewBox="0 0 200.000000 200.000000"
 preserveAspectRatio="xMidYMid meet">
<metadata>
Created by potrace 1.11, written by Peter Selinger 2001-2013
</metadata>
<g transform="translate(0.000000,200.000000) scale(0.100000,-0.100000)"
fill="#000000" stroke="none">
<path d="M675 1643 c-103 -43 -182 -111 -231 -200 -20 -34 -40 -60 -46 -57
-18 11 -97 5 -125 -10 -114 -58 -191 -284 -161 -471 23 -147 86 -213 216 -229
20 -2 51 -21 86 -53 60 -55 122 -79 184 -71 35 5 39 2 74 -43 51 -65 113 -100
185 -104 102 -6 182 39 219 121 21 48 26 52 66 58 86 14 177 75 200 135 5 14
10 48 9 74 0 40 3 47 17 43 9 -3 37 -8 62 -11 25 -3 56 -8 70 -10 84 -13 155
-19 231 -18 72 0 93 4 124 23 73 45 112 141 89 219 -28 97 -84 139 -223 166
-47 9 -60 14 -46 19 58 20 129 63 152 92 31 41 53 114 47 151 -9 48 -50 99
-100 123 -109 53 -262 26 -578 -103 l-99 -40 -21 29 c-40 57 -114 122 -170
149 -72 35 -172 43 -231 18z m193 -112 c90 -46 169 -161 158 -229 -12 -79 -65
-75 -150 11 -84 83 -133 81 -127 -6 8 -121 7 -132 -23 -172 -16 -21 -47 -45
-68 -53 -85 -34 -51 -120 39 -97 37 9 112 83 140 140 14 27 26 51 28 53 1 1
17 -5 35 -14 37 -19 102 -21 142 -6 43 18 79 73 85 135 l6 55 66 31 c105 48
364 131 423 135 57 4 125 -14 139 -36 16 -25 9 -66 -16 -96 -33 -39 -98 -66
-252 -102 -70 -17 -183 -47 -251 -67 -128 -37 -150 -53 -137 -94 10 -29 42
-38 110 -28 152 22 382 29 478 15 102 -14 157 -55 157 -115 0 -31 -20 -68 -45
-81 -46 -25 -195 -14 -470 35 -11 2 -58 12 -105 23 -96 21 -126 16 -136 -23
-8 -34 7 -50 61 -65 83 -23 121 -102 72 -148 -86 -81 -283 -69 -359 22 -18 22
-24 71 -10 80 31 19 77 14 147 -14 57 -24 78 -29 93 -21 26 14 33 45 16 69
-20 29 -131 74 -190 78 -92 5 -177 -54 -177 -122 0 -7 -15 -18 -32 -24 -48
-16 -84 -62 -108 -137 -1 -5 -19 -8 -39 -7 -64 1 -124 62 -142 144 -9 39 -22
53 -51 53 -33 0 -47 -13 -48 -47 -2 -30 -7 -31 -48 -10 -47 24 -72 91 -71 189
0 44 2 87 5 95 32 121 61 178 100 199 27 15 63 11 60 -7 -2 -6 -7 -29 -12 -51
-10 -48 7 -81 44 -81 29 0 48 27 65 95 63 245 240 377 398 296z m-58 -864 c30
-26 76 -50 158 -83 l23 -9 -21 -27 c-47 -60 -141 -57 -204 7 -45 45 -57 83
-40 123 15 37 30 35 84 -11z"/>
</g>
</svg>
